<?xml version="1.0" encoding="UTF-8"?> <svg xmlns="http://www.w3.org/2000/svg" width="91" height="55" viewBox="0 0 91 55" fill="none"> <g clip-path="url(#clip0)"> <path d="M0.5 0V55H90.5V0H0.5ZM3.76127 51.7147V3.28532H87.231V51.7147H3.76127Z" fill="#4DBDC6"></path> <path d="M11.9248 30.9727H15.1152L17.4137 40.3475L19.9771 30.9727H22.4419L25.0099 40.3475L27.3053 30.9727H30.4957L26.8308 44.3638H23.377L21.211 36.4678L19.0543 44.3684H15.5974L11.9248 30.9727Z" fill="#4DBDC6"></path> <path d="M30.7454 37.6703C30.7454 36.2931 31.1508 34.9468 31.9103 33.8017C32.6698 32.6566 33.7494 31.7641 35.0125 31.2371C36.2755 30.71 37.6653 30.5722 39.0062 30.8408C40.3471 31.1095 41.5787 31.7727 42.5454 32.7465C43.5121 33.7204 44.1704 34.9611 44.4372 36.3118C44.7039 37.6626 44.567 39.0627 44.0438 40.335C43.5206 41.6074 42.6347 42.6949 41.4979 43.46C40.3612 44.2252 39.0248 44.6336 37.6577 44.6336C36.7477 44.6416 35.8453 44.467 35.003 44.12C34.1607 43.7729 33.3956 43.2603 32.7521 42.6121C32.1086 41.9639 31.5998 41.193 31.2552 40.3445C30.9107 39.4961 30.7374 38.587 30.7454 37.6703ZM41.529 37.6703C41.529 35.2789 39.819 33.6913 37.6546 33.6913C35.4902 33.6913 33.7802 35.2789 33.7802 37.6703C33.7802 40.0617 35.4902 41.6493 37.6546 41.6493C39.819 41.6493 41.5321 40.0617 41.5321 37.6703H41.529Z" fill="#4DBDC6"></path> <path d="M50.8173 39.9642H49.3738V44.3638H46.3359V30.9727H51.6523C52.2513 30.9712 52.8447 31.089 53.3984 31.3193C53.952 31.5496 54.4551 31.8878 54.8787 32.3144C55.3023 32.7411 55.638 33.2479 55.8666 33.8057C56.0951 34.3635 56.2121 34.9612 56.2106 35.5647C56.2106 37.2097 55.2232 38.701 53.7612 39.4444L56.5896 44.3607H53.3237L50.8173 39.9642ZM49.3738 37.2857H51.6523C52.4888 37.2857 53.1712 36.5393 53.1712 35.5647C53.1712 34.5901 52.4888 33.8421 51.6523 33.8421H49.3738V37.2857Z" fill="#4DBDC6"></path> <path d="M65.858 41.4183V44.3669H58.0723V30.9727H61.1102V41.4183H65.858Z" fill="#4DBDC6"></path> <path d="M79.0183 37.669C79.0183 41.4571 76.2269 44.3638 72.562 44.3638H67.2441V30.9727H72.562C76.2269 30.9727 79.0183 33.8809 79.0183 37.669ZM76.0913 37.669C76.0913 35.3722 74.6479 33.9197 72.5589 33.9197H70.2851V41.4183H72.5635C74.6509 41.4183 76.0944 39.9642 76.0944 37.669H76.0913Z" fill="#4DBDC6"></path> <path d="M20.6021 17.429C19.8919 17.1186 19.1386 16.9169 18.4145 16.6422C17.7336 16.3831 17.0496 16.1223 16.3964 15.8042C16.1886 15.712 16.0185 15.5507 15.9145 15.3474C15.8105 15.144 15.7788 14.9109 15.8249 14.6869C15.9019 14.1918 16.2409 13.9435 16.683 13.8054C17.2051 13.6416 17.7652 13.649 18.2829 13.8263C18.8006 14.0037 19.249 14.3419 19.5637 14.7924C19.6978 14.9864 19.8133 15.1943 19.9473 15.4131L21.3492 14.586C21.8206 14.3098 22.2899 14.033 22.7572 13.7557C22.4055 12.9598 21.8742 12.2576 21.2056 11.705C20.537 11.1524 19.7495 10.7648 18.9059 10.5728C18.468 10.4459 18.0152 10.3781 17.5595 10.3711C16.8525 10.3751 16.1509 10.4962 15.4829 10.7296C13.6343 11.3503 12.5143 12.8541 12.4327 14.7288C12.3511 16.6034 13.2399 17.9629 15.067 18.8133C15.1592 18.8593 15.2538 18.9002 15.3504 18.9359C16.2609 19.2338 17.179 19.5085 18.0802 19.8313C18.5359 19.9786 18.9696 20.1875 19.3696 20.4521C20.0675 20.9456 19.952 21.9062 19.1755 22.2662C18.9134 22.3784 18.6371 22.4531 18.3544 22.4881C16.7723 22.7256 15.5445 22.0846 14.8113 20.6616C14.782 20.6026 14.7435 20.5467 14.7003 20.4753C13.7991 20.9983 12.9041 21.526 12.0014 22.0381C11.8119 22.1467 11.8673 22.2616 11.9305 22.4074C12.4419 23.5915 13.2461 24.5149 14.3953 25.0736C15.331 25.542 16.3551 25.8043 17.3993 25.8428C18.4435 25.8813 19.4839 25.6953 20.4511 25.297C22.1734 24.6204 23.11 23.3013 23.184 21.4096C23.2594 19.4728 22.3259 18.1755 20.6021 17.429Z" fill="black"></path> <path d="M68.3318 10.6992C68.2797 10.703 68.2281 10.7119 68.1777 10.7256V13.9752H71.9505V25.4948H75.3196V13.9504H79.1277V10.7085C75.5291 10.7085 71.9304 10.7054 68.3318 10.6992Z" fill="black"></path> <path d="M36.4897 10.6895C36.3947 10.6806 36.2994 10.7014 36.2166 10.7492C36.1339 10.797 36.0678 10.8694 36.0276 10.9565C34.8342 12.9522 33.6285 14.9448 32.4104 16.9343C32.3473 17.0367 32.2779 17.136 32.1994 17.2571C32.1146 17.1221 32.0453 17.0181 31.9806 16.9095C30.779 14.9282 29.5754 12.9475 28.3696 10.9673C28.3019 10.8556 28.1663 10.7097 28.0615 10.7082C27.0017 10.6895 25.9403 10.6973 24.8604 10.6973V25.5068H28.1987V17.0538C28.3103 17.1196 28.4011 17.2159 28.4605 17.3316L31.8296 22.8981C32.0915 23.3311 32.3072 23.3327 32.566 22.8981L35.9551 17.3021C36.0137 17.2059 36.0815 17.1159 36.1446 17.0227L36.2155 17.06V25.4975H39.5553V10.6957C38.517 10.6957 37.5034 10.7082 36.4897 10.6895Z" fill="black"></path> <path d="M65.1186 19.8766C66.9087 18.7701 67.7991 16.7263 67.3647 14.7274C67.1362 13.5879 66.523 12.5633 65.6293 11.8277C64.7357 11.0922 63.6168 10.6911 62.4628 10.6926C60.5664 10.6724 58.67 10.6926 56.7736 10.6926C56.6957 10.6959 56.6181 10.7036 56.541 10.7158V25.5052H59.8886V20.6478C60.343 20.6478 60.7528 20.6634 61.161 20.6478C61.2654 20.6366 61.3705 20.6602 61.4604 20.7148C61.5502 20.7694 61.6198 20.8522 61.6586 20.9505C62.4643 22.3921 63.2869 23.8261 64.1127 25.2569C64.1774 25.3702 64.3129 25.5176 64.4208 25.5192C65.55 25.5394 66.6792 25.5316 67.8915 25.5316L64.7658 20.1L65.1186 19.8766ZM64.0079 16.3864C63.9133 16.7691 63.69 17.1071 63.376 17.3427C63.062 17.5784 62.6767 17.6972 62.2856 17.6791C61.4999 17.6791 60.7158 17.6791 59.9101 17.6791V13.891C60.8344 13.891 61.7587 13.8273 62.6569 13.908C63.6998 14.0012 64.3437 15.2566 64.0079 16.3864Z" fill="black"></path> <path d="M50.2838 10.9453C50.2677 10.8632 50.2203 10.7907 50.1517 10.7434C50.0832 10.6961 49.9989 10.6778 49.9171 10.6924C48.6955 10.6924 47.4723 10.7064 46.2507 10.6924C45.9734 10.6924 45.861 10.7746 45.7731 11.0369C44.5346 14.7366 43.2883 18.4342 42.0343 22.1297C41.6615 23.2378 41.2856 24.3442 40.9082 25.4647C40.9729 25.5004 40.9914 25.519 41.0114 25.519C42.1422 25.519 43.2729 25.5314 44.4005 25.519C44.4822 25.519 44.6039 25.3902 44.6362 25.2971C44.8427 24.6888 45.0383 24.0773 45.2186 23.4597C45.2242 23.4182 45.238 23.3784 45.2592 23.3425C45.2805 23.3066 45.3087 23.2754 45.3423 23.2508C45.3758 23.2261 45.4139 23.2086 45.4543 23.1991C45.4947 23.1897 45.5366 23.1886 45.5775 23.1958C47.2207 23.2041 48.8639 23.2041 50.5071 23.1958C50.548 23.1895 50.5897 23.1915 50.6298 23.2018C50.6699 23.212 50.7075 23.2303 50.7404 23.2555C50.7733 23.2807 50.8008 23.3123 50.8214 23.3484C50.8419 23.3846 50.855 23.4245 50.8599 23.4659C51.0355 24.0602 51.242 24.6453 51.4099 25.2428C51.4761 25.4771 51.587 25.5392 51.8181 25.5361C52.8349 25.5237 53.8516 25.5361 54.8683 25.5361C54.9639 25.5361 55.0609 25.519 55.1764 25.5097C55.1533 25.4181 55.1441 25.3623 55.1256 25.3095C53.5122 20.5183 51.8982 15.7303 50.2838 10.9453ZM46.337 20.0083C46.9008 18.219 47.4585 16.453 48.0485 14.5767C48.6339 16.4281 49.19 18.1879 49.7646 20.0083H46.337Z" fill="black"></path> </g> <defs> <clipPath id="clip0"> <rect width="90" height="55" fill="white" transform="translate(0.5)"></rect> </clipPath> </defs> </svg> 