<?xml version="1.0" encoding="UTF-8"?> <svg xmlns="http://www.w3.org/2000/svg" width="532" height="391" viewBox="0 0 532 391" fill="none"> <path fill-rule="evenodd" clip-rule="evenodd" d="M248.73 101.434L246.287 103.879H238.996L239.034 89.2852H248.73V101.434ZM263.35 77.7382L263.388 65.5894L287.704 53.4407L287.666 64.0849L272.483 71.6826L287.666 79.2803L287.629 89.9246L263.35 77.7382ZM315.516 99.0268L298.603 50.3941H308.863L325.776 99.0268H315.516ZM361.029 77.7382L336.713 89.887L336.75 79.2427L351.934 71.645L336.788 64.0473L336.825 53.403L361.104 65.5518L361.029 77.7382ZM374.446 59.4962V50.3941H386.586L396.282 60.1357L396.207 89.2852L386.473 98.9892H374.333V89.887H382.451L386.473 85.8625L386.51 63.4832L382.527 59.4586H374.446V59.4962ZM440.029 50.3941L449.725 60.1357L449.65 89.2852L439.916 98.9892H415.637L405.941 89.2852L406.016 60.1357L415.75 50.3941H440.029ZM439.954 85.9001L439.991 63.5208L436.008 59.4962H419.734L415.713 63.5208L415.675 85.9001L419.659 89.9246H435.932L439.954 85.9001ZM475.169 89.887H482.46V98.9892H458.182V89.887H465.473L465.548 59.4962H458.257V52.8013L460.7 50.3564H475.282L475.169 89.887Z" fill="#4DBDC6" fill-opacity="0.5"></path> <path fill-rule="evenodd" clip-rule="evenodd" d="M388.766 145.252L399.514 210.773L410.263 209.569L406.58 145.252H388.766Z" fill="#1F1F1F"></path> <path fill-rule="evenodd" clip-rule="evenodd" d="M163.418 170.941C160.674 227.134 212.953 249.739 262.563 245.564C312.173 249.739 364.451 227.134 361.707 170.941C352.762 -13.7355 172.4 -13.7355 163.418 170.941Z" fill="#77C3C6"></path> <path fill-rule="evenodd" clip-rule="evenodd" d="M177.474 169.925C175.106 218.859 219.267 239.357 262.563 237.025C305.858 239.357 350.056 218.859 347.651 169.925C339.007 -8.7712 186.156 -8.7712 177.474 169.925Z" fill="#475B5C"></path> <path fill-rule="evenodd" clip-rule="evenodd" d="M528.087 369.986L460.212 149.276H457.769L493.548 265.611L525.869 370.738C526.133 371.603 526.696 372.242 527.373 372.656C528.049 373.07 528.876 373.183 529.703 372.919C530.492 372.694 531.169 372.129 531.544 371.415C531.958 370.7 532.108 369.835 531.92 368.97L484.904 149.276H482.536L529.665 369.534C529.703 369.76 529.665 369.986 529.59 370.174C529.477 370.362 529.327 370.512 529.102 370.55C528.914 370.625 528.688 370.587 528.5 370.474C528.312 370.399 528.162 370.211 528.087 369.986Z" fill="#1F1F1F"></path> <path fill-rule="evenodd" clip-rule="evenodd" d="M478.441 155.106C479.945 157.099 482.313 158.416 484.981 158.416C487.649 158.416 490.055 157.099 491.52 155.106H478.441Z" fill="#1F1F1F"></path> <path fill-rule="evenodd" clip-rule="evenodd" d="M455.064 155.106C456.568 157.1 458.936 158.416 461.604 158.416C464.272 158.416 466.678 157.1 468.143 155.106H455.064Z" fill="#1F1F1F"></path> <path fill-rule="evenodd" clip-rule="evenodd" d="M3.91349 369.986L71.7889 149.276H74.2318L38.4525 265.611L6.1309 370.738C5.86782 371.603 5.30406 372.242 4.62756 372.656C3.95106 373.07 3.12423 373.183 2.2974 372.919C1.50815 372.694 0.831656 372.129 0.455823 371.415C0.042407 370.7 -0.107928 369.835 0.0799888 368.97L47.0967 149.276H49.4644L2.37257 369.534C2.33499 369.76 2.37257 369.986 2.44773 370.174C2.56048 370.362 2.71082 370.512 2.93632 370.55C3.12424 370.625 3.34973 370.587 3.53765 370.474C3.72557 370.399 3.8759 370.211 3.91349 369.986Z" fill="#1F1F1F"></path> <path fill-rule="evenodd" clip-rule="evenodd" d="M53.5985 155.106C52.0952 157.1 49.7274 158.416 47.059 158.416C44.3906 158.416 41.9853 157.1 40.5195 155.106H53.5985Z" fill="#1F1F1F"></path> <path fill-rule="evenodd" clip-rule="evenodd" d="M76.9745 155.106C75.4712 157.099 73.1034 158.416 70.435 158.416C67.7666 158.416 65.3613 157.099 63.8955 155.106H76.9745Z" fill="#1F1F1F"></path> <path fill-rule="evenodd" clip-rule="evenodd" d="M219.228 191.854C219.228 191.854 238.846 237.027 255.834 237.177C258.089 237.177 265.079 237.252 266.77 237.177C277.707 236.839 301.422 190.199 301.422 190.199L219.228 191.854Z" fill="#1F1F1F"></path> <path fill-rule="evenodd" clip-rule="evenodd" d="M231.518 64.1975L239.974 38.6964C239.974 38.6964 255.233 28.7667 269.589 36.214C283.946 43.6612 282.03 68.9743 282.03 68.9743L231.518 64.1975Z" fill="#1F1F1F"></path> <path fill-rule="evenodd" clip-rule="evenodd" d="M210.658 72.9983L240.687 55.17L271.393 52.3867L298.453 63.8585L303.602 180.983L308.337 197.119C308.337 197.119 250.233 211.788 219.227 191.853L219.453 188.318L210.658 72.9983Z" fill="white"></path> <path fill-rule="evenodd" clip-rule="evenodd" d="M238.996 38.2076L240.161 67.2443C240.161 67.2443 252.225 76.3465 271.243 65.0251L266.469 31.0236C266.469 31.0612 244.822 26.2468 238.996 38.2076Z" fill="#FFB9A1"></path> <path fill-rule="evenodd" clip-rule="evenodd" d="M238.996 38.2055L239.673 55.0182C247.64 58.8171 261.922 59.5317 269.965 55.9209L266.469 31.0592C266.469 31.0592 244.822 26.2448 238.996 38.2055Z" fill="#FF8181"></path> <path fill-rule="evenodd" clip-rule="evenodd" d="M238.582 53.0264C234.447 110.573 247.902 148.073 252.563 195.577C252.563 195.577 227.682 196.141 216.445 186.061L208.289 134.419L199.044 68.0713C212.536 60.5864 225.089 60.5112 238.582 53.0264Z" fill="#1F1F1F"></path> <path fill-rule="evenodd" clip-rule="evenodd" d="M273.271 49.792L275.151 204.303C275.151 204.303 301.121 198.925 311.155 186.889L306.307 138.67L322.506 68.034L273.271 49.792Z" fill="#1F1F1F"></path> <path fill-rule="evenodd" clip-rule="evenodd" d="M239.972 38.207C239.972 38.207 217.197 57.0132 219.189 77.5871L237.266 101.621C233.207 110.272 229.186 118.923 225.127 127.612C237.304 145.252 243.205 170.189 251.736 187.114C247.827 137.466 236.176 100.155 239.972 38.207Z" fill="#303030"></path> <path fill-rule="evenodd" clip-rule="evenodd" d="M269.252 35.4619C269.252 35.4619 293.869 49.8674 294.132 70.6294C282.782 83.6057 283.947 88.721 278.873 97.7855C284.36 103.578 289.81 109.333 295.297 115.125C285.3 135.097 281.767 162.629 275.002 186.363L269.252 35.4619Z" fill="#303030"></path> <path d="M248.844 85.8713L249.658 85.7375L249.559 86.9672L250.584 86.7988L250.682 85.5692L251.496 85.4354L251.398 86.665L252.173 86.5377L252.105 87.3831L251.329 87.5105L251.201 89.2081L251.976 89.0807L251.908 89.9262L251.133 90.0536L251.038 91.2826L250.22 91.417L250.319 90.1874L249.298 90.3551L249.2 91.5847L248.386 91.7185L248.48 90.4895L247.705 90.6169L247.773 89.7714L248.549 89.644L248.681 87.9458L247.906 88.0732L247.974 87.2277L248.749 87.1003L248.844 85.8713ZM249.495 87.812L249.363 89.5103L250.383 89.3425L250.519 87.6437L249.495 87.812Z" fill="#B3B3B3"></path> <path fill-rule="evenodd" clip-rule="evenodd" d="M134.928 20.4543L134.327 21.0561H132.485V17.3701H134.966L134.928 20.4543ZM138.649 14.4363V11.3521L144.813 8.26788V10.976L140.942 12.8942L144.775 14.8124V17.5205L138.649 14.4363ZM151.878 19.8149L147.594 7.47803H150.187L154.472 19.8149H151.878ZM163.416 14.4363L157.253 17.5205V14.8124L161.124 12.8942L157.29 10.976V8.26788L163.454 11.3521L163.416 14.4363ZM166.799 9.80999V7.51563H169.881L172.324 9.99805V17.4077L169.843 19.8901H166.761V17.5957H168.866L169.881 16.5802V10.9007L168.866 9.80999H166.799ZM183.448 7.51563L185.891 9.99805V17.4077L183.411 19.8901H177.247L174.804 17.4077V9.99805L177.285 7.51563H183.448ZM183.411 16.505V10.8255L182.396 9.80999H178.262L177.247 10.8255V16.505L178.262 17.5205H182.396L183.411 16.505ZM192.356 17.5205H194.197V19.8149H188.033V17.5205H189.875V9.80999H188.033V8.11743L188.635 7.51563H192.318L192.356 17.5205Z" fill="#2B2A29" fill-opacity="0.5"></path> <path fill-rule="evenodd" clip-rule="evenodd" d="M261.057 224.764L266.281 237.176C266.281 237.176 298.039 236.687 311.569 228.675C316.53 225.741 331.337 217.993 338.29 208.816C350.279 193.019 354.188 173.799 354.188 173.799C320.664 175.642 264.063 181.697 261.057 224.764Z" fill="#1F1F1F"></path> <path fill-rule="evenodd" clip-rule="evenodd" d="M337.691 364.194C358.099 365.887 371.553 373.071 367.795 380.292C364.037 387.514 344.456 391.99 324.048 390.297C303.64 388.605 290.186 381.421 293.944 374.199C297.702 367.015 317.283 362.502 337.691 364.194Z" fill="#1F1F1F" fill-opacity="0.5"></path> <path fill-rule="evenodd" clip-rule="evenodd" d="M306.046 357.574C304.731 358.101 303.265 358.778 302.852 359.568C300.296 364.758 296.65 373.71 305.031 379.465C316.231 387.138 327.318 388.793 335.173 387.138C343.028 385.445 351.184 374.425 351.447 368.482C351.71 362.502 347.05 357.386 343.817 353.512C333.707 357.236 311.947 364.834 311.947 364.834L306.046 357.574Z" fill="white"></path> <path fill-rule="evenodd" clip-rule="evenodd" d="M340.095 286.787C339.87 287.426 326.227 331.207 326.302 332.9C326.378 334.592 320.702 336.247 317.696 337.037C314.689 337.789 312.096 332.636 312.209 332.223C312.321 331.809 325.137 251.206 325.137 251.206L340.095 286.787Z" fill="white"></path> <path fill-rule="evenodd" clip-rule="evenodd" d="M322.62 235.258C319.576 257.713 317.998 282.424 313.149 309.693C313.149 309.693 329.423 313.83 335.699 310.558C335.699 310.558 354.153 261.474 364.187 240.073C374.222 218.671 364.789 191.477 364.3 178.915C361.669 173.95 351.747 171.731 348.139 176.47C336.789 191.252 325.026 217.204 322.62 235.258Z" fill="#303030"></path> <path fill-rule="evenodd" clip-rule="evenodd" d="M302.212 362.576C302.024 369.12 338.066 391.424 346.861 360.62C348.627 354.414 330.174 341.25 330.812 331.057C331.301 322.82 330.136 322.556 327.881 327.408C324.574 334.479 317.47 335.081 315.479 328.461C312.848 319.698 311.044 326.43 310.63 329.289C308.187 346.403 302.512 351.443 302.212 362.576Z" fill="#1F1F1F"></path> <path fill-rule="evenodd" clip-rule="evenodd" d="M315.516 335.194C315.516 335.194 316.643 324.061 320.289 321.767C323.934 319.473 329.722 335.721 329.722 335.721C329.722 335.721 317.846 342.303 315.516 335.194Z" fill="#1F1F1F"></path> <path fill-rule="evenodd" clip-rule="evenodd" d="M261.057 224.764L255.833 237.176C255.833 237.176 240.913 237.402 210.545 228.676C180.141 219.95 167.212 167.669 167.212 167.669L197.542 175.455C197.542 175.455 258.276 185.309 261.057 224.764Z" fill="#1F1F1F"></path> <path fill-rule="evenodd" clip-rule="evenodd" d="M182.359 357.498C161.049 359.04 146.955 365.698 150.902 372.355C154.848 379.012 175.293 383.15 196.603 381.608C217.913 380.066 232.006 373.408 228.06 366.751C224.114 360.093 203.631 355.956 182.359 357.498Z" fill="#1F1F1F" fill-opacity="0.5"></path> <path fill-rule="evenodd" clip-rule="evenodd" d="M214.306 348.096C215.621 348.435 217.087 348.886 217.5 349.563C220.056 354.039 223.702 361.862 215.321 368.181C204.121 376.606 193.034 379.502 185.179 378.901C177.324 378.299 169.168 369.121 168.905 363.668C168.642 358.176 173.302 352.911 176.535 348.924C186.645 351.143 208.405 355.506 208.405 355.506L214.306 348.096Z" fill="white"></path> <path fill-rule="evenodd" clip-rule="evenodd" d="M180.216 279.34C180.441 279.979 194.084 323.76 194.009 325.452C193.934 327.145 199.609 328.8 202.615 329.59C205.622 330.342 208.215 325.189 208.103 324.775C207.99 324.324 195.174 243.758 195.174 243.758L180.216 279.34Z" fill="white"></path> <path fill-rule="evenodd" clip-rule="evenodd" d="M197.729 227.811C200.774 250.266 202.352 274.676 207.2 301.907C207.2 301.907 190.927 306.045 184.65 302.772C184.65 302.772 166.836 255.306 156.162 232.588C150.525 220.552 151.427 205.507 153.156 192.643C154.358 183.842 152.404 169.211 161.95 167.669C165.22 167.142 169.091 167.782 172.173 168.985C192.919 177.034 195.286 209.795 197.729 227.811Z" fill="#1F1F1F"></path> <path fill-rule="evenodd" clip-rule="evenodd" d="M218.137 351.932C218.288 357.95 179.953 384.505 171.158 356.107C169.392 350.39 190.175 332.261 189.537 322.858C189.048 315.26 190.213 314.997 192.468 319.51C195.775 326.055 202.578 325.905 204.72 319.849C206.411 315.11 209.907 316.577 209.869 319.285C209.832 335.12 217.874 343.281 218.137 351.932Z" fill="#1F1F1F"></path> <path fill-rule="evenodd" clip-rule="evenodd" d="M204.833 326.695C204.833 326.695 203.706 316.427 200.06 314.32C196.415 312.177 190.627 327.184 190.627 327.184C190.627 327.184 202.466 333.239 204.833 326.695Z" fill="#1F1F1F"></path> <path fill-rule="evenodd" clip-rule="evenodd" d="M228.134 46.6328C228.134 46.6328 222.384 49.4913 224.263 56.4872C226.142 63.4455 235.764 63.2574 235.764 63.2574L228.134 46.6328Z" fill="#1F1F1F"></path> <path fill-rule="evenodd" clip-rule="evenodd" d="M265.79 25.2309C265.79 25.2309 275.825 14.9628 282.515 21.4697C289.205 27.9766 275.186 41.1033 275.186 41.1033C275.186 41.1033 257.109 45.5792 265.79 25.2309Z" fill="#1F1F1F"></path> <path fill-rule="evenodd" clip-rule="evenodd" d="M279.662 27.1494C279.662 27.1494 294.169 30.873 291.426 43.9245C288.682 56.976 270.905 60.0978 270.905 60.0978C270.905 60.0978 266.357 33.6187 279.662 27.1494Z" fill="#1F1F1F"></path> <path fill-rule="evenodd" clip-rule="evenodd" d="M232.268 26.1709C232.268 26.1709 216.483 28.2396 217.498 39.6737C218.475 51.1079 236.703 55.1324 236.703 55.1324C236.703 55.1324 245.31 32.7531 232.268 26.1709Z" fill="#1F1F1F"></path> <path fill-rule="evenodd" clip-rule="evenodd" d="M260.683 12.3301C260.683 12.3301 271.883 0.858356 279.362 8.15515C286.804 15.4519 271.207 30.0831 271.207 30.0831C271.207 30.0831 250.987 35.0856 260.683 12.3301Z" fill="#1F1F1F"></path> <path fill-rule="evenodd" clip-rule="evenodd" d="M243.918 16.9195C231.703 7.32835 216.858 23.276 239.07 46.4452L243.918 16.9195Z" fill="#1F1F1F"></path> <path fill-rule="evenodd" clip-rule="evenodd" d="M273.949 19.3635C273.949 19.3635 277.181 33.5057 276.617 35.1983C276.053 36.8532 274.249 42.1566 274.513 44.9399C274.738 47.7232 276.091 51.1835 275.866 54.3806C275.64 57.6152 269.063 81.8752 268.387 83.0788C263.538 91.6168 246.475 90.2627 241.176 83.3797C240.349 82.2889 234.111 55.5842 234.336 52.3495C234.562 49.1148 236.366 45.8426 237.004 43.0969C237.643 40.3512 236.553 34.935 236.253 33.2048C235.952 31.5123 241.101 17.7462 241.101 17.7462C247.565 15.0005 267.86 15.9784 273.949 19.3635Z" fill="#FFB9A1"></path> <path fill-rule="evenodd" clip-rule="evenodd" d="M237.491 28.0138C238.919 23.5004 241.062 17.7833 241.062 17.7833C247.376 15.0752 266.618 15.9027 273.346 19.0621C273.195 24.4031 266.13 30.1201 256.734 32.1888C247.902 34.1446 239.972 32.264 237.491 28.0138Z" fill="#FF8181"></path> <path fill-rule="evenodd" clip-rule="evenodd" d="M255.494 1.23466C265.566 -1.02208 273.834 8.90757 274.774 14.5494C275.713 20.1913 268.31 26.623 258.237 28.8421C248.165 31.0989 239.22 28.3155 238.28 22.6361C237.341 17.0318 245.421 3.4914 255.494 1.23466Z" fill="#1F1F1F"></path> <path fill-rule="evenodd" clip-rule="evenodd" d="M245.988 0.218987C248.806 -0.420422 251.437 0.407057 253.542 1.83633C252.49 1.49781 251.325 1.38497 250.084 1.64825C245.311 2.7014 241.478 9.13312 241.891 11.8412C242.342 14.5493 246.589 15.8657 251.362 14.775C254.857 13.9851 257.638 12.1797 258.766 10.2239C258.353 13.6466 253.767 17.2198 247.792 18.5362C241.102 20.0031 235.201 18.1977 234.562 14.4364C233.923 10.6752 239.298 1.72348 245.988 0.218987Z" fill="#1F1F1F"></path> <path fill-rule="evenodd" clip-rule="evenodd" d="M232.531 38.3213C232.493 46.3327 230.952 51.8618 229.825 58.2935C228.397 66.2673 230.238 67.6965 231.516 67.0571C232.794 66.4177 233.32 67.6589 233.32 67.6589C233.32 67.6589 231.554 84.0579 244.595 86.277C244.595 86.277 242.716 70.8184 241.551 66.7186C240.386 62.6189 235.538 60.9639 235.838 54.6075C236.139 48.251 236.327 38.7727 236.327 38.7727C234.335 38.0956 232.681 37.8323 232.531 38.3213Z" fill="#1F1F1F"></path> <path fill-rule="evenodd" clip-rule="evenodd" d="M281.991 40.6898C280.938 48.6637 284.358 50.6571 284.584 57.164C284.885 65.2131 280.224 70.1027 279.022 69.3504C277.857 68.5982 277.744 67.2818 277.744 67.2818C277.744 67.2818 276.278 87.1411 264.063 87.1034C264.063 87.1034 268.235 69.0119 268.686 67.1689C269.137 65.3259 274.737 63.8214 275.526 56.299C276.316 48.7765 279.059 34.6719 279.059 34.6719C279.397 45.3914 281.277 36.9286 281.991 40.6898Z" fill="#1F1F1F"></path> <path fill-rule="evenodd" clip-rule="evenodd" d="M227.458 18.9874C228.172 19.025 228.886 19.213 229.525 19.5515C227.42 19.5139 225.804 21.3569 225.842 23.7265C225.917 26.1337 227.683 28.1648 229.826 28.2776C230.878 28.3152 231.855 27.9015 232.532 27.1492C231.855 29.3307 229.976 30.8352 227.759 30.7224C224.902 30.572 222.497 27.8263 222.422 24.5916C222.347 21.3569 224.602 18.8369 227.458 18.9874Z" fill="#1F1F1F"></path> <path fill-rule="evenodd" clip-rule="evenodd" d="M284.321 20.079C283.607 20.0413 282.855 20.1918 282.179 20.4551C284.283 20.6055 285.636 22.599 285.26 24.9686C284.885 27.3758 282.818 29.2188 280.675 29.1059C279.623 29.0683 278.721 28.5417 278.157 27.7143C278.533 29.971 280.187 31.6259 282.404 31.7388C285.26 31.8892 288.042 29.3692 288.568 26.1722C289.094 22.9375 287.177 20.2294 284.321 20.079Z" fill="#1F1F1F"></path> <path fill-rule="evenodd" clip-rule="evenodd" d="M265.378 47.9873C264.852 47.9873 260.154 48.89 260.154 48.89C260.154 48.89 263.123 57.7289 273.609 49.2285L265.378 47.9873Z" fill="white"></path> <path fill-rule="evenodd" clip-rule="evenodd" d="M266.844 47.1216C268.197 47.1216 269.212 48.5509 269.137 50.3186C269.062 52.0864 267.897 53.5157 266.544 53.5157C265.191 53.5157 264.176 52.0864 264.251 50.3186C264.326 48.5509 265.491 47.1216 266.844 47.1216Z" fill="#669999"></path> <path fill-rule="evenodd" clip-rule="evenodd" d="M266.544 48.4372C267.333 48.4372 267.934 49.3023 267.897 50.3178C267.859 51.371 267.182 52.1985 266.356 52.1985C265.566 52.1985 264.965 51.3334 265.003 50.3178C265.04 49.2647 265.717 48.3996 266.544 48.4372Z" fill="#1F1F1F"></path> <path fill-rule="evenodd" clip-rule="evenodd" d="M267.595 50.1299C267.971 50.1299 268.234 50.506 268.196 50.995C268.159 51.4839 267.858 51.86 267.52 51.86C267.144 51.86 266.881 51.4839 266.919 50.995C266.919 50.506 267.257 50.1299 267.595 50.1299Z" fill="white"></path> <path fill-rule="evenodd" clip-rule="evenodd" d="M259.365 49.0774C259.365 49.0774 267.107 49.115 273.985 49.3783C273.985 49.3783 267.295 44.752 259.365 49.0774Z" fill="#1F1F1F"></path> <path fill-rule="evenodd" clip-rule="evenodd" d="M260.491 40.3884C265.34 36.5519 272.405 33.0915 276.051 41.1406C276.051 41.1406 270.338 37.5674 260.379 42.3066C259.853 42.5699 259.477 42.4194 259.514 41.9305C259.552 41.4415 259.965 40.8021 260.491 40.3884Z" fill="#1F1F1F"></path> <path fill-rule="evenodd" clip-rule="evenodd" d="M260.568 47.4971C261.019 46.8953 267.897 37.9811 273.723 46.8201C268.16 42.3066 263.049 45.3532 260.568 47.4971Z" fill="#FF8181"></path> <path fill-rule="evenodd" clip-rule="evenodd" d="M279.397 23.0878C279.397 23.0878 272.069 13.4967 265.567 18.5367C252.788 28.4288 287.252 51.786 279.397 23.0878Z" fill="#1F1F1F"></path> <path fill-rule="evenodd" clip-rule="evenodd" d="M228.322 24.5162C228.322 24.5162 234.035 17.7084 240.499 22.109C253.315 30.7974 224.151 46.0304 228.322 24.5162Z" fill="#1F1F1F"></path> <path fill-rule="evenodd" clip-rule="evenodd" d="M246.587 47.084C247.075 47.1216 251.66 48.4756 251.66 48.4756C251.66 48.4756 247.489 56.976 238.243 47.4977L246.587 47.084Z" fill="white"></path> <path fill-rule="evenodd" clip-rule="evenodd" d="M245.912 46.1811C244.521 46.2564 243.469 47.7232 243.544 49.491C243.619 51.2588 244.822 52.6128 246.175 52.5752C247.565 52.5 248.618 51.0331 248.542 49.2653C248.467 47.4976 247.265 46.1059 245.912 46.1811Z" fill="#669999"></path> <path fill-rule="evenodd" clip-rule="evenodd" d="M245.986 47.4592C245.159 47.4969 244.558 48.3619 244.595 49.4151C244.633 50.4682 245.347 51.2581 246.174 51.2205C247.001 51.1829 247.602 50.3178 247.564 49.2646C247.489 48.2491 246.813 47.4216 245.986 47.4592Z" fill="#1F1F1F"></path> <path fill-rule="evenodd" clip-rule="evenodd" d="M247.303 49.34C246.927 49.34 246.664 49.7537 246.664 50.2427C246.702 50.7316 247.002 51.0702 247.378 51.0702C247.754 51.0702 248.017 50.6564 248.017 50.1675C247.98 49.6785 247.679 49.3024 247.303 49.34Z" fill="white"></path> <path fill-rule="evenodd" clip-rule="evenodd" d="M252.377 48.7389C252.377 48.7389 244.672 48.0618 237.832 47.6105C237.832 47.6481 245.086 43.6612 252.377 48.7389Z" fill="#1F1F1F"></path> <path fill-rule="evenodd" clip-rule="evenodd" d="M251.436 47.0457C251.06 46.3687 245.498 36.8903 238.47 45.1274C244.596 41.1781 249.256 44.6761 251.436 47.0457Z" fill="#FF8181"></path> <path fill-rule="evenodd" clip-rule="evenodd" d="M254.557 41.706C254.557 41.706 252.34 58.1426 252.452 59.7976C252.565 61.4525 254.106 64.6496 254.106 64.6496C254.106 64.6496 255.647 65.1385 256.286 64.5367C256.925 63.9349 258.616 60.7003 258.691 59.7976C258.766 58.8949 256.812 42.0069 256.812 42.0069C256.812 42.0069 256.211 40.1639 254.557 41.706Z" fill="#FF8181"></path> <path fill-rule="evenodd" clip-rule="evenodd" d="M252.677 58.0293C252.677 58.0293 250.873 58.5935 250.685 59.6466C250.497 60.6998 254.067 63.6711 254.067 63.6711L252.677 58.0293Z" fill="#FF8181"></path> <path fill-rule="evenodd" clip-rule="evenodd" d="M258.576 58.292C258.576 58.292 260.267 59.0442 260.342 60.0974C260.38 61.1881 256.434 63.7458 256.434 63.7458L258.576 58.292Z" fill="#FF8181"></path> <path fill-rule="evenodd" clip-rule="evenodd" d="M252.864 40.2011C252.864 40.2011 254.292 41.8936 255.683 42.0817C257.074 42.2321 261.245 39.2231 261.245 39.2231C261.245 39.2231 255.683 42.0817 252.864 40.2011Z" fill="#FF8181"></path> <path fill-rule="evenodd" clip-rule="evenodd" d="M245.947 67.5829C245.947 67.5829 253.238 73.9393 264.513 65.439C264.476 65.439 253.426 69.99 245.947 67.5829Z" fill="#FF8181"></path> <path fill-rule="evenodd" clip-rule="evenodd" d="M250.686 70.5917C250.686 70.5917 254.481 73.9016 260.307 69.4634C260.307 69.4634 254.594 71.8329 250.686 70.5917Z" fill="#FF8181"></path> <path fill-rule="evenodd" clip-rule="evenodd" d="M280.714 47.9492C283.608 43.9999 286.126 46.0309 286.464 48.3253C286.802 50.6196 284.735 55.6973 281.879 59.6466C278.985 63.5959 276.392 64.9875 276.054 62.6932C275.678 60.3988 277.82 51.8984 280.714 47.9492Z" fill="#FFB9A1"></path> <path fill-rule="evenodd" clip-rule="evenodd" d="M285.412 47.499C285.412 47.499 281.992 47.5742 279.963 51.2603C277.933 54.9463 278.422 60.7009 278.422 60.7009C278.422 60.7009 278.722 50.2447 285.412 47.499Z" fill="#FF8181"></path> <path fill-rule="evenodd" clip-rule="evenodd" d="M279.248 54.9454C279.248 54.9454 281.315 56.7884 282.969 52.3125C282.969 52.3125 282.105 58.4433 278.76 57.8791L279.248 54.9454Z" fill="#FF8181"></path> <path fill-rule="evenodd" clip-rule="evenodd" d="M231.817 45.6175C229.223 41.3673 226.405 43.3608 225.803 45.7303C225.202 48.0999 226.856 53.4408 229.449 57.7286C232.042 61.9788 234.635 63.5209 235.199 61.189C235.8 58.8194 234.41 49.9053 231.817 45.6175Z" fill="#FFB9A1"></path> <path fill-rule="evenodd" clip-rule="evenodd" d="M226.968 44.9038C226.968 44.9038 230.501 45.1671 232.229 49.1164C233.958 53.0281 232.868 58.9708 232.868 58.9708C232.868 58.9708 233.658 48.1009 226.968 44.9038Z" fill="#FF8181"></path> <path fill-rule="evenodd" clip-rule="evenodd" d="M232.642 52.9523C232.642 52.9523 230.312 54.7577 229.034 50.0562C229.034 50.0562 229.335 56.4502 232.83 56.0365L232.642 52.9523Z" fill="#FF8181"></path> <path fill-rule="evenodd" clip-rule="evenodd" d="M229.637 35.6497L230.877 38.922C230.877 38.922 234.673 50.7323 232.192 60.2106C229.712 69.6889 236.026 62.7306 236.026 62.7306C236.026 62.7306 234.222 33.393 229.637 35.6497Z" fill="#1F1F1F"></path> <path fill-rule="evenodd" clip-rule="evenodd" d="M285.297 38.3201L283.606 41.4796C283.606 41.4796 278.231 52.8385 279.359 62.5049C280.486 72.1712 275.074 63.8213 275.074 63.8213C275.074 63.8213 281.088 35.6497 285.297 38.3201Z" fill="#1F1F1F"></path> <path fill-rule="evenodd" clip-rule="evenodd" d="M252.414 43.4729C248.43 39.0723 242.229 34.7469 237.381 42.2317C237.381 42.2317 243.432 39.4484 252.189 45.3535C252.64 45.6544 253.015 45.5416 253.091 45.0902C253.128 44.6389 252.865 43.9619 252.414 43.4729Z" fill="#1F1F1F"></path> <path fill-rule="evenodd" clip-rule="evenodd" d="M309.541 79.6559L322.47 68.0713C322.47 68.0713 362.835 123.098 365.578 131.448C368.359 139.76 360.617 145.252 360.617 145.252H340.397L308.113 99.7033L309.541 79.6559Z" fill="#1F1F1F"></path> <path fill-rule="evenodd" clip-rule="evenodd" d="M332.205 115.726C329.424 115.726 275.417 125.656 275.417 125.656C275.417 125.656 271.733 135.397 279.025 145.252H355.845C355.845 145.252 353.778 115.726 332.205 115.726Z" fill="#1F1F1F"></path> <path fill-rule="evenodd" clip-rule="evenodd" d="M329.423 86.6893C333.595 84.7711 341.112 90.0368 346.223 98.4244C351.334 106.85 352.124 115.199 347.989 117.118C343.818 119.036 336.301 113.77 331.19 105.383C326.078 96.9951 325.289 88.6076 329.423 86.6893Z" fill="#303030"></path> <path fill-rule="evenodd" clip-rule="evenodd" d="M334.234 90.8268C337.166 89.4728 342.502 93.1964 346.148 99.1392C349.794 105.082 350.357 111.025 347.388 112.379C344.457 113.733 339.12 110.009 335.474 104.066C331.866 98.1236 331.303 92.2185 334.234 90.8268Z" fill="#1F1F1F"></path> <path fill-rule="evenodd" clip-rule="evenodd" d="M336.488 94.5121C338.442 93.6094 341.937 96.0542 344.343 100.003C346.748 103.953 347.124 107.864 345.17 108.729C343.215 109.632 339.72 107.187 337.315 103.238C334.909 99.3264 334.533 95.4148 336.488 94.5121Z" fill="#75B7C4"></path> <path fill-rule="evenodd" clip-rule="evenodd" d="M338.143 97.2581C339.346 96.6939 341.488 98.236 342.991 100.643C344.457 103.05 344.682 105.458 343.517 106.022C342.315 106.586 340.172 105.044 338.669 102.637C337.203 100.229 336.978 97.8223 338.143 97.2581Z" fill="#8AFBFF"></path> <path fill-rule="evenodd" clip-rule="evenodd" d="M212.012 79.6559L199.083 68.0713C199.083 68.0713 158.719 123.098 155.975 131.448C153.194 139.76 160.936 145.252 160.936 145.252H181.156L213.44 99.7033L212.012 79.6559Z" fill="#1F1F1F"></path> <path fill-rule="evenodd" clip-rule="evenodd" d="M189.349 115.726C192.13 115.726 246.137 125.656 246.137 125.656C246.137 125.656 249.82 135.397 242.529 145.252H165.709C165.709 145.252 167.776 115.726 189.349 115.726Z" fill="#1F1F1F"></path> <path fill-rule="evenodd" clip-rule="evenodd" d="M320.704 73.6382C320.817 73.7886 359.264 123.813 360.73 128.477C360.843 128.815 360.918 129.154 360.993 129.455C361.332 131.335 360.805 132.878 359.603 134.006C358.438 135.097 356.634 135.811 354.416 135.999C353.702 136.075 352.913 136.075 352.086 136.075C346.073 135.849 294.057 136.526 293.945 136.526L293.682 135.398C293.832 135.398 345.885 134.683 351.898 134.946C352.65 134.984 353.401 134.946 354.078 134.909C356.107 134.721 357.686 134.119 358.701 133.141C359.678 132.238 360.091 130.959 359.828 129.417C359.791 129.154 359.715 128.853 359.603 128.59C358.212 124.189 319.915 74.3152 319.802 74.1648L320.704 73.6382Z" fill="#8AFBFF"></path> <path fill-rule="evenodd" clip-rule="evenodd" d="M201.076 73.6382C200.963 73.7886 162.515 123.813 161.049 128.477C160.937 128.815 160.861 129.154 160.786 129.455C160.448 131.335 160.974 132.878 162.177 134.006C163.342 135.097 165.146 135.811 167.363 135.999C168.077 136.075 168.867 136.075 169.694 136.075C175.707 135.849 227.722 136.526 227.835 136.526L228.098 135.398C227.948 135.398 175.895 134.683 169.881 134.946C169.13 134.984 168.378 134.946 167.702 134.909C165.672 134.721 164.094 134.119 163.079 133.141C162.102 132.238 161.688 130.959 161.951 129.417C161.989 129.154 162.064 128.853 162.177 128.59C163.567 124.189 201.865 74.3152 201.978 74.1648L201.076 73.6382Z" fill="#8AFBFF"></path> <path fill-rule="evenodd" clip-rule="evenodd" d="M190.252 59.9097H251.475H312.698C313.938 59.9097 315.028 60.85 314.916 61.9407L308.075 141.867C307.963 142.995 307.061 143.898 305.858 143.898H251.437H197.092C195.852 143.898 194.95 142.958 194.875 141.867L188.034 61.9407C187.922 60.8124 189.012 59.9097 190.252 59.9097Z" fill="white"></path> <path fill-rule="evenodd" clip-rule="evenodd" d="M190.251 61.6782H251.474H312.697C313.937 61.6782 315.027 62.6185 314.915 63.7093L308.074 143.636C307.962 144.764 307.06 145.667 305.857 145.667H251.436H197.091C195.851 145.667 194.949 144.726 194.874 143.636L188.033 63.7093C187.921 62.6185 189.011 61.6782 190.251 61.6782Z" fill="#CCCCCC"></path> <path fill-rule="evenodd" clip-rule="evenodd" d="M245.499 102.863C248.656 100.268 253.88 100.23 257.188 102.826C260.457 105.421 260.57 109.671 257.413 112.266C254.256 114.862 249.032 114.899 245.725 112.304C242.455 109.709 242.342 105.459 245.499 102.863Z" fill="#E6E6E6"></path> <path fill-rule="evenodd" clip-rule="evenodd" d="M469.72 192.268L392.224 211.901L426.838 330.493L477.951 307.7L469.72 192.268Z" fill="#1F1F1F"></path> <path fill-rule="evenodd" clip-rule="evenodd" d="M467.015 176.095L389.519 195.728L424.133 314.32L475.133 305.03L467.015 176.095Z" fill="#8AFBFF"></path> <path fill-rule="evenodd" clip-rule="evenodd" d="M472.464 180.646L394.968 200.279L429.582 318.871L474.832 301.306L472.464 180.646Z" fill="#77C3C6"></path> <path fill-rule="evenodd" clip-rule="evenodd" d="M482.236 189.974L404.739 209.608L439.353 328.237L477.726 304.541L482.236 189.974Z" fill="#1F1F1F"></path> <path fill-rule="evenodd" clip-rule="evenodd" d="M123.765 104.067H113.392H113.354H105.95H105.913H95.5397C94.8256 104.067 94.1867 104.669 94.2242 105.384L97.6067 143.936C97.6819 144.651 98.2081 145.253 98.9221 145.253H105.913H105.95H113.354H113.392H120.382C121.096 145.253 121.622 144.651 121.698 143.936L122.036 139.987C128.688 138.671 134.401 132.954 135.415 126.071C136.505 118.623 131.695 112.53 124.479 111.928L125.043 105.346C125.118 104.669 124.479 104.067 123.765 104.067ZM122.299 136.978L124.216 114.975C129.665 115.652 133.236 120.354 132.409 126.108C131.657 131.374 127.373 135.775 122.299 136.978Z" fill="white"></path> <path d="M516.962 145.252H8.19727V155.106H516.962V145.252Z" fill="#808080"></path> <path fill-rule="evenodd" clip-rule="evenodd" d="M467.352 144.574L456.603 210.772L445.854 209.568L449.538 144.574H467.352Z" fill="#1F1F1F"></path> </svg> 