<?xml version="1.0" encoding="UTF-8"?> <svg xmlns="http://www.w3.org/2000/svg" width="498" height="445" viewBox="0 0 498 445" fill="none"> <path fill-rule="evenodd" clip-rule="evenodd" d="M171.538 396.622C197.112 396.384 217.983 400.693 218.145 406.249C218.307 411.79 197.716 416.47 172.131 416.708C146.557 416.945 125.685 412.637 125.523 407.081C125.362 401.54 145.963 396.86 171.538 396.622Z" fill="#333333" fill-opacity="0.6"></path> <path fill-rule="evenodd" clip-rule="evenodd" d="M80.0212 106.136L76.7708 109.386H66.9902L67.0195 89.8587H80.0505L80.0212 106.136ZM99.6409 74.4009L99.6702 58.1233L132.292 41.8457L132.262 56.1033L111.881 66.2914L132.233 76.4795L132.204 90.737L99.6409 74.4009ZM169.628 102.887L146.962 37.7471H160.725L183.391 102.887H169.628ZM230.683 74.4009L198.061 90.6785L198.091 76.4209L218.472 66.2328L198.149 56.0447L198.179 41.8165L230.712 58.094L230.683 74.4009ZM248.633 49.9552L248.663 37.7471H264.944L277.946 50.775L277.858 89.8587L264.798 102.887H248.516L248.546 90.6785H259.468L264.856 85.2916L264.915 55.3421L259.556 49.9552H248.633ZM336.6 37.7471L349.602 50.775L349.514 89.8587L336.453 102.887H303.891L290.889 89.8587L290.977 50.775L304.037 37.7471H336.6ZM336.512 85.2916L336.571 55.3421L331.212 49.9552H309.396L304.008 55.3421L303.949 85.2916L309.308 90.6785H331.124L336.512 85.2916ZM383.716 90.6785H393.497L393.468 102.887H360.905L360.934 90.6785H370.715L370.803 49.9552H361.022L361.051 40.9967L364.302 37.7471H383.833L383.716 90.6785Z" fill="#56B5BE" fill-opacity="0.4"></path> <path fill-rule="evenodd" clip-rule="evenodd" d="M177.782 14.4624L177.079 15.1651H175V11.0371H177.753L177.782 14.4624ZM181.94 7.75819V4.3036L188.822 0.84901V3.86446L184.517 6.0309L188.822 8.16806V11.1835L181.94 7.75819ZM196.699 13.7598L191.926 0H194.825L199.627 13.7598H196.699ZM209.613 7.75819L202.731 11.2128V8.19734L207.036 6.06017L202.731 3.89374V0.878286L209.613 4.33288V7.75819ZM213.419 2.57631V0H216.875L219.627 2.75196L219.598 11.0079L216.846 13.7598H213.39V11.1835H215.704L216.846 10.0417V3.71808L215.704 2.57631H213.419ZM232.014 0L234.767 2.75196L234.738 11.0079L231.985 13.7598H225.103L222.351 11.0079L222.38 2.75196L225.133 0H232.014ZM231.985 10.0417V3.71808L230.843 2.57631H226.245L225.103 3.71808V10.0417L226.245 11.1835H230.843L231.985 10.0417ZM241.97 11.1835H244.05V13.7598H237.168V11.1835H239.247L239.276 2.57631H237.197V0.673353L237.871 0H242L241.97 11.1835Z" fill="#2B2A29" fill-opacity="0.5"></path> <path fill-rule="evenodd" clip-rule="evenodd" d="M304.535 104.029C335.809 102.448 364.419 179.21 340.729 241.656C299.293 350.886 90.9149 322.4 190.243 214.722C259.029 140.156 273.261 105.61 304.535 104.029Z" fill="#979797"></path> <path fill-rule="evenodd" clip-rule="evenodd" d="M302.31 105.844C330.334 104.439 349.397 184.773 328.196 240.69C291.065 338.531 104.415 313.032 193.406 216.566C255.018 149.787 274.286 107.278 302.31 105.844Z" fill="#242424"></path> <path fill-rule="evenodd" clip-rule="evenodd" d="M225.442 141.152L225.12 132.72L189.19 182.226C189.19 182.226 182.396 177.191 171.825 186.413C161.283 195.635 156.451 224.384 183.919 226.58C211.387 228.775 223.393 220.256 223.393 220.256L225.442 141.152Z" fill="#2E3D54"></path> <path fill-rule="evenodd" clip-rule="evenodd" d="M222.366 236.123L216.012 233.166C216.012 233.166 196.685 246.662 201.956 254.128C207.227 261.593 220.082 252.371 224.24 257.202C228.428 262.032 251.356 270.376 259.585 268.385C267.813 266.424 282.104 258.724 288.136 260.92C294.168 263.116 308.663 268.063 308.663 268.063C308.663 268.063 333.261 250.615 304.388 238.524C290.361 235.04 222.366 236.123 222.366 236.123Z" fill="#2E3D54"></path> <path fill-rule="evenodd" clip-rule="evenodd" d="M249.306 78.5C251.063 78.3536 252.791 81.5155 253.143 85.5556C253.494 89.5957 252.352 92.9917 250.595 93.1381C248.838 93.2845 247.11 90.1227 246.759 86.0825C246.407 82.0717 247.549 78.6757 249.306 78.5Z" fill="#DE4141"></path> <path fill-rule="evenodd" clip-rule="evenodd" d="M254.725 74.957L250.391 76.5379C250.391 76.5379 243.919 85.9356 252.646 94.7478L257.624 95.4504C257.653 95.4504 262.455 80.9294 254.725 74.957Z" fill="#BD3737"></path> <path fill-rule="evenodd" clip-rule="evenodd" d="M258.092 72.7033C262.308 72.0885 265.998 77.3289 266.32 84.3845C266.642 91.4693 263.48 97.6759 259.263 98.2907C255.046 98.9055 251.357 93.6651 251.034 86.6095C250.683 79.5539 253.846 73.3181 258.092 72.7033Z" fill="#242424"></path> <path fill-rule="evenodd" clip-rule="evenodd" d="M305.559 123.674L310.449 120.951C310.449 120.951 316.511 122.298 313.026 129.705C309.512 137.082 305.559 123.674 305.559 123.674Z" fill="#242424"></path> <path fill-rule="evenodd" clip-rule="evenodd" d="M295.135 83.8278C295.135 83.8278 289.601 109.503 295.633 124.932C295.633 124.932 270.889 140.448 254.49 131.314L249.98 125.781L264.534 94.0745C264.505 94.0745 302.924 52.4437 295.135 83.8278Z" fill="#FFB9A1"></path> <path fill-rule="evenodd" clip-rule="evenodd" d="M276.247 132.983C269.073 134.681 261.108 135.032 254.49 131.344L249.98 125.81L254.519 115.915L273.758 108.918L291.182 90.9131C291.182 90.9131 281.226 126.045 279.234 130.026C278.824 130.875 277.712 131.929 276.247 132.983Z" fill="#FF7F7F"></path> <path fill-rule="evenodd" clip-rule="evenodd" d="M288.632 114.247L272.526 131.9C272.526 131.9 283.918 124.903 288.632 114.247Z" fill="#FF7F7F"></path> <path fill-rule="evenodd" clip-rule="evenodd" d="M250.887 119.282C250.887 119.282 250.242 132.954 266.231 131.168C282.219 129.353 295.163 121.009 295.163 121.009C295.163 121.009 308.809 121.068 311.678 124.171C314.548 127.274 322.689 130.904 326.701 132.105C326.701 132.105 329.307 166.592 314.548 201.431C308.281 216.215 303.918 239.636 307.667 261.652C294.401 267.068 276.685 272.63 256.011 274.241C217.357 277.198 215.571 249.034 215.659 242.564L215.718 241.246C216.889 211.385 215.893 205.998 215.893 205.998C215.893 205.998 219.261 178.537 216.977 169.051C213.492 154.384 221.193 135.149 226.406 131.548C237.943 123.615 250.887 119.282 250.887 119.282Z" fill="#576D8D"></path> <path fill-rule="evenodd" clip-rule="evenodd" d="M308.165 223.563C306.056 235.391 308.106 248.096 310.303 260.978C297.037 266.394 287.052 274.591 257.388 276.846C227.724 279.1 213.405 249.238 213.493 242.768L213.551 241.451C213.99 230.941 216.304 223.241 216.333 217.971L308.165 223.563Z" fill="#2E3D54"></path> <path fill-rule="evenodd" clip-rule="evenodd" d="M216.479 155.351C217.856 144.372 222.746 134.067 226.406 131.549C232.527 127.333 239.057 124.113 243.83 122.063C243.947 122.532 244.006 123.176 244.123 123.996C244.123 123.996 238.354 132.808 237.183 134.067C236.363 134.974 235.894 146.626 235.894 154.092C224.181 154.384 216.509 155.351 216.479 155.351ZM246.846 132.661C245.265 138.224 242.893 147.153 242.014 154.033C259.086 154.033 282.103 155.673 302.748 162.728C302.923 152.423 307.667 140.712 310.654 134.389C306.291 129.09 304.417 125.401 301.02 125.225C297.623 125.05 274.255 142.762 259.116 140.127C252.468 138.985 248.867 135.94 246.846 132.661Z" fill="#849ABA"></path> <path fill-rule="evenodd" clip-rule="evenodd" d="M218.354 211.854L221.253 221.163C221.253 221.163 257.124 235.948 275.748 233.752C294.372 231.556 308.399 221.134 308.399 221.134L310.185 213.288L218.354 211.854Z" fill="#2E3D54"></path> <path fill-rule="evenodd" clip-rule="evenodd" d="M308.926 122.648L311.035 123.615C311.005 123.644 302.923 132.427 299.907 149.261C296.891 166.124 290.566 201.109 292.645 204.68C294.724 208.281 299.497 211.238 299.497 211.238C299.497 211.238 280.317 215.805 273.992 211.59C267.666 207.374 213.727 215.922 237.739 135.091L243.01 132.339C243.01 132.339 239.32 153.242 241.253 160.063C243.186 166.885 261.253 172.301 265.705 172.535C270.185 172.769 282.367 171.13 283.187 168.963C284.006 166.797 302.631 131.139 302.631 131.139L308.926 122.648Z" fill="#2E3D54"></path> <path fill-rule="evenodd" clip-rule="evenodd" d="M297.624 118.843C296.629 119.927 282.778 131.696 277.243 161.177L285.237 163.958L292.558 162.143C292.558 162.143 301.343 129.617 312.793 122.269C312.793 122.298 310.684 117.555 297.624 118.843Z" fill="#333333"></path> <path fill-rule="evenodd" clip-rule="evenodd" d="M290.157 162.757L292.588 162.171C292.588 162.171 300.494 132.954 311.065 123.644C311.622 123.146 312.207 122.707 312.793 122.326C312.705 122.238 312.617 122.121 312.5 122.034C310.685 120.277 307.083 122.853 300.846 134.447C295.985 143.434 291.768 157.106 290.157 162.757Z" fill="#242424"></path> <path fill-rule="evenodd" clip-rule="evenodd" d="M249.219 119.428C249.219 119.428 239.497 134.213 236.891 158.6L227.989 159.8L224.973 157.839C224.973 157.839 225.5 136.965 235.31 124.874C235.339 124.903 243.626 119.135 249.219 119.428Z" fill="#333333"></path> <path fill-rule="evenodd" clip-rule="evenodd" d="M249.219 119.428C249.219 119.428 239.497 134.212 236.891 158.599L234.841 158.863C234.372 142.615 246.935 119.604 246.964 119.574C247.755 119.457 248.487 119.399 249.219 119.428Z" fill="#242424"></path> <path fill-rule="evenodd" clip-rule="evenodd" d="M247.989 128.796C247.989 128.796 256.803 147.943 283.451 131.138C283.451 131.109 262.426 143.932 247.989 128.796Z" fill="#2E3D54"></path> <path fill-rule="evenodd" clip-rule="evenodd" d="M284.711 206.174C284.711 206.174 296.102 211.678 314.522 201.402L312.735 217.621C312.735 217.621 294.17 225.935 283.423 224.852L284.711 206.174Z" fill="#242424"></path> <path fill-rule="evenodd" clip-rule="evenodd" d="M293.143 207.725C296.218 207.52 300.171 206.701 305.061 204.593L304.417 220.138C301.167 221.544 296.628 223.271 292.001 224.208L293.143 207.725Z" fill="#4D4D4D"></path> <path fill-rule="evenodd" clip-rule="evenodd" d="M246.788 65.8816L234.812 71.5319C234.812 71.5319 268.019 84.4427 306.145 78.2655C306.174 78.2655 300.991 64.008 246.788 65.8816Z" fill="#242424"></path> <path fill-rule="evenodd" clip-rule="evenodd" d="M253.115 67.4922C253.115 67.4922 251.504 80.5201 251.592 81.2227C251.709 81.9546 254.345 84.8822 254.111 85.4385C253.876 85.9947 251.944 88.8638 252.324 90.0348C252.705 91.2059 257.068 106.869 258.122 108.01C259.177 109.181 268.957 109.123 271.095 107.981C273.233 106.81 282.135 90.6204 282.603 89.1858C283.072 87.7513 284.126 68.5168 284.126 68.5168C284.126 68.5168 270.48 60.6122 253.115 67.4922Z" fill="#FFB9A1"></path> <path fill-rule="evenodd" clip-rule="evenodd" d="M252.295 89.771C252.295 89.8588 252.295 89.771 252.353 90.0345C252.441 90.62 253.027 94.7479 254.257 98.8466L256.57 97.3828L252.295 89.771Z" fill="#9B7A6D"></path> <path fill-rule="evenodd" clip-rule="evenodd" d="M253.113 67.4926C253.113 67.4926 252.498 72.5281 252.029 76.5096C255.221 75.6606 256.773 78.7639 262.396 78.2662C267.754 77.7978 277.096 73.6406 283.772 74.6945C283.977 71.2399 284.124 68.5465 284.124 68.5465C284.124 68.5465 270.478 60.6127 253.113 67.4926Z" fill="#FF7F7F"></path> <path fill-rule="evenodd" clip-rule="evenodd" d="M272.763 80.9297C273.027 81.2517 274.93 84.0622 274.93 84.0622L267.668 83.8866C267.668 83.8866 268.81 81.7494 272.763 80.9297Z" fill="#FF7F7F"></path> <path fill-rule="evenodd" clip-rule="evenodd" d="M255.046 81.5156C254.577 81.5449 252.996 81.6035 252.996 81.6035C252.996 81.6035 254.987 85.9949 257.447 86.5804C259.907 87.1952 260.844 85.4679 260.844 85.4679L255.046 81.5156Z" fill="#FF7F7F"></path> <path fill-rule="evenodd" clip-rule="evenodd" d="M268.047 83.8877L265.587 85.0587C265.587 85.0587 267.432 87.0788 269.804 86.6396C272.176 86.2005 274.928 84.0926 274.928 84.0926C274.928 84.0926 270.711 83.4485 268.047 83.8877Z" fill="white"></path> <path fill-rule="evenodd" clip-rule="evenodd" d="M257.857 84.4429H255.134C255.134 84.4429 257.066 86.9899 258.091 87.0777C259.116 87.1656 260.844 85.4968 260.844 85.4968L257.857 84.4429Z" fill="white"></path> <path fill-rule="evenodd" clip-rule="evenodd" d="M259.937 93.5777C259.937 93.5777 254.344 96.1832 253.846 97.852C253.348 99.5207 249.775 125.752 249.775 125.752C249.775 125.752 269.366 133.159 286.584 114.159C286.584 114.159 283.949 87.4882 296.013 76.129L298.268 62.4863L279.615 64.1551C279.615 64.1551 279.908 73.7284 280.347 77.4757C280.786 81.2231 282.514 86.083 282.075 87.576C281.606 89.0691 273.905 96.4175 273.905 96.4175C273.905 96.4175 270.274 94.2217 265.793 93.3435C261.284 92.4359 259.937 93.5777 259.937 93.5777Z" fill="#9B7A6D"></path> <path fill-rule="evenodd" clip-rule="evenodd" d="M249.805 125.752C249.805 125.752 269.395 133.159 286.614 114.159C286.614 114.159 284.095 88.7176 295.223 76.9485L295.369 73.2012L282.25 73.289C282.25 73.289 285.149 76.9485 284.974 78.4709C284.798 79.9933 283.187 93.7238 283.92 98.5837C284.652 103.444 280.816 116.325 280.816 116.325C280.816 116.325 261.899 129.119 249.805 125.752Z" fill="#664E45"></path> <path fill-rule="evenodd" clip-rule="evenodd" d="M294.872 77.3288C295.252 76.9189 295.633 76.509 296.014 76.1285L297.361 68.0775C295.487 66.1745 293.525 64.3887 292.031 63.042L279.645 64.1545C279.645 64.1545 279.82 69.8926 280.113 74.1962C284.506 74.6354 289.103 75.5137 293.818 76.9775C294.14 77.0946 294.52 77.2117 294.872 77.3288Z" fill="#664E45"></path> <path fill-rule="evenodd" clip-rule="evenodd" d="M256.452 100.545C256.452 100.545 259.966 100.516 261.869 97.4419C261.869 97.4419 264.563 99.6962 267.345 99.6962C270.127 99.7254 271.708 101.921 271.708 101.921C271.708 101.921 270.215 108.098 267.843 107.923C265.442 107.747 264.3 102.038 264.3 102.038L261.078 102.39C261.078 102.39 261.254 107.63 259.468 107.396C257.711 107.191 256.188 102.887 256.452 100.545Z" fill="#FFB9A1"></path> <path fill-rule="evenodd" clip-rule="evenodd" d="M256.452 100.545C256.452 100.545 259.966 100.516 261.87 97.4419C261.87 97.4419 264.564 99.6962 267.345 99.6962C267.843 99.6962 268.312 99.784 268.751 99.9011C264.564 100.692 261.987 98.2324 261.987 98.2324C259.527 100.955 256.452 100.545 256.452 100.545Z" fill="#FF7F7F"></path> <path fill-rule="evenodd" clip-rule="evenodd" d="M309.629 73.2886C310.332 73.8155 321.372 74.6353 318.151 84.6185C314.93 94.6017 306.379 100.603 302.016 96.7974C297.653 92.9915 291.24 76.7139 309.629 73.2886Z" fill="#664E45"></path> <path fill-rule="evenodd" clip-rule="evenodd" d="M308.137 75.3093C308.137 75.3093 315.135 68.0488 318.532 71.0642C321.929 74.0504 321.021 79.9057 320.963 79.5836C320.904 79.2616 320.582 67.1705 308.137 75.3093Z" fill="#664E45"></path> <path fill-rule="evenodd" clip-rule="evenodd" d="M301.695 92.8159C301.695 92.8159 296.834 103.882 311.124 98.2027C311.095 98.232 299.909 101.95 301.695 92.8159Z" fill="#664E45"></path> <path fill-rule="evenodd" clip-rule="evenodd" d="M234.84 71.532C234.84 71.532 269.628 62.6613 306.174 78.2655C306.174 78.2655 313.611 73.1714 314.168 71.2978C314.724 69.4241 307.608 70.9757 307.608 70.9757L313.758 61.6366C313.758 61.6366 307.696 50.9215 303.597 52.7074C301.254 51.0386 298.531 49.3113 295.485 47.7304C292.85 38.5377 266.026 37.7765 246.582 49.1064L248.486 59.0896C248.515 59.0896 237.973 65.7938 234.84 71.532Z" fill="#576D8D"></path> <path fill-rule="evenodd" clip-rule="evenodd" d="M284.855 71.5915C291.708 73.0261 298.911 75.134 306.174 78.2372C306.174 78.2372 313.611 73.1432 314.168 71.2695C314.226 71.1231 314.197 70.9767 314.168 70.8889C312.177 71.6501 304.885 74.1971 305.822 70.7718C306.935 66.8195 303.626 52.6791 303.626 52.6791L295.485 47.7021C295.69 51.6837 297.564 57.7732 294.665 62.1646C299.497 70.7132 292.001 71.1231 284.855 71.5915Z" fill="#2E3D54"></path> <path fill-rule="evenodd" clip-rule="evenodd" d="M258.122 57.9772L255.984 54.3177C255.896 54.1713 255.896 54.0249 255.984 53.8785C256.072 53.7322 256.189 53.6443 256.335 53.6443L261.665 53.3516C261.84 53.3516 261.987 53.4394 262.075 53.5858C262.163 53.7322 262.133 53.9371 262.016 54.0542L258.824 58.0065C258.736 58.1236 258.59 58.1821 258.444 58.1528C258.297 58.1821 258.18 58.0943 258.122 57.9772Z" fill="#F2B124"></path> <path fill-rule="evenodd" clip-rule="evenodd" d="M268.166 56.9238C268.166 56.9238 289.748 58.7389 303.686 66.2336C303.686 66.2043 286.527 53.9083 268.166 56.9238Z" fill="#2E3D54"></path> <path fill-rule="evenodd" clip-rule="evenodd" d="M293.055 71.9421C298.121 71.2102 302.425 76.6848 302.66 84.1795C302.894 91.6742 298.97 98.3492 293.904 99.1104C288.838 99.8423 284.533 94.3677 284.299 86.8729C284.065 79.349 287.989 72.674 293.055 71.9421Z" fill="#242424"></path> <path fill-rule="evenodd" clip-rule="evenodd" d="M296.597 74.6942C298.618 75.3383 300.638 76.0409 302.688 76.8314C308.398 64.2719 303.508 52.7078 303.449 52.5614C303.039 50.717 296.773 46.267 295.455 47.7015C299.672 63.54 297.915 71.4738 296.597 74.6942Z" fill="#DE4141"></path> <path fill-rule="evenodd" clip-rule="evenodd" d="M296.6 74.6936L297.215 74.8986C302.691 64.7983 296.278 47.4668 296.278 47.4375C295.927 47.4375 295.663 47.5253 295.487 47.701C299.675 63.5394 297.918 71.4733 296.6 74.6936Z" fill="#FA6161"></path> <path fill-rule="evenodd" clip-rule="evenodd" d="M294.374 72.9966C294.696 72.9966 295.018 73.0844 295.34 73.2016L302.163 74.7532L301.665 97.1202L294.432 98.4084H294.374C294.198 98.4376 294.052 98.4669 293.876 98.4376C290.801 98.3498 288.429 92.5824 288.576 85.5561C288.693 78.5298 291.299 72.9088 294.374 72.9966Z" fill="#DE4141"></path> <path fill-rule="evenodd" clip-rule="evenodd" d="M301.724 74.694C304.418 74.7526 306.526 79.8466 306.38 86.0532C306.262 92.2598 303.949 97.2074 301.255 97.1489C298.561 97.0903 296.453 91.9963 296.599 85.7897C296.716 79.5831 299.029 74.6062 301.724 74.694Z" fill="#BD3737"></path> <path fill-rule="evenodd" clip-rule="evenodd" d="M301.286 77.8264C303.306 77.8849 304.858 81.6616 304.741 86.2872C304.653 90.9128 302.925 94.6016 300.934 94.5431C298.914 94.4845 297.362 90.7079 297.479 86.0823C297.567 81.4566 299.265 77.7678 301.286 77.8264Z" fill="#DE4141"></path> <path fill-rule="evenodd" clip-rule="evenodd" d="M258.501 100.106C258.501 100.106 260.346 102.126 267.374 99.8716L258.501 100.106Z" fill="#FF7F7F"></path> <path fill-rule="evenodd" clip-rule="evenodd" d="M269.159 83.0382C269.95 82.9211 270.711 83.6237 270.828 84.5605C270.975 85.5266 270.448 86.4049 269.657 86.522C268.866 86.6391 268.105 85.9365 267.988 84.9997C267.871 84.0335 268.398 83.1553 269.159 83.0382Z" fill="#669999"></path> <path fill-rule="evenodd" clip-rule="evenodd" d="M269.043 83.7989C269.482 83.7404 269.922 84.1209 270.01 84.6772C270.097 85.2334 269.805 85.7311 269.336 85.7897C268.897 85.8482 268.458 85.4676 268.37 84.9114C268.311 84.3844 268.604 83.8867 269.043 83.7989Z" fill="#333333"></path> <path fill-rule="evenodd" clip-rule="evenodd" d="M265.473 85.0581C265.473 85.0581 269.777 83.6822 274.96 84.0335C274.96 84.0628 269.543 80.4618 265.473 85.0581Z" fill="#333333"></path> <path fill-rule="evenodd" clip-rule="evenodd" d="M261.897 82.6865C261.897 82.6865 264.679 84.7066 266.729 84.0039C268.779 83.3013 274.05 79.7589 277.652 80.403C277.652 80.403 274.636 77.4461 269.657 80.2273C264.679 83.0378 261.897 82.6865 261.897 82.6865Z" fill="#333333"></path> <path fill-rule="evenodd" clip-rule="evenodd" d="M269.864 85.0286C270.039 84.9994 270.186 85.1457 270.215 85.3507C270.244 85.5556 270.127 85.7313 269.981 85.7605C269.805 85.7898 269.659 85.6434 269.629 85.4385C269.571 85.2043 269.688 85.0286 269.864 85.0286Z" fill="white"></path> <path fill-rule="evenodd" clip-rule="evenodd" d="M258.15 83.5938C258.882 83.4767 259.585 84.1208 259.732 85.0284C259.878 85.9359 259.38 86.7264 258.648 86.8435C257.916 86.9606 257.213 86.3165 257.067 85.409C256.92 84.5014 257.389 83.6817 258.15 83.5938Z" fill="#669999"></path> <path fill-rule="evenodd" clip-rule="evenodd" d="M258.004 84.3257C258.414 84.2671 258.824 84.6185 258.912 85.1454C259 85.6431 258.707 86.1116 258.297 86.1701C257.887 86.2287 257.477 85.8774 257.389 85.3504C257.33 84.8527 257.594 84.3843 258.004 84.3257Z" fill="#333333"></path> <path fill-rule="evenodd" clip-rule="evenodd" d="M258.767 85.4383C258.914 85.409 259.06 85.5554 259.089 85.7311C259.119 85.9067 259.031 86.0824 258.855 86.1117C258.709 86.141 258.562 85.9946 258.533 85.8189C258.504 85.614 258.621 85.4676 258.767 85.4383Z" fill="white"></path> <path fill-rule="evenodd" clip-rule="evenodd" d="M255.134 84.4429L260.844 85.4968C260.844 85.4676 259.028 82.4814 255.134 84.4429Z" fill="#333333"></path> <path fill-rule="evenodd" clip-rule="evenodd" d="M251.62 81.2225C251.649 81.3689 251.796 81.6324 252.001 81.9544C252.001 81.9544 253.348 81.0469 255.778 82.8327C258.209 84.6186 260.024 84.2087 260.024 84.2087L259.966 81.3982C259.966 81.3982 259.204 82.6571 258.648 82.54C258.092 82.4521 254.373 79.2025 251.62 81.2225Z" fill="#333333"></path> <path fill-rule="evenodd" clip-rule="evenodd" d="M238.121 70.1564C238.121 70.1564 258.678 65.2087 272.997 68.3998C272.968 68.3705 254.812 61.3735 238.121 70.1564Z" fill="#849ABA"></path> <path fill-rule="evenodd" clip-rule="evenodd" d="M306.644 81.0476C306.644 81.0476 313.642 73.7871 317.039 76.8025C320.436 79.818 319.528 85.644 319.47 85.3219C319.44 84.9999 319.089 72.8795 306.644 81.0476Z" fill="#9B7A6D"></path> <path fill-rule="evenodd" clip-rule="evenodd" d="M216.306 217.971C216.306 217.971 234.344 226.169 269.425 222.45L216.306 217.971Z" fill="#242424"></path> <path fill-rule="evenodd" clip-rule="evenodd" d="M225.003 157.868L292.559 162.142C292.559 162.142 286.088 221.193 283.423 224.852C280.758 228.512 225.091 227.692 212.177 219.055C212.177 219.055 210.274 172.009 225.003 157.868Z" fill="#333333"></path> <path fill-rule="evenodd" clip-rule="evenodd" d="M292.382 162.142H292.587C292.587 162.142 286.116 221.192 283.451 224.852C283.07 225.379 281.635 225.789 279.381 226.14C274.871 225.32 276.452 220.402 278.209 214.869C280.405 207.901 283.304 170.252 285.998 165.977C288.283 162.259 291.562 162.113 292.382 162.142Z" fill="#242424"></path> <path fill-rule="evenodd" clip-rule="evenodd" d="M246.115 170.925C251.21 170.721 255.895 172.887 259.38 176.605C262.865 180.294 265.119 185.505 265.354 191.331C265.383 191.77 265.383 192.239 265.383 192.648C265.295 198.035 263.48 202.924 260.493 206.613C257.506 210.302 253.348 212.761 248.633 213.2C248.34 213.23 248.047 213.259 247.755 213.259C242.659 213.464 237.974 211.297 234.489 207.579C231.005 203.89 228.75 198.679 228.516 192.853C228.486 192.385 228.486 191.946 228.486 191.536C228.574 186.149 230.39 181.26 233.377 177.571C236.363 173.882 240.522 171.423 245.207 170.984C245.558 170.955 245.822 170.925 246.115 170.925ZM258.941 177.015C255.573 173.443 251.034 171.335 246.115 171.54C245.822 171.54 245.529 171.57 245.266 171.599C240.756 172.038 236.744 174.38 233.874 177.952C230.975 181.523 229.189 186.295 229.131 191.507C229.131 191.946 229.131 192.385 229.16 192.795C229.394 198.474 231.59 203.539 234.958 207.14C238.325 210.712 242.864 212.82 247.784 212.615C248.077 212.615 248.37 212.585 248.633 212.556C253.143 212.117 257.154 209.775 260.024 206.203C262.923 202.632 264.71 197.86 264.768 192.619C264.768 192.18 264.768 191.741 264.739 191.331C264.505 185.681 262.308 180.616 258.941 177.015Z" fill="#F2B124"></path> <path fill-rule="evenodd" clip-rule="evenodd" d="M236.979 172.008C236.569 175.785 232.293 206.671 231.825 210.009L258.414 213.581L264.124 175.317L236.979 172.008ZM231.181 210.243C231.21 210.126 236.393 172.652 236.393 171.657V171.306L264.827 174.76C262.865 187.935 260.903 201.109 258.912 214.283L231.122 210.565L231.181 210.243Z" fill="#F2B124"></path> <path fill-rule="evenodd" clip-rule="evenodd" d="M272.44 168.202L274.842 174.35L279.703 168.377L272.44 168.202Z" fill="#F2B124"></path> <path fill-rule="evenodd" clip-rule="evenodd" d="M248.515 176.634C248.515 176.634 246.641 176.576 246.495 177.191C246.349 177.805 246.114 177.63 245.939 177.63C245.763 177.63 245.499 177.864 245.675 178.069C245.851 178.274 245.382 178.098 245.294 178.479C245.206 178.889 245.587 178.83 245.411 179.094C245.236 179.357 244.914 179.24 244.943 179.533C244.972 179.796 245.324 179.796 245.236 180.03C245.148 180.294 244.767 180.294 245.119 180.528C245.47 180.792 245.792 180.587 245.821 180.879C245.851 181.172 245.441 181.026 245.587 181.319C245.734 181.582 245.821 181.816 245.821 181.816C245.821 181.816 244.064 180.616 243.069 180.967C243.069 180.967 240.843 180.265 240.463 179.972C240.082 179.708 239.965 178.83 237.944 178.274C235.924 177.747 235.602 177.483 235.631 177.249C235.66 177.015 234.899 175.961 234.665 175.932C234.43 175.932 233.318 175.405 233.113 175.727C232.937 176.02 233.552 177.337 234.079 177.659C234.606 177.981 235.045 177.776 235.309 178.186C235.572 178.567 238.735 180.967 239.233 181.114C239.731 181.231 239.818 180.938 240.199 181.289C240.433 181.523 241.37 181.992 242.19 182.46C241.429 182.343 240.55 182.255 240.375 182.372C240.023 182.577 239.848 182.577 239.613 182.46C239.379 182.343 238.676 181.992 237.886 181.933C237.124 181.904 235.924 182.05 235.309 181.963C234.694 181.875 234.46 181.728 234.196 181.553C233.932 181.406 232.703 180.909 232.234 180.938C231.766 180.967 231.326 180.938 231.385 181.055C231.443 181.143 232.703 181.26 232.703 181.406C232.703 181.553 231.443 181.406 231.356 181.582C231.268 181.758 231.824 182.636 233.318 182.841C234.811 183.046 234.723 182.548 235.367 182.782C236.041 183.017 238.003 183.719 238.735 183.661C239.438 183.602 239.174 183.251 239.789 183.514C240.287 183.719 242.688 184.334 243.684 184.539C243.772 185.915 243.713 187.964 244.65 188.725C244.65 188.725 244.211 189.282 244.299 190.014C244.416 190.745 244.474 190.277 244.094 190.98C243.889 191.36 243.625 191.946 243.449 192.59C243.127 192.883 242.747 193.351 242.307 194.083C241.341 195.781 240.902 197.04 240.873 197.538C240.814 198.035 240.814 198.094 240.521 198.357C240.228 198.621 240.287 198.504 240.053 198.914C239.818 199.323 238.413 200.202 237.681 201.343C236.949 202.485 236.949 203.949 236.48 204.944C235.982 205.94 235.865 206.408 235.631 206.613C235.397 206.818 235.045 206.994 234.899 207.023C234.723 207.052 234.547 207.169 234.489 207.316C234.43 207.462 235.953 208.721 236.129 208.633C236.304 208.575 236.422 208.516 236.48 207.931C236.568 207.345 236.919 207.082 236.978 206.789C237.066 206.525 236.802 206.203 237.183 205.706C237.564 205.208 238.881 204.154 239.438 202.983C239.965 201.841 239.672 201.256 240.316 200.67C240.96 200.114 241.283 200.202 241.488 199.938C241.605 199.792 242.307 198.943 243.04 198.065C243.01 198.387 243.01 198.679 243.069 198.914C243.274 200.114 243.391 200.494 243.127 201.431C242.835 202.339 241.751 203.978 242.073 205.384C242.395 206.789 242.805 208.428 242.776 209.102C242.747 209.775 242.102 210.653 242.483 211.005C242.835 211.356 244.474 211.59 244.621 211.473C244.797 211.356 244.504 210.741 244.387 210.565C244.269 210.39 244.064 210.126 244.152 209.746C244.24 209.365 243.977 209.336 243.83 208.75C243.654 208.165 243.918 206.584 244.182 205.735C244.445 204.857 244.123 204.271 244.211 203.393C244.299 202.544 244.709 202.339 244.797 201.87C244.884 201.402 244.797 201.226 244.826 201.109C244.855 201.021 245.675 199.294 246.319 197.655C246.524 198.972 245.587 200.582 245.704 201.197C245.704 201.197 245.734 202.075 245.353 202.69C244.972 203.334 244.299 204.71 244.65 205.589C245.031 206.438 245.119 206.555 245.089 206.847C245.06 207.14 245.353 209.775 245.236 210.273C245.119 210.741 244.767 211.268 245.265 211.385C245.763 211.502 246.29 211.151 247.139 211.356C247.988 211.561 247.901 211.766 248.515 211.619C249.13 211.502 249.921 211.678 249.745 211.385C249.57 211.092 248.164 210.888 247.871 210.624C247.578 210.361 246.729 209.687 246.671 209.131C246.612 208.575 246.846 205.179 246.963 204.242C247.081 203.305 247.198 203.071 247.52 202.602C247.813 202.105 247.93 201.988 247.901 201.578C247.871 201.168 247.871 201.168 247.871 201.168C247.959 200.817 248.428 200.026 248.75 199.177C248.867 198.884 248.984 198.474 249.101 197.977C249.775 199.118 250.448 200.407 250.565 200.612C250.741 200.904 251.034 200.846 251.561 201.519C252.088 202.163 251.649 202.69 251.942 203.92C252.234 205.12 253.318 206.35 253.581 206.906C253.845 207.462 253.523 207.726 253.552 207.989C253.581 208.282 253.874 208.604 253.816 209.16C253.757 209.746 253.874 209.804 254.021 209.892C254.196 209.98 255.953 208.955 255.924 208.809C255.895 208.663 255.748 208.516 255.573 208.458C255.426 208.399 255.104 208.194 254.928 207.96C254.723 207.726 254.694 207.228 254.431 206.174C254.167 205.12 254.46 203.686 253.991 202.456C253.523 201.226 252.322 200.143 252.176 199.733C252.029 199.294 252.059 199.441 251.824 199.118C251.619 198.796 251.619 198.767 251.678 198.24C251.737 197.743 251.561 196.454 250.975 194.639C250.712 193.849 250.419 193.322 250.185 193C250.155 192.326 250.009 191.712 249.892 191.331C249.687 190.57 249.658 191.038 249.892 190.336C250.155 189.633 249.833 189.018 249.833 189.018C250.917 188.403 251.297 186.383 251.678 185.007C252.703 184.949 255.221 184.685 255.748 184.568C256.393 184.393 256.07 184.715 256.744 184.861C257.418 185.007 259.526 184.597 260.229 184.451C260.931 184.305 260.726 184.773 262.249 184.802C263.772 184.832 264.504 184.012 264.475 183.836C264.445 183.661 263.157 183.631 263.186 183.485C263.216 183.339 264.475 183.426 264.563 183.339C264.621 183.251 264.182 183.192 263.743 183.104C263.303 183.017 261.986 183.309 261.693 183.426C261.4 183.544 261.107 183.661 260.492 183.661C259.877 183.661 258.735 183.339 257.945 183.28C257.183 183.222 256.393 183.456 256.129 183.544C255.866 183.631 255.719 183.602 255.397 183.368C255.221 183.251 254.372 183.192 253.581 183.192C254.489 182.841 255.514 182.49 255.807 182.314C256.246 182.021 256.275 182.314 256.773 182.285C257.3 182.226 260.931 180.323 261.254 179.972C261.576 179.621 261.986 179.884 262.571 179.621C263.157 179.386 264.035 178.186 263.918 177.864C263.801 177.542 262.601 177.893 262.337 177.893C262.103 177.893 261.136 178.801 261.107 179.035C261.078 179.269 260.727 179.474 258.618 179.708C256.51 179.943 256.217 180.792 255.778 181.026C255.338 181.231 252.996 181.611 252.996 181.611C252.088 181.114 250.097 182.05 250.097 182.05C250.097 182.05 250.243 181.846 250.448 181.611C250.653 181.377 250.214 181.436 250.302 181.172C250.39 180.879 250.653 181.143 251.063 180.938C251.473 180.733 251.092 180.704 251.063 180.411C251.034 180.147 251.356 180.206 251.444 179.943C251.532 179.679 251.21 179.738 251.092 179.445C250.975 179.152 251.327 179.24 251.327 178.859C251.327 178.449 250.829 178.567 251.034 178.391C251.239 178.215 251.034 177.952 250.858 177.923C250.682 177.893 250.419 178.069 250.39 177.425C250.39 176.839 248.515 176.634 248.515 176.634Z" fill="#F2B124"></path> <path fill-rule="evenodd" clip-rule="evenodd" d="M224.797 159.478L288.195 163.488C288.195 163.518 245.851 168.612 224.797 159.478Z" fill="#4D4D4D"></path> <path fill-rule="evenodd" clip-rule="evenodd" d="M248.077 48.7849C248.077 48.7849 268.927 45.2718 283.012 49.4583C283.012 49.4583 265.354 41.2024 248.077 48.7849Z" fill="#849ABA"></path> <path fill-rule="evenodd" clip-rule="evenodd" d="M224.622 163.693L233.67 164.542L233.524 166.387L224.3 165.538L224.622 163.693Z" fill="#F2B124"></path> <path fill-rule="evenodd" clip-rule="evenodd" d="M224.095 166.855L228.253 167.353L228.136 169.198L223.89 168.729L224.095 166.855Z" fill="#F2B124"></path> <path fill-rule="evenodd" clip-rule="evenodd" d="M297.8 120.57C297.8 120.57 284.594 134.711 282.573 148.061C282.573 148.061 289.045 146.977 292.5 149.29C292.5 149.29 299.645 128.943 307.112 122.854C307.083 122.824 305.033 118.784 297.8 120.57Z" fill="#4D4D4D"></path> <path fill-rule="evenodd" clip-rule="evenodd" d="M286.584 142.498L283.246 153.3L287.668 154.003L290.274 143.054L286.584 142.498Z" fill="#242424"></path> <path fill-rule="evenodd" clip-rule="evenodd" d="M225.294 148.177C225.294 148.177 228.691 133.247 235.309 125.401C235.309 125.401 243.157 121.682 243.684 121.8C244.211 121.917 237.212 133.276 234.43 146.597L225.294 148.177Z" fill="#4D4D4D"></path> <path fill-rule="evenodd" clip-rule="evenodd" d="M232.821 142.761L231.298 152.657L228.048 152.744L229.395 143.259L232.821 142.761Z" fill="#242424"></path> <path fill-rule="evenodd" clip-rule="evenodd" d="M213.377 214.195L276.628 221.192C276.658 221.221 234.402 224.354 213.377 214.195Z" fill="#242424"></path> <path fill-rule="evenodd" clip-rule="evenodd" d="M292.558 74.7827C292.558 74.7827 286.965 82.4824 291.504 94.4856C291.504 94.4856 288.692 83.4485 292.558 74.7827Z" fill="#FA6161"></path> <path fill-rule="evenodd" clip-rule="evenodd" d="M301.227 80.1978C302.662 80.227 303.775 82.9497 303.716 86.2287C303.658 89.5369 302.428 92.1717 300.993 92.1132C300.817 92.1132 300.671 92.0546 300.495 91.9961C301.696 91.4691 302.633 89.0977 302.691 86.1994C302.75 83.301 301.901 80.8418 300.7 80.2856C300.876 80.2563 301.051 80.1978 301.227 80.1978Z" fill="#242424"></path> <path fill-rule="evenodd" clip-rule="evenodd" d="M253.407 101.306C253.407 101.306 257.8 101.804 261.021 96.8271L253.407 101.306Z" fill="#664E45"></path> <path fill-rule="evenodd" clip-rule="evenodd" d="M272.5 100.048C272.5 100.048 267.082 102.361 261.05 97.2373L272.5 100.048Z" fill="#664E45"></path> <path fill-rule="evenodd" clip-rule="evenodd" d="M259.381 81.0766C259.381 81.0766 258.825 83.5944 259.996 85.2046C259.996 85.2046 257.917 96.1539 258.444 96.798C258.971 97.442 260.084 97.8519 260.699 97.4713C261.314 97.0907 262.192 95.0121 263.393 94.8072C264.593 94.6023 265.531 93.9875 265.765 93.3141C265.999 92.6407 265.618 91.5283 265.384 91.294C265.15 91.0306 264.33 91.0306 264.33 91.0306C264.33 91.0306 262.309 85.8487 262.28 85.5266C262.222 85.2046 261.607 81.7793 261.899 80.9596C262.163 80.1398 259.879 80.6082 259.381 81.0766Z" fill="#FF7F7F"></path> <path fill-rule="evenodd" clip-rule="evenodd" d="M262.659 105.697L259.584 120.218C259.584 120.248 264.826 112.021 262.659 105.697Z" fill="#664E45"></path> <path fill-rule="evenodd" clip-rule="evenodd" d="M284.008 95.8022L279.791 110.85C279.791 110.85 285.56 102.126 284.008 95.8022Z" fill="#664E45"></path> <path fill-rule="evenodd" clip-rule="evenodd" d="M310.099 82.7749C310.099 82.7749 318.737 88.0446 316.629 91.9969C314.521 95.9785 308.635 96.3591 308.928 96.242C309.22 96.1541 320.846 93.1387 310.099 82.7749Z" fill="#9B7A6D"></path> <path fill-rule="evenodd" clip-rule="evenodd" d="M327.462 216.889C327.462 216.889 317.008 221.544 313.758 229.419C313.758 229.419 315.808 218.177 327.462 216.889Z" fill="#242424"></path> <path fill-rule="evenodd" clip-rule="evenodd" d="M338.152 221.134C338.152 221.134 322.515 221.134 313.993 229.361C313.993 229.361 322.954 216.157 338.152 221.134Z" fill="#242424"></path> <path fill-rule="evenodd" clip-rule="evenodd" d="M276.159 243.735C276.159 243.735 287.375 231.321 307.141 240.075C307.141 240.075 287.17 239.519 276.159 243.735Z" fill="#2E3D54"></path> <path fill-rule="evenodd" clip-rule="evenodd" d="M160.022 269.323C160.667 268.122 167.665 251.113 167.665 251.113C167.665 251.113 207.754 251.259 217.037 252.664C226.319 254.04 248.721 268.152 262.133 265.37C275.544 262.589 305.032 257.261 305.032 257.261L305.384 272.075C305.384 272.075 263.538 315.433 190.711 291.543C179.408 287.825 171.033 279.13 160.022 269.323Z" fill="#B58F3B"></path> <path fill-rule="evenodd" clip-rule="evenodd" d="M167.342 333.73L160.929 338.209C160.929 338.209 159.611 341.781 164.326 343.303C169.041 344.796 175.483 380.016 173.14 385.49C170.768 390.965 168.748 394.507 173.579 395.678C178.411 396.849 192.145 390.643 193.433 388.067C194.722 385.49 194.517 383.441 194.517 383.441C194.517 383.441 187.577 362.86 190.534 344.474C190.534 344.474 195.366 341.283 191.823 337.565C188.28 333.847 167.342 333.73 167.342 333.73Z" fill="white"></path> <path fill-rule="evenodd" clip-rule="evenodd" d="M148.281 299.799C152.732 314.35 152.82 334.228 159.526 337.829C173.201 345.236 191.063 345.441 192.352 337.624C193.64 329.837 189.394 300.619 191.122 289.816C192.352 282.146 184.885 249.034 165.119 250.41C130.301 252.811 141.282 276.964 148.281 299.799Z" fill="#B58F3B"></path> <path fill-rule="evenodd" clip-rule="evenodd" d="M148.28 299.8C152.731 314.35 152.819 334.228 159.525 337.829C175.748 345.558 181.077 332.53 180.609 315.257C180.14 297.984 152.966 267.976 145.294 274.768C143.859 276.057 142.892 277.725 142.307 279.628C143.771 286.069 146.201 293.008 148.28 299.8Z" fill="#F2B124"></path> <path fill-rule="evenodd" clip-rule="evenodd" d="M147.314 298.453C147.636 299.536 147.929 300.619 148.222 301.732C178.705 321.903 190.038 314.174 192.234 312.125C191.941 308.231 191.678 304.337 191.531 300.736C172.556 303.225 155.279 295.086 144.122 287.826C145.147 291.339 146.289 294.911 147.314 298.453Z" fill="white"></path> <path fill-rule="evenodd" clip-rule="evenodd" d="M166.318 343.596C166.318 343.596 174.898 347.519 187.08 345.089C187.109 345.119 178.734 350.3 166.318 343.596Z" fill="#CCCCCC"></path> <path fill-rule="evenodd" clip-rule="evenodd" d="M134.078 396.966C134.078 396.966 172.41 376.473 173.669 377.586C174.957 378.698 172.234 387.393 176.451 388.886C180.668 390.379 191.092 387.042 192.849 378.259C194.606 369.447 195.133 382.767 197.183 385.227C199.233 387.686 200.024 393.365 199.936 397.259C199.936 397.259 196.715 396.586 184.387 401.416C172.029 406.218 160.345 411.546 149.51 410.229C138.676 408.911 134.166 406.628 134.166 406.628L131.472 398.782C131.443 398.723 131.56 398.05 134.078 396.966Z" fill="#333333"></path> <path fill-rule="evenodd" clip-rule="evenodd" d="M198.706 388.125C199.643 390.877 200.492 395.298 200.433 398.05C193.347 401.505 195.865 398.724 183.596 402.705C171.326 406.657 160.316 411.517 149.481 410.2C138.646 408.882 134.136 406.599 134.136 406.599L131.442 398.753C131.442 398.753 131.472 398.606 131.764 398.314C131.764 398.343 133.404 402.617 146.904 402.354C160.433 402.09 174.489 395.445 183.391 394.596C192.293 393.776 198.706 388.125 198.706 388.125Z" fill="white"></path> <path fill-rule="evenodd" clip-rule="evenodd" d="M151.15 388.711C151.15 388.711 159.965 392.254 158.998 398.958C158.969 398.958 158.325 392.693 151.15 388.711Z" fill="white"></path> <path fill-rule="evenodd" clip-rule="evenodd" d="M180.754 378.025C180.754 378.025 183.272 384.173 185 383.061C186.728 381.919 188.221 377.118 188.221 377.118C188.221 377.118 185.556 382.241 184.209 381.451C182.892 380.66 180.754 378.025 180.754 378.025Z" fill="#333333"></path> <path fill-rule="evenodd" clip-rule="evenodd" d="M177.447 358.264L172.557 366.227L179.673 372.024L179.175 372.638L171.532 366.403L176.774 357.854L177.447 358.264Z" fill="#333333"></path> <path fill-rule="evenodd" clip-rule="evenodd" d="M317.829 147.768C317.829 147.768 321.021 130.026 326.702 132.105C332.383 134.154 365.062 198.738 355.37 215.63C345.677 232.522 302.28 230.707 291.328 225.203C280.376 219.699 278.326 190.804 290.976 187.525C303.627 184.246 321.284 187.525 321.284 187.525C321.284 187.525 314.286 171.247 317.829 147.768Z" fill="#2E3D54"></path> <path fill-rule="evenodd" clip-rule="evenodd" d="M279.672 197.918C279.233 196.835 275.162 192.765 275.162 192.765C275.162 192.765 266.612 201.929 274.225 211.619C274.255 211.619 283.069 208.194 279.672 197.918Z" fill="#333333"></path> <path fill-rule="evenodd" clip-rule="evenodd" d="M275.194 199.294C276.277 195.547 275.574 191.214 272.939 187.701C270.333 184.188 266.409 182.373 262.602 182.49C261.636 182.519 260.874 183.163 260.669 184.158C260.464 185.125 260.874 186.149 261.723 186.735C263.715 188.111 265.618 189.955 267.287 192.18C268.956 194.405 270.186 196.776 270.977 199.089C271.299 200.085 272.148 200.729 273.144 200.787C274.081 200.846 274.901 200.26 275.194 199.294Z" fill="#FF8181"></path> <path fill-rule="evenodd" clip-rule="evenodd" d="M282.982 197.479L262.981 189.019L256.129 212.41L277.506 210.156C281.605 209.102 286.701 204.886 282.982 197.479Z" fill="#FFB9A1"></path> <path fill-rule="evenodd" clip-rule="evenodd" d="M242.602 183.28C246.409 183.163 250.86 183.895 255.487 185.534C260.114 187.174 264.243 189.487 267.493 192.122C268.489 192.912 268.869 194.347 268.342 195.43C267.844 196.513 266.614 196.923 265.502 196.367C262.046 194.639 258.269 193 254.257 191.595C250.245 190.189 246.351 189.077 242.719 188.286C241.548 188.023 240.64 186.881 240.611 185.593C240.582 184.305 241.431 183.309 242.602 183.28Z" fill="#FFB9A1"></path> <path fill-rule="evenodd" clip-rule="evenodd" d="M234.08 198.153C238.326 196.338 243.451 195.079 248.927 194.698C254.432 194.318 259.469 194.845 263.627 196.074C264.886 196.455 265.56 197.743 265.208 199.09C264.828 200.436 263.539 201.403 262.192 201.315C258.005 201.081 253.466 201.11 248.693 201.432C243.949 201.754 239.381 202.369 235.135 203.218C233.758 203.481 232.558 202.72 232.265 201.403C232.031 200.114 232.792 198.709 234.08 198.153Z" fill="#FFB9A1"></path> <path fill-rule="evenodd" clip-rule="evenodd" d="M236.51 207.785C240.727 208.751 245.851 209.014 251.356 208.282C256.862 207.58 261.928 206.028 266.086 203.979C267.374 203.335 268.048 201.929 267.696 200.641C267.345 199.353 266.057 198.68 264.71 199.002C260.493 200.085 255.954 200.963 251.21 201.549C246.466 202.164 241.898 202.456 237.652 202.456C236.305 202.456 235.046 203.481 234.753 204.828C234.46 206.233 235.221 207.463 236.51 207.785Z" fill="#FFB9A1"></path> <path fill-rule="evenodd" clip-rule="evenodd" d="M244.856 212.878C247.667 213.405 251.035 213.434 254.636 212.849C258.238 212.263 261.577 211.121 264.3 209.687C265.12 209.248 265.559 208.282 265.325 207.462C265.061 206.642 264.212 206.203 263.334 206.467C260.581 207.257 257.594 207.96 254.461 208.457C251.327 208.984 248.341 209.277 245.529 209.394C244.622 209.423 243.831 210.126 243.655 211.034C243.509 211.912 244.007 212.702 244.856 212.878Z" fill="#FFB9A1"></path> <path fill-rule="evenodd" clip-rule="evenodd" d="M275.194 192.766C275.194 192.766 279.469 204.3 274.022 211.59L292.793 212.527C292.793 212.527 297.244 204.622 294.286 195.078C294.286 195.078 280.904 191.565 275.194 192.766Z" fill="#2E3D54"></path> <path fill-rule="evenodd" clip-rule="evenodd" d="M333.848 153.916C338.767 153.916 344.536 160.151 346.761 167.822C348.958 175.492 346.761 181.728 341.842 181.728C336.922 181.728 331.153 175.492 328.957 167.822C326.732 160.122 328.928 153.916 333.848 153.916Z" fill="#576D8D"></path> <path fill-rule="evenodd" clip-rule="evenodd" d="M335.254 157.692C338.827 157.692 343.014 162.2 344.625 167.792C346.236 173.384 344.625 177.892 341.052 177.892C337.48 177.892 333.292 173.384 331.682 167.792C330.071 162.23 331.682 157.692 335.254 157.692Z" fill="#2E3D54"></path> <path fill-rule="evenodd" clip-rule="evenodd" d="M160.021 196.747C160.021 196.747 179.465 198.591 183.302 197.742C187.138 196.893 192.965 194.346 188.69 191.506C184.444 188.637 169.246 186.793 160.021 196.747Z" fill="#FFB9A1"></path> <path fill-rule="evenodd" clip-rule="evenodd" d="M182.218 192.765C183.682 196.103 186.961 198.942 191.237 200.113C195.512 201.284 199.787 200.523 202.745 198.386C203.506 197.83 203.711 196.952 203.272 196.103C202.833 195.254 201.867 194.727 200.842 194.756C198.382 194.814 195.717 194.492 192.994 193.76C190.27 193.029 187.84 191.945 185.732 190.628C184.853 190.072 183.77 190.042 182.95 190.54C182.13 191.038 181.837 191.916 182.218 192.765Z" fill="#FFB9A1"></path> <path fill-rule="evenodd" clip-rule="evenodd" d="M161.339 210.448C164.912 209.628 168.982 207.872 173.052 205.178C177.152 202.485 180.666 199.265 183.331 195.956C184.151 194.932 184.297 193.497 183.653 192.59C183.009 191.682 181.837 191.594 180.871 192.385C177.884 194.873 174.575 197.362 171.032 199.674C167.489 202.017 164.004 204.007 160.724 205.647C159.67 206.174 158.997 207.491 159.143 208.721C159.319 209.95 160.256 210.712 161.339 210.448Z" fill="#FFB9A1"></path> <path fill-rule="evenodd" clip-rule="evenodd" d="M152.438 206.818C154.634 203.656 157.797 200.494 161.691 197.771C165.586 195.049 169.627 193.175 173.346 192.18C174.488 191.887 175.659 192.472 176.098 193.556C176.538 194.668 176.069 195.898 175.015 196.454C171.765 198.152 168.397 200.201 165.029 202.573C161.662 204.915 158.587 207.403 155.864 209.862C154.985 210.653 153.668 210.653 152.789 209.892C151.94 209.101 151.764 207.784 152.438 206.818Z" fill="#FFB9A1"></path> <path fill-rule="evenodd" clip-rule="evenodd" d="M152.058 204.388C153.99 201.666 156.831 198.884 160.345 196.454C163.859 194.024 167.578 192.297 171.004 191.331C172.058 191.038 173.171 191.507 173.61 192.414C174.049 193.322 173.668 194.376 172.702 194.873C169.745 196.425 166.67 198.269 163.624 200.377C160.579 202.485 157.797 204.652 155.367 206.818C154.576 207.521 153.346 207.579 152.497 206.935C151.677 206.32 151.472 205.237 152.058 204.388Z" fill="#FFB9A1"></path> <path fill-rule="evenodd" clip-rule="evenodd" d="M151.998 193.556C154.048 192.531 156.712 191.741 159.758 191.419C162.803 191.067 165.79 191.214 168.396 191.741C169.187 191.887 169.831 192.531 169.89 193.234C169.948 193.936 169.421 194.434 168.631 194.434C166.2 194.434 163.623 194.551 160.988 194.844C158.352 195.137 155.863 195.576 153.638 196.103C152.906 196.278 152.056 195.898 151.646 195.254C151.207 194.61 151.383 193.878 151.998 193.556Z" fill="#FFB9A1"></path> <path fill-rule="evenodd" clip-rule="evenodd" d="M87.4604 410.493L146.964 211.912H149.101L117.739 316.604L89.3931 411.195C89.1589 411.956 88.6903 412.542 88.0754 412.923C87.4897 413.274 86.7577 413.391 86.0549 413.186C85.3521 412.981 84.7664 412.483 84.415 411.839C84.0636 411.195 83.9465 410.405 84.0929 409.644L125.294 211.971H127.373L86.0549 410.141C86.0256 410.346 86.0549 410.551 86.1427 410.698C86.2306 410.873 86.377 410.99 86.5527 411.049C86.7284 411.107 86.9334 411.078 87.0798 410.99C87.2848 410.844 87.4019 410.698 87.4604 410.493Z" fill="#1F1F1F"></path> <path fill-rule="evenodd" clip-rule="evenodd" d="M4.26637 422.641L69.1577 211.882H71.5004L37.2977 322.985L6.37475 423.373C6.1112 424.193 5.61339 424.808 4.93988 425.188C4.29565 425.569 3.50501 425.686 2.71436 425.452C1.953 425.218 1.30877 424.691 0.928093 424.017C0.547413 423.344 0.400997 422.495 0.576696 421.675L45.497 211.911H47.7811L2.74365 422.202C2.68508 422.407 2.74364 422.641 2.83149 422.817C2.91934 422.993 3.09504 423.139 3.30002 423.198C3.505 423.256 3.70999 423.227 3.8564 423.139C4.06139 423.022 4.2078 422.846 4.26637 422.641Z" fill="#1F1F1F"></path> <path fill-rule="evenodd" clip-rule="evenodd" d="M51.7334 217.268C50.2985 219.171 48.0437 220.429 45.4668 220.429C42.8899 220.429 40.6351 219.2 39.2002 217.268H51.7334Z" fill="#1F1F1F"></path> <path fill-rule="evenodd" clip-rule="evenodd" d="M74.0761 217.268C72.6413 219.171 70.3865 220.43 67.8095 220.43C65.2326 220.43 62.9778 219.2 61.543 217.268H74.0761Z" fill="#1F1F1F"></path> <path fill-rule="evenodd" clip-rule="evenodd" d="M393.615 434.264L325.005 211.384H322.545L358.71 328.87L391.39 435.025C391.653 435.874 392.209 436.548 392.912 436.957C393.615 437.367 394.435 437.484 395.255 437.25C396.075 437.016 396.719 436.46 397.129 435.728C397.539 434.996 397.685 434.118 397.51 433.239L349.983 211.384H347.523L395.167 433.796C395.226 434.03 395.167 434.264 395.079 434.44C394.962 434.615 394.816 434.762 394.581 434.82C394.376 434.879 394.142 434.85 393.966 434.762C393.82 434.645 393.674 434.469 393.615 434.264Z" fill="#1F1F1F"></path> <path fill-rule="evenodd" clip-rule="evenodd" d="M343.423 217.269C344.916 219.289 347.347 220.606 350.041 220.606C352.764 220.606 355.165 219.289 356.659 217.269H343.423Z" fill="#1F1F1F"></path> <path fill-rule="evenodd" clip-rule="evenodd" d="M319.791 217.269C321.284 219.289 323.715 220.606 326.409 220.606C329.132 220.606 331.534 219.289 333.027 217.269H319.791Z" fill="#1F1F1F"></path> <path fill-rule="evenodd" clip-rule="evenodd" d="M494.435 415.177L431.857 211.912H429.603L462.575 319.063L492.386 415.879C492.62 416.67 493.147 417.285 493.762 417.636C494.406 417.987 495.167 418.104 495.899 417.899C496.632 417.695 497.246 417.168 497.598 416.494C497.979 415.85 498.096 415.03 497.92 414.24L454.581 211.912H452.385L495.841 414.738C495.87 414.943 495.841 415.148 495.753 415.323C495.665 415.499 495.49 415.616 495.314 415.675C495.138 415.733 494.933 415.704 494.757 415.616C494.64 415.528 494.494 415.352 494.435 415.177Z" fill="#1F1F1F"></path> <path fill-rule="evenodd" clip-rule="evenodd" d="M448.667 217.269C450.043 219.113 452.24 220.313 454.699 220.313C457.188 220.313 459.355 219.113 460.732 217.269H448.667Z" fill="#1F1F1F"></path> <path fill-rule="evenodd" clip-rule="evenodd" d="M427.144 217.269C428.52 219.113 430.716 220.313 433.176 220.313C435.665 220.313 437.832 219.113 439.208 217.269H427.144Z" fill="#1F1F1F"></path> <path fill-rule="evenodd" clip-rule="evenodd" d="M140.021 217.269C141.398 219.113 143.594 220.313 146.054 220.313C148.543 220.313 150.71 219.113 152.086 217.269H140.021Z" fill="#1F1F1F"></path> <path fill-rule="evenodd" clip-rule="evenodd" d="M118.499 217.269C119.875 219.113 122.072 220.313 124.531 220.313C127.02 220.313 129.187 219.113 130.564 217.269H118.499Z" fill="#1F1F1F"></path> <path fill-rule="evenodd" clip-rule="evenodd" d="M95.0134 129.411H194.957C196.216 129.411 197.534 130.436 197.914 131.695L219.701 204.944C220.082 206.203 219.349 207.227 218.12 207.227H118.147C116.888 207.227 115.57 206.203 115.189 204.944L93.4028 131.695C93.0514 130.436 93.7542 129.411 95.0134 129.411Z" fill="white"></path> <path fill-rule="evenodd" clip-rule="evenodd" d="M259.029 208.633H201.81C201.136 208.633 200.609 208.076 200.609 207.432C200.609 206.759 201.166 206.232 201.81 206.232H259C259.673 206.232 260.2 206.788 260.2 207.432C260.23 208.076 259.673 208.633 259.029 208.633Z" fill="#4D4D4D"></path> <path fill-rule="evenodd" clip-rule="evenodd" d="M93.6087 130.846H193.552C194.811 130.846 196.129 131.871 196.51 133.13L218.296 206.379C218.677 207.638 217.945 208.662 216.715 208.662H116.713C115.454 208.662 114.136 207.638 113.755 206.379L91.9689 133.13C91.6175 131.871 92.3496 130.846 93.6087 130.846Z" fill="#CCCCCC"></path> <path fill-rule="evenodd" clip-rule="evenodd" d="M213.465 190.277L218.238 206.35C218.619 207.609 217.887 208.633 216.657 208.633H116.713C115.454 208.633 114.137 207.609 113.756 206.35L101.281 164.397L213.465 190.277Z" fill="#B3B3B3"></path> <path fill-rule="evenodd" clip-rule="evenodd" d="M152.175 163.459C155.631 163.459 159.115 166.269 159.935 169.724C160.755 173.179 158.588 175.989 155.133 175.989C151.677 175.989 148.193 173.179 147.373 169.724C146.553 166.269 148.72 163.459 152.175 163.459Z" fill="white"></path> <path d="M484.188 208.194H15.1895V217.592H484.188V208.194Z" fill="#999999"></path> <path d="M484.188 208.194H298.211V217.592H484.188V208.194Z" fill="#4A4949"></path> <path fill-rule="evenodd" clip-rule="evenodd" d="M208.603 246.663L201.048 251.728C201.048 251.728 217.271 252.489 226.056 269.616C234.841 286.742 251.415 296.286 271.415 286.859C291.386 277.403 303.275 250.176 303.275 250.176C303.275 250.176 233.786 262.853 208.603 246.663Z" fill="#2E3D54"></path> <path fill-rule="evenodd" clip-rule="evenodd" d="M231.064 277.432C240.435 289.377 254.754 294.705 271.417 286.83C290.685 277.725 302.398 252.109 303.218 250.264L303.042 250.206C301.461 250.498 291.534 252.196 278.386 253.484C269.425 260.013 263.188 271.284 256.043 278.164C244.564 289.231 231.416 277.754 231.064 277.432Z" fill="#242424"></path> <path fill-rule="evenodd" clip-rule="evenodd" d="M281.491 395.995C294.674 397.343 322.371 419.703 319.957 430.882C315.191 452.887 265.988 448.592 272.61 418.389C275.086 407.174 268.309 394.646 281.491 395.995Z" fill="#333333" fill-opacity="0.6"></path> <path fill-rule="evenodd" clip-rule="evenodd" d="M273.962 393.863C273.962 393.863 273.786 394.947 273.347 395.971C272.908 396.996 270.448 403.846 271.415 405.632C272.381 407.447 272.176 411.546 271.063 416.991C267.198 435.699 291.444 442.257 303.567 437.133C312.06 433.562 311.503 420.68 309.102 410.902C308.604 408.853 303.919 411.458 303.919 411.458L273.962 393.863Z" fill="white"></path> <path fill-rule="evenodd" clip-rule="evenodd" d="M276.16 336.657C276.16 336.657 272.47 339.438 275.457 341.839C278.444 344.24 279.557 346.67 279.41 350.329C279.323 352.583 280.055 358.731 278.561 370.237C278.415 371.437 275.721 376.678 275.516 377.849C275.282 379.283 276.365 382.591 276.043 383.967C275.135 388.066 276.892 391.55 275.428 394.39C275.428 394.39 273.525 395.444 274.959 398.313C276.365 401.182 274.667 401.357 272.617 409.584C270.567 417.811 281.402 427.208 290.421 427.003C299.44 426.799 300.524 420.416 300.436 413.449C300.348 406.452 298.562 403.583 296.365 397.932C294.608 393.336 294.696 389.998 294.931 381.011C294.989 378.961 296.483 378.581 296.892 375.946C297.156 374.072 295.399 369.886 295.75 367.924C298.093 354.955 302.72 341.429 304.038 339.585C305.56 337.477 308.166 336.511 307.347 334.403C306.527 332.295 303.833 331.914 302.661 332.295C301.431 332.734 276.16 336.657 276.16 336.657Z" fill="white"></path> <path fill-rule="evenodd" clip-rule="evenodd" d="M315.839 278.076C314.228 288.059 312.178 299.565 313.35 306.855C314.931 316.809 304.184 337.126 304.184 337.126C304.184 337.126 284.828 345.177 275.106 338.092C275.106 338.092 262.807 329.661 268.078 309.929C273.232 290.665 263.861 275.793 272.734 262.589C277.624 255.299 286.702 245.843 299.352 249.093C318.591 254.011 316.981 270.699 316.834 271.752C316.541 273.743 316.219 275.88 315.839 278.076Z" fill="#B58F3B"></path> <path fill-rule="evenodd" clip-rule="evenodd" d="M270.566 333.057C267.726 328.607 265.09 321.083 268.077 309.929C270.566 300.648 269.658 292.392 269.073 284.839C271.123 280.594 273.934 276.583 277.799 273.802C290.889 264.433 287.375 285.073 292.441 298.247C297.477 311.422 308.693 325.269 290.479 332.5C282.016 335.867 275.31 335.077 270.566 333.057Z" fill="#F2B124"></path> <path fill-rule="evenodd" clip-rule="evenodd" d="M315.077 282.876C314.374 287.268 313.7 291.747 313.32 295.934C308.078 300.53 280.025 323.951 267.989 310.25L268.077 309.928C268.809 307.234 269.278 304.277 269.6 301.203C270.742 302.638 274.285 305.361 283.48 302.55C293.729 299.447 310.391 286.595 315.077 282.876Z" fill="white"></path> <path fill-rule="evenodd" clip-rule="evenodd" d="M275.838 383.675C274.93 387.686 274.52 391.931 273.349 395.971C273.349 395.971 271.445 397.025 272.88 399.894C274.286 402.763 274.52 403.114 272.47 411.341C270.42 419.567 284.74 430.722 295.077 429.433C305.414 428.145 309.426 419.684 309.338 412.687C309.25 405.69 300.816 402.968 299.059 398.371C297.302 393.775 295.867 391.755 295.223 386.456C295.223 386.456 294.784 387.89 293.788 388.681C292.822 389.501 290.655 380.981 287.492 382.357C284.33 383.733 281.167 390.028 278.766 391.843C276.306 393.687 276.687 383.821 275.838 383.675Z" fill="#333333"></path> <path fill-rule="evenodd" clip-rule="evenodd" d="M306.584 411.81C306.584 411.81 285.266 402.266 276.773 412.102C276.773 412.073 287.491 405.369 306.584 411.81Z" fill="white"></path> <path fill-rule="evenodd" clip-rule="evenodd" d="M279.556 343.713C279.556 343.713 287.433 345.645 299.234 341.4C299.205 341.4 290.83 347.431 279.556 343.713Z" fill="#CCCCCC"></path> <path fill-rule="evenodd" clip-rule="evenodd" d="M283.362 360.079L292.762 372.96L292.03 373.429L282.63 360.547L283.362 360.079Z" fill="#333333"></path> <path fill-rule="evenodd" clip-rule="evenodd" d="M295.487 361.074C294.345 361.923 282.719 372.901 282.69 372.931L282.104 372.433C282.134 372.404 293.759 361.367 294.989 360.488L295.487 361.074Z" fill="#333333"></path> <path fill-rule="evenodd" clip-rule="evenodd" d="M275.104 250.323C275.104 250.323 255.924 259.398 207.987 248.068C207.987 248.068 260.111 276.115 275.104 250.323Z" fill="#2E3D54"></path> <path fill-rule="evenodd" clip-rule="evenodd" d="M223.772 239.578C223.772 239.578 271.972 244.702 288.84 238.085C301.256 233.196 282.895 232.464 255.632 235.245C245.823 236.241 234.871 237.704 223.772 239.578Z" fill="#576D8D"></path> <path fill-rule="evenodd" clip-rule="evenodd" d="M233.261 270.757C233.261 270.757 240.142 280.74 251.358 272.074C262.573 263.408 278.913 250.234 278.913 250.234C278.913 250.234 242.748 282.818 233.261 270.757Z" fill="#576D8D"></path> </svg> 