<?xml version="1.0" encoding="UTF-8"?> <svg xmlns="http://www.w3.org/2000/svg" width="520" height="402" viewBox="0 0 520 402" fill="none"> <path fill-rule="evenodd" clip-rule="evenodd" d="M209.302 363.05C226.79 363.883 239.677 376.796 236.524 385.721C233.37 394.646 218.11 399.745 200.638 398.912C183.151 398.079 179.917 389.941 183.07 381.016C186.208 372.031 191.814 362.217 209.302 363.05Z" fill="#1E2A2C" fill-opacity="0.5"></path> <path fill-rule="evenodd" clip-rule="evenodd" d="M160.02 75.1267L157.261 77.8163H149.017L149.048 61.7091H160.051L160.02 75.1267ZM176.602 48.9563L176.633 35.5386L204.188 22.121L204.157 33.8463L186.924 42.2475L204.126 50.6184L204.095 62.3739L176.602 48.9563ZM235.742 72.4674L216.586 18.7969H228.21L247.365 72.4674H235.742ZM287.318 48.9563L259.763 62.3739L259.794 50.6184L277.027 42.2475L259.856 33.8463L259.887 22.121L287.38 35.5386L287.318 48.9563ZM302.506 28.8298L302.537 18.7666H316.299L327.302 29.4947L327.24 61.7091L316.206 72.4372H302.444L302.475 62.3739H311.68L316.237 57.9316L316.299 33.242L311.773 28.7996H302.506V28.8298ZM376.863 18.7666L387.867 29.4947L387.805 61.7091L376.771 72.4372H349.247L338.243 61.7091L338.305 29.4947L349.34 18.7666H376.863ZM376.771 57.9618L376.832 33.2722L372.307 28.8298H353.865L349.309 33.2722L349.247 57.9618L353.772 62.4041H372.214L376.771 57.9618ZM416.693 62.4041H424.937L424.906 72.4674H397.382L397.413 62.4041H405.658L405.72 28.86H397.475L397.506 21.4864L400.265 18.7969H416.786L416.693 62.4041Z" fill="#4DBDC6" fill-opacity="0.5"></path> <path fill-rule="evenodd" clip-rule="evenodd" d="M165.227 196.218C160.485 299.842 356.345 299.842 351.633 196.218C343.172 11.4534 173.658 11.4534 165.227 196.218Z" fill="#979797"></path> <path fill-rule="evenodd" clip-rule="evenodd" d="M178.432 195.22C174.217 287.24 342.615 287.24 338.43 195.22C330.248 16.4091 186.584 16.4091 178.432 195.22Z" fill="#242424"></path> <path fill-rule="evenodd" clip-rule="evenodd" d="M213.549 156.267C218.973 150.465 217.486 107.372 196.006 111.542C188.908 122.27 181.314 135.597 170.032 143.303C159.493 147.776 158.501 162.251 161.291 167.691C164.081 173.13 174.464 184.311 201.058 168.446C201.12 168.386 208.125 162.07 213.549 156.267Z" fill="#242424"></path> <path fill-rule="evenodd" clip-rule="evenodd" d="M300.522 174.49C290.325 163.641 294.943 109.97 316.423 114.141C316.423 114.141 319.151 118.251 319.863 122.421C320.576 126.591 339.453 158.383 344.04 161.525C354.578 165.998 355.57 180.473 352.78 185.913C349.991 191.352 339.607 202.534 313.013 186.668C312.952 186.608 301.204 175.215 300.522 174.49Z" fill="#242424"></path> <path fill-rule="evenodd" clip-rule="evenodd" d="M300.462 257.262C303.003 237.649 297.424 220.937 297.424 204.165C297.424 191.926 301.609 180.624 307.87 163.308C317.478 136.684 316.424 114.11 316.424 114.11L272.597 87.9699C272.597 87.9699 268.165 86.882 254.372 88.0606C240.579 86.882 233.791 89.3902 233.791 89.3902L196.007 111.511C196.007 111.511 192.412 136.654 202.609 163.278C218.913 205.797 208.809 221.421 208.592 251.883C231.993 262.127 277.308 267.446 300.462 257.262Z" fill="#333333"></path> <path fill-rule="evenodd" clip-rule="evenodd" d="M301.142 246.745C301.173 233.207 298.229 220.937 297.578 208.789C289.674 199.814 289.674 196.459 260.383 196.006C231.093 195.553 208.28 180.594 208.28 180.594C213.735 201.476 211.907 215.196 210.202 230.245C214.138 240.882 219.749 250.855 227.373 254.028C243.677 260.767 276.439 253.575 301.142 246.745Z" fill="#242424"></path> <path fill-rule="evenodd" clip-rule="evenodd" d="M238.067 76.124C238.067 76.124 232.58 76.5169 232.208 78.4207C231.837 80.3246 232.704 91.1433 236.548 93.1983C240.391 95.2533 270.085 91.2038 271.387 89.451C272.719 87.6982 275.199 77.6954 274.579 75.0965C273.959 72.4976 263.917 74.4317 263.917 74.4317L238.067 76.124Z" fill="#333333"></path> <path fill-rule="evenodd" clip-rule="evenodd" d="M239.245 53.7301L236.083 87.2742C236.083 87.2742 265.188 97.5792 273.03 86.3676C273.03 86.3676 266.303 64.4582 270.55 50.013C270.581 50.013 257.067 30.0981 239.245 53.7301Z" fill="#FFB9A1"></path> <path fill-rule="evenodd" clip-rule="evenodd" d="M238.965 56.692L238.376 62.8569C238.407 63.0986 239.802 81.5328 253.812 85.552C259.949 87.3048 266.427 84.9476 271.789 81.7141C270.084 74.5218 267.543 60.4998 270.518 50.1948C270.363 50.0437 270.239 49.953 270.146 49.8926C268.596 49.1975 245.133 52.8843 238.965 56.692Z" fill="#BD7575"></path> <path fill-rule="evenodd" clip-rule="evenodd" d="M272.935 42.7614C272.935 42.7614 273.927 34.2092 277.429 33.9977C280.932 33.7862 280.25 49.712 275.415 53.157C270.579 56.6323 272.935 42.7614 272.935 42.7614Z" fill="#FF7F7F"></path> <path fill-rule="evenodd" clip-rule="evenodd" d="M278.484 35.3872C278.484 35.3872 274.982 39.1647 273.587 48.8955C273.587 48.8955 273.184 39.3158 278.484 35.3872Z" fill="#D67474"></path> <path fill-rule="evenodd" clip-rule="evenodd" d="M274.238 44.484C274.238 44.484 276.78 42.8823 277.214 44.6048C277.617 46.3274 274.641 50.2257 274.641 50.2257C274.641 50.2257 276.966 45.4812 276.346 45.1186C275.726 44.7862 273.959 45.9345 273.959 45.9345L274.238 44.484Z" fill="#D67474"></path> <path fill-rule="evenodd" clip-rule="evenodd" d="M234.937 42.7614C234.937 42.7614 233.728 34.2092 230.226 33.9977C226.723 33.7862 227.777 49.712 232.674 53.157C237.633 56.6323 234.937 42.7614 234.937 42.7614Z" fill="#FF7F7F"></path> <path fill-rule="evenodd" clip-rule="evenodd" d="M229.265 35.3872C229.265 35.3872 232.86 39.1647 234.472 48.8955C234.441 48.8955 234.627 39.3158 229.265 35.3872Z" fill="#D67474"></path> <path fill-rule="evenodd" clip-rule="evenodd" d="M233.696 44.484C233.696 44.484 231.124 42.8823 230.721 44.6048C230.349 46.3274 233.417 50.2257 233.417 50.2257C233.417 50.2257 230.969 45.4812 231.589 45.1186C232.208 44.7862 234.006 45.9345 234.006 45.9345L233.696 44.484Z" fill="#D67474"></path> <path fill-rule="evenodd" clip-rule="evenodd" d="M247.334 75.3381C244.885 73.2529 233.851 56.7831 234.099 54.0633C234.347 51.3133 233.324 45.0578 233.696 42.5798C234.068 40.1017 231.557 29.9479 231.774 25.5962C231.867 23.5715 230.255 13.5384 245.381 7.2527C252.665 4.23071 254.525 4.23072 261.87 7.22249C277.213 13.5082 275.818 23.5715 275.973 25.5962C276.283 29.9176 273.99 40.1017 274.424 42.5798C274.857 45.0578 273.99 51.3435 274.3 54.0633C274.61 56.8133 263.947 73.2529 261.561 75.3381C259.949 76.7584 248.976 76.7584 247.334 75.3381Z" fill="#FFB79F"></path> <path fill-rule="evenodd" clip-rule="evenodd" d="M247.147 75.5497C245.102 73.7969 233.819 57.0551 234.067 54.3353C234.315 51.5853 233.478 44.1814 233.726 42.5798C233.974 40.9781 233.695 40.5248 233.479 38.8929L233.54 38.7116C233.54 38.7116 238.128 51.5248 238.407 52.3106C238.748 53.3078 239.492 54.154 240.545 54.9095C240.855 55.0606 246.032 57.7199 253.285 54.6073L256.384 54.4561C256.384 54.4561 260.94 58.2336 267.883 55.4534C269.34 54.6073 270.394 53.5798 270.797 52.3408L274.733 37.7144C274.671 41.8847 274.702 49.2583 274.268 54.0935C274.578 56.8435 264.257 73.5551 261.901 75.6403C260.29 77.0002 249.162 77.2722 247.147 75.5497Z" fill="#D1A798"></path> <path fill-rule="evenodd" clip-rule="evenodd" d="M233.355 38.2885C232.735 34.2088 231.619 28.5577 231.774 25.5962C231.867 23.5715 230.256 13.5384 245.381 7.2527C252.665 4.23071 254.525 4.23072 261.871 7.22249C277.213 13.5082 275.819 23.5715 275.974 25.5962C276.191 28.5577 275.168 35.1759 274.641 39.2555L274.486 39.6786C274.486 39.6786 270.766 32.9396 270.611 30.9753C270.456 29.011 272.192 26.0192 269.558 22.8764C266.923 19.7335 264.567 16.7417 262.522 16.7417C260.476 16.7417 256.075 20.7912 253.998 20.2775C251.952 20.7912 247.055 16.7417 245.009 16.7417C242.964 16.7417 240.67 19.7335 238.097 22.8764C235.525 26.0192 237.353 29.011 237.229 30.9753C237.105 32.9396 233.479 39.1951 233.479 39.1951L233.355 38.2885Z" fill="#333333"></path> <path fill-rule="evenodd" clip-rule="evenodd" d="M232.457 19.3406C233.666 15.5329 236.858 10.7884 245.382 7.25269C252.666 4.23071 254.526 4.23073 261.872 7.22249C268.908 10.0934 272.441 13.7802 274.177 17.1043C273.216 19.0082 271.79 21.033 269.559 22.8461C266.924 19.7033 264.568 16.7115 262.522 16.7115C260.477 16.7115 256.075 20.761 253.999 20.2472C251.953 20.761 247.056 16.7115 245.01 16.7115C243.243 16.7115 241.322 18.9176 239.183 21.5165C236.424 20.7912 234.1 20.0055 232.457 19.3406Z" fill="#4A4949"></path> <path fill-rule="evenodd" clip-rule="evenodd" d="M239.771 43.3345C239.771 43.3345 240.608 43.3345 241.507 43.546C242.437 43.7576 244.173 45.3894 248.667 43.6065C248.667 43.6065 250.31 44.1202 250.341 43.818C250.341 43.6972 249.69 42.579 248.45 41.8538C247.086 41.4307 244.266 41.0378 242.561 41.6724C241.848 41.9444 240.267 42.8812 239.771 43.3345Z" fill="white"></path> <path fill-rule="evenodd" clip-rule="evenodd" d="M245.041 40.9482C246.25 40.9482 247.241 41.9455 247.241 43.1544C247.241 44.3632 246.281 45.3604 245.072 45.3604C243.863 45.3604 242.871 44.3632 242.871 43.1544C242.871 41.9455 243.863 40.9482 245.041 40.9482Z" fill="#6B5B5B"></path> <path fill-rule="evenodd" clip-rule="evenodd" d="M245.072 41.9751C245.723 41.9751 246.25 42.4886 246.25 43.1532C246.25 43.7876 245.754 44.3314 245.103 44.3314C244.452 44.3314 243.925 43.8178 243.925 43.1532C243.925 42.4886 244.421 41.9751 245.072 41.9751Z" fill="#1A1A1A"></path> <path fill-rule="evenodd" clip-rule="evenodd" d="M244.11 42.791C244.358 42.791 244.575 43.0025 244.575 43.2743C244.575 43.5462 244.358 43.7577 244.11 43.7577C243.862 43.7577 243.646 43.5462 243.646 43.2743C243.646 43.0025 243.831 42.791 244.11 42.791Z" fill="white"></path> <path fill-rule="evenodd" clip-rule="evenodd" d="M244.576 39.2861C244.576 39.2861 241.383 39.5883 239.74 43.5169C240.236 43.0938 241.848 42.1268 242.53 41.8548C244.266 41.2202 247.086 41.613 248.481 42.0361C249.659 42.7009 250.31 43.7284 250.403 43.94C250.31 43.4867 249.411 39.3164 244.576 39.2861Z" fill="#333333"></path> <path fill-rule="evenodd" clip-rule="evenodd" d="M268.907 43.3345C268.907 43.3345 268.07 43.3345 267.172 43.546C266.242 43.7576 264.568 45.3894 260.012 43.6065C260.012 43.6065 258.369 44.1202 258.338 43.818C258.338 43.6972 258.958 42.579 260.198 41.8538C261.561 41.4307 264.351 41.0378 266.087 41.6724C266.769 41.9444 268.411 42.8812 268.907 43.3345Z" fill="white"></path> <path fill-rule="evenodd" clip-rule="evenodd" d="M263.266 40.7671C262.058 40.7671 261.097 41.7644 261.097 42.9732C261.097 44.182 262.089 45.1792 263.297 45.1792C264.506 45.1792 265.467 44.182 265.467 42.9732C265.467 41.7644 264.475 40.7671 263.266 40.7671Z" fill="#6B5B5B"></path> <path fill-rule="evenodd" clip-rule="evenodd" d="M263.296 41.8247C262.645 41.8247 262.149 42.3383 262.149 43.0029C262.149 43.6372 262.676 44.181 263.327 44.181C263.978 44.181 264.474 43.6674 264.474 43.0029C264.443 42.3383 263.916 41.8247 263.296 41.8247Z" fill="#1A1A1A"></path> <path fill-rule="evenodd" clip-rule="evenodd" d="M262.274 42.6704C262.027 42.6704 261.81 42.8819 261.81 43.1537C261.81 43.4256 262.027 43.637 262.274 43.637C262.522 43.637 262.739 43.4256 262.739 43.1537C262.739 42.8819 262.522 42.6704 262.274 42.6704Z" fill="white"></path> <path fill-rule="evenodd" clip-rule="evenodd" d="M264.011 39.2861C264.011 39.2861 267.203 39.5883 268.939 43.5169C268.443 43.0938 266.8 42.1268 266.087 41.8548C264.352 41.2202 261.531 41.613 260.167 42.0361C258.99 42.7009 258.37 43.7284 258.308 43.94C258.37 43.4867 259.175 39.3164 264.011 39.2861Z" fill="#333333"></path> <path fill-rule="evenodd" clip-rule="evenodd" d="M244.792 37.7744C246.683 37.7744 248.387 38.5299 249.627 39.7085C250.867 40.9173 251.642 42.5794 251.673 44.3926C251.704 46.236 250.96 47.8981 249.72 49.0767C248.511 50.2855 246.807 51.0108 244.916 51.0108C243.025 51.0108 241.321 50.2553 240.081 49.0767C238.841 47.8679 238.066 46.2058 238.035 44.3926C238.004 42.5491 238.748 40.8871 239.988 39.7085C241.228 38.5299 242.901 37.7744 244.792 37.7744ZM249.1 40.2524C247.985 39.1947 246.466 38.5299 244.792 38.5299C243.118 38.5299 241.631 39.1947 240.546 40.2524C239.461 41.3101 238.81 42.7909 238.81 44.4228C238.841 46.0547 239.523 47.5355 240.639 48.5932C241.755 49.6509 243.273 50.3157 244.916 50.3157C246.59 50.3157 248.078 49.6509 249.162 48.5932C250.247 47.5355 250.898 46.0547 250.898 44.4228C250.898 42.8212 250.185 41.3404 249.1 40.2524Z" fill="#333333"></path> <path fill-rule="evenodd" clip-rule="evenodd" d="M263.236 37.8354C265.127 37.8354 266.832 38.5909 268.072 39.7695C269.312 40.9783 270.086 42.6404 270.117 44.4536C270.148 46.297 269.404 47.9592 268.165 49.1377C266.956 50.3465 265.251 51.0718 263.36 51.0718C261.47 51.0718 259.765 50.3163 258.525 49.1377C257.285 47.9289 256.51 46.2668 256.479 44.4536C256.448 42.6102 257.192 40.9481 258.432 39.7695C259.672 38.5909 261.377 37.8354 263.236 37.8354ZM267.545 40.3135C266.429 39.2558 264.91 38.5909 263.236 38.5909C261.563 38.5909 260.075 39.2558 258.99 40.3135C257.905 41.3712 257.254 42.852 257.254 44.4839C257.285 46.1158 257.967 47.5965 259.083 48.6542C260.199 49.7119 261.718 50.3768 263.36 50.3768C265.034 50.3768 266.522 49.7119 267.607 48.6542C268.692 47.5965 269.343 46.1158 269.343 44.4839C269.343 42.852 268.661 41.3712 267.545 40.3135Z" fill="#333333"></path> <path fill-rule="evenodd" clip-rule="evenodd" d="M251.579 39.7692C251.641 40.8874 252.323 46.8105 251.672 48.7143C251.053 50.6182 249.968 53.1567 250.495 53.9424C251.053 54.7281 252.292 54.3353 252.757 55.9974C253.222 57.6594 254.927 57.6292 255.764 56.9039C256.601 56.1786 255.702 55.816 257.841 54.2143C259.979 52.6127 257.593 51.7968 256.725 49.1979C255.857 46.599 255.795 42.1869 255.981 40.7968C256.136 39.4369 253.718 37.261 251.579 39.7692Z" fill="#FF7F7F"></path> <path fill-rule="evenodd" clip-rule="evenodd" d="M246.095 59.2906C245.847 59.2906 245.661 59.0792 245.661 58.8073C245.661 58.5354 245.847 58.324 246.095 58.324C246.095 58.324 247.087 58.2938 247.769 58.9281C248.389 59.5323 257.16 59.6229 258.493 59.1396H258.524C259.578 58.7771 260.322 58.5958 260.88 58.5656H260.911C261.686 58.5052 262.12 58.7771 262.275 59.2C262.368 59.4417 262.275 59.7135 262.058 59.8042C261.841 59.8948 261.593 59.774 261.5 59.5323C261.469 59.4719 260.942 59.1396 260.601 59.1698C260.136 59.2 259.795 59.6833 258.834 60.0156H258.803C256.975 60.65 248.792 60.5896 247.49 59.3812C247.025 59.049 246.095 59.2906 246.095 59.2906Z" fill="#947B72"></path> <path fill-rule="evenodd" clip-rule="evenodd" d="M249.752 61.8901C249.752 61.8901 252.356 64.337 259.02 62.2829C259.02 62.2829 253.223 66.9349 249.752 61.8901Z" fill="#947B72"></path> <path fill-rule="evenodd" clip-rule="evenodd" d="M253.318 67.8442C253.318 67.8442 255.58 64.6711 254.371 63.7041C253.132 62.7069 253.318 67.8442 253.318 67.8442Z" fill="#947B72"></path> <path fill-rule="evenodd" clip-rule="evenodd" d="M249.721 36.6569C250.279 37.4728 251.332 38.7119 252.944 39.135C254.556 39.558 259.577 36.2036 259.577 36.2036C259.577 36.2036 252.541 39.9509 249.721 36.6569Z" fill="#FF7F7F"></path> <path fill-rule="evenodd" clip-rule="evenodd" d="M251.055 43.9096C251.055 43.9096 253.906 41.7043 257.037 43.8793L256.603 44.4835C253.937 42.6408 251.551 44.5137 251.52 44.5137L251.055 43.9096Z" fill="#333333"></path> <path fill-rule="evenodd" clip-rule="evenodd" d="M237.759 54.4263C237.759 54.4263 242.656 58.1131 246.19 63.8246C246.19 63.7944 241.881 60.1983 237.759 54.4263Z" fill="#947B72"></path> <path fill-rule="evenodd" clip-rule="evenodd" d="M238.5 43.7887H236.424L232.859 36.0827C232.642 35.7502 232.642 35.4481 232.89 35.3574L236.858 43.003H238.469L238.5 43.7887Z" fill="#333333"></path> <path fill-rule="evenodd" clip-rule="evenodd" d="M269.743 43.7887H271.82L275.229 36.0827C275.415 35.7502 275.415 35.4481 275.167 35.3574L271.355 43.003H269.743V43.7887Z" fill="#333333"></path> <path fill-rule="evenodd" clip-rule="evenodd" d="M241.477 40.3442L245.506 48.1713C245.506 48.1713 241.849 44.7564 241.477 40.3442Z" fill="white"></path> <path fill-rule="evenodd" clip-rule="evenodd" d="M260.29 40.3442L264.319 48.1713C264.319 48.1713 260.662 44.7564 260.29 40.3442Z" fill="white"></path> <path fill-rule="evenodd" clip-rule="evenodd" d="M234.068 79.0852C234.75 79.2968 263.204 85.6127 273.866 76.2144C273.866 76.2144 274.083 89.1484 270.363 92.0193C266.644 94.8902 240.205 96.8545 236.486 93.1979C232.797 89.5413 234.068 79.0852 234.068 79.0852Z" fill="#333333"></path> <path fill-rule="evenodd" clip-rule="evenodd" d="M239.432 82.2589C239.432 82.2589 248.203 87.6682 270.334 80.8989C270.303 80.9291 246.158 97.6105 239.432 82.2589Z" fill="#4A4949"></path> <path fill-rule="evenodd" clip-rule="evenodd" d="M231.061 97.8223C231.061 97.8223 211.255 106.284 209.086 114.897C206.947 123.509 273.184 129.493 296.059 125.564C318.933 121.636 276.749 99.0008 276.749 99.0008C276.749 99.0008 241.569 113.567 231.061 97.8223Z" fill="#4A4949"></path> <path fill-rule="evenodd" clip-rule="evenodd" d="M252.108 39.9503C252.108 39.9503 243.522 36.203 242.034 35.9008C240.546 35.5986 236.207 38.0464 236.207 38.0464C236.207 38.0464 240.329 37.1701 241.817 37.986C243.305 38.7717 252.325 43.3349 252.108 39.9503Z" fill="#333333"></path> <path fill-rule="evenodd" clip-rule="evenodd" d="M255.703 39.6481C255.703 39.6481 264.196 35.8707 265.684 35.5987C267.171 35.3569 271.573 38.7717 271.573 38.7717C271.573 38.7717 267.419 37.3212 265.963 38.1673C264.475 39.0135 255.548 43.758 255.703 39.6481Z" fill="#333333"></path> <path fill-rule="evenodd" clip-rule="evenodd" d="M312.548 150.374L309.449 145.629C309.449 145.629 324.389 150.465 329.72 152.368C335.051 154.272 344.505 154.574 347.852 165.605C351.2 176.635 345.559 183.858 343.637 184.794C341.715 185.731 333.129 185.55 325.659 181.682C318.159 177.814 318.376 168.294 314.842 163.761C311.278 159.198 303.157 153.668 312.548 150.374Z" fill="#FF7F7F"></path> <path fill-rule="evenodd" clip-rule="evenodd" d="M204.034 143.454L208.033 139.404C208.033 139.404 192.411 141.218 186.801 142.033C181.191 142.849 171.861 141.308 166.282 151.462C160.734 161.616 164.763 169.775 166.468 171.075C168.173 172.374 176.604 173.885 184.724 171.528C192.845 169.201 194.612 159.833 199.013 156.086C203.446 152.369 212.558 148.531 204.034 143.454Z" fill="#FF7F7F"></path> <path fill-rule="evenodd" clip-rule="evenodd" d="M207.135 142.759C210.018 145.237 214.419 146.476 219.068 145.72C223.687 144.965 227.437 142.366 229.328 139.102C229.824 138.256 229.607 137.319 228.801 136.745C227.995 136.141 226.848 136.08 225.856 136.564C223.532 137.682 220.804 138.558 217.89 139.042C214.946 139.525 212.125 139.586 209.522 139.283C208.437 139.162 207.352 139.586 206.794 140.401C206.298 141.157 206.391 142.094 207.135 142.759Z" fill="#FF8181"></path> <path fill-rule="evenodd" clip-rule="evenodd" d="M207.197 138.617L219.936 143.029L200.874 159.046L192.722 151.793C191.668 150.071 199.2 141.579 207.197 138.617Z" fill="#FFB9A1"></path> <path fill-rule="evenodd" clip-rule="evenodd" d="M233.945 150.735C231.311 147.955 227.56 145.205 222.942 142.938C218.324 140.642 213.488 139.131 209.087 138.436C207.723 138.224 206.329 138.828 205.802 139.856C205.275 140.883 205.833 142.002 207.072 142.455C210.947 143.845 214.945 145.537 218.944 147.532C222.942 149.526 226.599 151.611 229.823 153.727C230.877 154.422 232.427 154.331 233.48 153.576C234.534 152.79 234.751 151.581 233.945 150.735Z" fill="#FFB9A1"></path> <path fill-rule="evenodd" clip-rule="evenodd" d="M228.088 165.967C226.507 161.827 223.873 157.385 220.246 153.214C216.62 149.044 212.59 145.78 208.654 143.574C207.445 142.909 205.926 143.212 205.12 144.33C204.315 145.418 204.47 146.929 205.492 147.835C208.685 150.676 211.908 153.94 215.039 157.536C218.169 161.132 220.928 164.758 223.284 168.294C224.028 169.442 225.546 169.835 226.786 169.231C227.995 168.657 228.553 167.236 228.088 165.967Z" fill="#FFB9A1"></path> <path fill-rule="evenodd" clip-rule="evenodd" d="M218.633 170.198C214.821 167.781 210.978 164.275 207.63 159.924C204.283 155.572 201.896 150.978 200.563 146.748C200.16 145.448 200.811 144.088 202.082 143.544C203.353 143 204.84 143.484 205.522 144.662C207.661 148.319 210.203 152.097 213.116 155.874C216.03 159.652 219.036 163.097 222.043 166.119C223.004 167.086 223.066 168.597 222.198 169.654C221.33 170.682 219.78 170.924 218.633 170.198Z" fill="#FFB9A1"></path> <path fill-rule="evenodd" clip-rule="evenodd" d="M208.56 167.358C206.142 165.696 203.693 163.308 201.586 160.347C199.478 157.385 198.021 154.333 197.246 151.492C196.998 150.616 197.463 149.739 198.3 149.407C199.137 149.075 200.098 149.437 200.501 150.223C201.834 152.701 203.414 155.239 205.212 157.778C207.041 160.316 208.932 162.674 210.822 164.729C211.442 165.393 211.442 166.391 210.853 167.055C210.295 167.751 209.303 167.871 208.56 167.358Z" fill="#FFB9A1"></path> <path fill-rule="evenodd" clip-rule="evenodd" d="M309.636 149.074C306.288 150.948 301.732 151.28 297.331 149.649C292.96 147.987 289.83 144.723 288.621 141.157C288.311 140.25 288.714 139.374 289.613 138.951C290.512 138.528 291.658 138.679 292.526 139.344C294.572 140.915 297.052 142.275 299.81 143.333C302.569 144.39 305.358 144.995 307.962 145.206C309.047 145.297 310.008 145.932 310.38 146.838C310.814 147.684 310.504 148.591 309.636 149.074Z" fill="#FF8181"></path> <path fill-rule="evenodd" clip-rule="evenodd" d="M310.442 145.025L297.052 146.869L312.425 166.27L321.91 160.77C323.305 159.259 317.695 149.498 310.442 145.025Z" fill="#FFB9A1"></path> <path fill-rule="evenodd" clip-rule="evenodd" d="M281.77 151.643C284.9 149.437 289.146 147.473 294.168 146.143C299.158 144.814 304.21 144.27 308.674 144.451C310.037 144.511 311.308 145.388 311.587 146.506C311.866 147.624 311.122 148.591 309.789 148.803C305.729 149.407 301.452 150.283 297.112 151.462C292.773 152.61 288.775 153.97 285.179 155.391C284.032 155.844 282.482 155.481 281.615 154.514C280.747 153.547 280.809 152.308 281.77 151.643Z" fill="#FFB9A1"></path> <path fill-rule="evenodd" clip-rule="evenodd" d="M284.374 167.72C286.761 163.973 290.263 160.135 294.664 156.781C299.066 153.426 303.715 150.979 308.023 149.619C309.356 149.196 310.782 149.8 311.34 151.039C311.929 152.278 311.464 153.729 310.255 154.424C306.535 156.599 302.723 159.168 298.911 162.069C295.098 164.97 291.658 167.992 288.62 171.014C287.628 171.981 286.11 172.072 284.994 171.226C283.909 170.38 283.63 168.869 284.374 167.72Z" fill="#FFB9A1"></path> <path fill-rule="evenodd" clip-rule="evenodd" d="M292.742 173.704C296.957 172.072 301.451 169.413 305.636 165.786C309.82 162.16 313.106 158.171 315.244 154.273C315.895 153.064 315.554 151.613 314.407 150.828C313.261 150.042 311.711 150.223 310.812 151.251C307.96 154.424 304.675 157.627 301.079 160.74C297.453 163.852 293.795 166.633 290.231 169.02C289.084 169.775 288.712 171.256 289.363 172.465C290.014 173.674 291.471 174.187 292.742 173.704Z" fill="#FFB9A1"></path> <path fill-rule="evenodd" clip-rule="evenodd" d="M303.189 172.918C305.916 171.77 308.799 169.896 311.465 167.418C314.13 164.94 316.207 162.22 317.54 159.591C317.943 158.775 317.695 157.838 316.951 157.324C316.207 156.841 315.184 156.992 314.626 157.687C312.828 159.833 310.752 162.039 308.427 164.184C306.133 166.33 303.778 168.234 301.484 169.896C300.74 170.44 300.523 171.407 300.957 172.193C301.422 172.948 302.352 173.25 303.189 172.918Z" fill="#FFB9A1"></path> <path fill-rule="evenodd" clip-rule="evenodd" d="M471.153 373.155L421.56 169.322H419.174L445.303 276.754L468.921 373.85C469.107 374.636 469.603 375.241 470.223 375.603C470.874 375.966 471.649 376.087 472.455 375.845C473.261 375.633 473.943 375.12 474.376 374.455C474.81 373.79 475.027 372.974 474.903 372.188L445.613 169.292H443.288L472.672 372.702C472.703 372.914 472.641 373.125 472.548 373.276C472.424 373.458 472.269 373.578 472.052 373.639C471.835 373.699 471.649 373.669 471.463 373.578C471.339 373.518 471.215 373.367 471.153 373.155Z" fill="#999999"></path> <path fill-rule="evenodd" clip-rule="evenodd" d="M438.917 174.731C440.219 176.575 442.451 177.784 445.054 177.784C447.689 177.784 450.106 176.575 451.687 174.731H438.917Z" fill="#999999"></path> <path fill-rule="evenodd" clip-rule="evenodd" d="M416.104 174.731C417.406 176.575 419.638 177.784 422.242 177.784C424.876 177.784 427.294 176.575 428.875 174.731H416.104Z" fill="#999999"></path> <path fill-rule="evenodd" clip-rule="evenodd" d="M42.8885 373.155L92.4811 169.322H94.8677L68.7387 276.754L45.1202 373.85C44.9342 374.636 44.4383 375.241 43.8184 375.603C43.1675 375.966 42.3926 376.087 41.5867 375.845C40.7808 375.633 40.099 375.12 39.665 374.455C39.2311 373.79 39.0141 372.974 39.1381 372.188L68.4287 169.292H70.7534L41.3698 372.702C41.3388 372.914 41.4008 373.125 41.4937 373.276C41.6177 373.458 41.7727 373.578 41.9897 373.639C42.2066 373.699 42.3926 373.669 42.5786 373.578C42.7026 373.518 42.8265 373.367 42.8885 373.155Z" fill="#999999"></path> <path fill-rule="evenodd" clip-rule="evenodd" d="M75.1227 174.732C73.8209 176.575 71.5892 177.784 68.9856 177.784C66.351 177.784 63.9333 176.575 62.3525 174.732H75.1227Z" fill="#999999"></path> <path fill-rule="evenodd" clip-rule="evenodd" d="M97.9342 174.732C96.6324 176.575 94.4008 177.784 91.7971 177.784C89.1935 177.784 86.7448 176.575 85.1641 174.732H97.9342Z" fill="#999999"></path> <path fill-rule="evenodd" clip-rule="evenodd" d="M3.77299 398.148L70.01 168.627H72.3967L37.4959 289.598L5.94266 398.933C5.6947 399.81 5.16777 400.505 4.48587 400.928C3.80398 401.351 2.99811 401.472 2.22323 401.23C1.44835 400.988 0.797438 400.414 0.425494 399.659C0.0225545 398.903 -0.101429 397.997 0.0845433 397.12L45.9576 168.658H48.2823L2.28523 397.694C2.22324 397.936 2.28523 398.178 2.37821 398.359C2.4712 398.541 2.65715 398.692 2.84313 398.752C3.0291 398.812 3.24607 398.782 3.43204 398.692C3.58702 398.541 3.711 398.359 3.77299 398.148Z" fill="#1F1F1F"></path> <path fill-rule="evenodd" clip-rule="evenodd" d="M52.2495 174.702C50.7927 176.787 48.4681 178.147 45.8645 178.147C43.2609 178.147 40.9363 176.787 39.4795 174.702H52.2495Z" fill="#1F1F1F"></path> <path fill-rule="evenodd" clip-rule="evenodd" d="M75.0319 174.702C73.5751 176.787 71.2504 178.147 68.6468 178.147C66.0122 178.147 63.7185 176.787 62.2617 174.702H75.0319Z" fill="#1F1F1F"></path> <path fill-rule="evenodd" clip-rule="evenodd" d="M515.228 398.329L448.991 168.809H446.604L481.505 289.779L513.059 399.114C513.306 399.991 513.864 400.686 514.515 401.109C515.197 401.532 516.003 401.653 516.778 401.411C517.553 401.169 518.204 400.595 518.576 399.84C518.979 399.084 519.103 398.178 518.917 397.301L473.044 168.839H470.719L516.747 397.845C516.809 398.087 516.747 398.329 516.654 398.51C516.561 398.691 516.375 398.842 516.189 398.903C516.003 398.963 515.786 398.933 515.6 398.842C515.445 398.721 515.29 398.54 515.228 398.329Z" fill="#1F1F1F"></path> <path fill-rule="evenodd" clip-rule="evenodd" d="M466.781 174.883C468.238 176.968 470.563 178.328 473.166 178.328C475.801 178.328 478.095 176.968 479.551 174.883H466.781Z" fill="#1F1F1F"></path> <path fill-rule="evenodd" clip-rule="evenodd" d="M443.97 174.883C445.427 176.968 447.751 178.328 450.355 178.328C452.989 178.328 455.283 176.968 456.74 174.883H443.97Z" fill="#1F1F1F"></path> <path d="M504.38 165.514H7.95801V174.882H504.38V165.514Z" fill="#999999"></path> <path fill-rule="evenodd" clip-rule="evenodd" d="M194.828 87.2451H252.107H309.387C310.533 87.2451 311.556 88.0913 311.463 89.1187L305.047 161.979C304.954 163.006 304.117 163.853 302.971 163.853H252.107H201.244C200.097 163.853 199.229 163.006 199.167 161.979L192.751 89.1187C192.627 88.0913 193.681 87.2451 194.828 87.2451Z" fill="white"></path> <path fill-rule="evenodd" clip-rule="evenodd" d="M194.55 88.7261H252.077H309.604C310.751 88.7261 311.805 89.5722 311.712 90.5997L305.265 163.792C305.172 164.82 304.304 165.666 303.157 165.666H252.046H200.935C199.788 165.666 198.92 164.82 198.827 163.792L192.38 90.5997C192.38 89.5722 193.403 88.7261 194.55 88.7261Z" fill="#CCCCCC"></path> <path fill-rule="evenodd" clip-rule="evenodd" d="M308.426 128.314L305.295 163.762C305.202 164.789 304.334 165.636 303.187 165.636H252.076H200.965C199.818 165.636 198.95 164.789 198.857 163.762L197.617 149.861L308.426 128.314Z" fill="#999999"></path> <path fill-rule="evenodd" clip-rule="evenodd" d="M246.498 126.44C249.473 124.053 254.371 124.022 257.47 126.41C260.57 128.797 260.663 132.665 257.687 135.053C254.712 137.44 249.814 137.47 246.715 135.083C243.646 132.696 243.522 128.827 246.498 126.44Z" fill="#E6E6E6"></path> <path fill-rule="evenodd" clip-rule="evenodd" d="M189.931 221.391L195.541 212.174C195.541 212.174 239.43 229.097 247.334 231.122C255.238 233.146 279.135 232.361 283.692 230.276C288.248 228.19 315.648 213.715 315.648 213.715L310.658 251.792C310.658 251.792 267.109 284.641 208.404 251.188L189.931 221.391Z" fill="#406782"></path> <path fill-rule="evenodd" clip-rule="evenodd" d="M216.494 295.007L216.339 301.776L215.037 346.562L200.655 349.675L188.753 311.356L216.494 295.007Z" fill="white"></path> <path fill-rule="evenodd" clip-rule="evenodd" d="M215.936 315.194L215.595 327.403C205.057 330.032 195.572 324.773 192.256 322.598L189.404 313.441C193.93 316.402 203.972 321.207 215.936 315.194Z" fill="#D4D2D2"></path> <path fill-rule="evenodd" clip-rule="evenodd" d="M190.675 363.122L188.506 363.001C188.506 363.001 183.113 367.836 181.997 370.828C180.881 373.82 178.618 385.122 180.323 386.996C189.56 397.301 215.875 398.751 223.778 387.902C225.607 385.424 226.692 375.935 226.382 374.787C226.072 373.639 220.338 361.158 220.338 361.158L202.051 363.817L190.675 363.122Z" fill="white"></path> <path fill-rule="evenodd" clip-rule="evenodd" d="M196.844 347.558C196.844 347.558 183.981 332.72 183.578 329.668C183.175 326.646 191.761 332.056 200.254 331.784C208.746 331.512 212.466 324.984 215.41 326.465C218.324 327.946 216.557 347.014 216.557 347.014C216.557 347.014 203.601 344.506 196.844 347.558Z" fill="#333333"></path> <path fill-rule="evenodd" clip-rule="evenodd" d="M190.954 359.314C190.954 359.314 183.546 371.553 183.794 375.029C184.476 385.122 218.354 384.88 221.856 376.63C223.561 372.581 219.47 357.259 219.47 357.259C219.47 357.259 206.762 347.77 190.954 359.314Z" fill="#333333"></path> <path fill-rule="evenodd" clip-rule="evenodd" d="M190.955 359.315C190.955 359.315 190.087 360.856 188.94 363.002C188.971 362.971 206.732 353.12 221.021 364.634C220.277 360.614 219.471 357.23 219.471 357.23C219.471 357.23 206.763 347.771 190.955 359.315Z" fill="#1E2A2C"></path> <path fill-rule="evenodd" clip-rule="evenodd" d="M188.103 371.131C188.103 371.131 191.14 379.562 199.571 380.137C208.002 380.711 217.765 372.974 217.61 371.826C217.424 370.678 214.635 368.562 207.94 368.26C201.245 367.958 188.567 368.864 188.103 371.131Z" fill="#666666"></path> <path fill-rule="evenodd" clip-rule="evenodd" d="M188.506 363.001C188.506 363.001 198.053 354.993 205.677 355.083C213.302 355.174 220.617 360.765 220.617 360.765C220.617 360.765 222.663 347.135 212.156 344.234C201.617 341.333 194.023 345.655 191.637 348.677C189.188 351.729 187.08 356.564 188.506 363.001Z" fill="#666666"></path> <path fill-rule="evenodd" clip-rule="evenodd" d="M304.213 363.008C325.637 363.467 349 374.585 349 386.377C349 391.82 343.682 400.417 322.259 399.984C300.835 399.525 291.664 391.214 295.517 386.377C299.37 381.514 282.79 362.549 304.213 363.008Z" fill="#1E2A2C" fill-opacity="0.5"></path> <path fill-rule="evenodd" clip-rule="evenodd" d="M195.354 349.523L194.549 355.809C194.487 356.262 194.053 356.776 193.526 356.988L190.178 358.287C189.899 358.408 189.651 358.408 189.434 358.317C189.248 358.227 189.155 358.045 189.155 357.773L189.372 354.479C189.403 354.207 189.527 353.966 189.744 353.694L193.681 349.402C194.022 349.04 194.456 348.828 194.827 348.858C195.199 348.919 195.416 349.161 195.354 349.523Z" fill="#333333"></path> <path fill-rule="evenodd" clip-rule="evenodd" d="M199.973 336.952L204.839 340.458C205.056 340.609 205.304 340.699 205.521 340.669C205.738 340.639 205.893 340.518 205.924 340.306L206.916 336.257C206.978 336.015 206.885 335.743 206.637 335.501C206.389 335.26 206.11 335.139 205.831 335.169L199.973 335.743C199.694 335.774 199.508 335.955 199.508 336.227C199.539 336.468 199.694 336.741 199.973 336.952Z" fill="#5DA5B0"></path> <path fill-rule="evenodd" clip-rule="evenodd" d="M194.363 350.853L193.805 355.114C193.774 355.416 193.464 355.779 193.092 355.93L190.829 356.807C190.643 356.897 190.457 356.897 190.333 356.837C190.209 356.776 190.147 356.655 190.147 356.474L190.302 354.238C190.302 354.057 190.395 353.875 190.55 353.724L193.216 350.823C193.433 350.581 193.743 350.43 193.991 350.46C194.27 350.43 194.394 350.581 194.363 350.853Z" fill="#5DA5B0"></path> <path fill-rule="evenodd" clip-rule="evenodd" d="M177.13 223.627C174.093 269.29 166.344 270.378 188.505 318.881C188.505 318.881 203.786 327.372 219.284 315.164C215.1 290.655 223.623 277.328 211.628 249.707C209.551 244.932 210.76 230.155 209.768 224.987C206.049 217.372 199.943 211.267 189.28 211.479C178.618 211.691 177.13 223.627 177.13 223.627Z" fill="#5B9ECA"></path> <path fill-rule="evenodd" clip-rule="evenodd" d="M184.382 309.603C185.622 312.504 186.985 315.556 188.504 318.85C188.504 318.85 203.785 327.342 219.283 315.133C218.539 310.721 218.198 306.702 218.074 302.864L217.485 303.408C199.415 320.029 184.475 309.663 184.382 309.603Z" fill="#477A9B"></path> <path fill-rule="evenodd" clip-rule="evenodd" d="M177.13 223.627C176.262 236.531 175.023 245.9 174.217 253.757C174.217 253.757 179.083 227.193 214.976 258.622C214.108 255.812 212.992 252.85 211.628 249.707C209.551 244.933 210.76 230.155 209.768 224.987C206.049 217.372 199.943 211.267 189.28 211.479C178.618 211.691 177.13 223.627 177.13 223.627Z" fill="#477A9B"></path> <path fill-rule="evenodd" clip-rule="evenodd" d="M298.787 295.007L298.942 301.776L300.244 346.562L314.626 349.675L326.528 311.356L298.787 295.007Z" fill="white"></path> <path fill-rule="evenodd" clip-rule="evenodd" d="M298.88 298.935L298.942 301.776L299.438 319.605C302.599 321.449 309.387 325.045 314.935 325.649C317.973 325.982 319.306 329.155 319.802 332.842L326.466 311.355L305.203 298.814C302.878 298.603 300.709 298.602 298.88 298.935Z" fill="#D4D2D2"></path> <path fill-rule="evenodd" clip-rule="evenodd" d="M324.42 363.123L326.59 363.002C326.59 363.002 331.921 367.837 333.037 370.829C334.122 373.82 336.292 385.153 335.021 387.359C327.52 400.263 296.773 397.876 289.83 386.694C288.218 384.095 288.311 375.966 288.652 374.848C288.993 373.7 294.82 361.219 294.82 361.219L313.107 363.878L324.42 363.123Z" fill="white"></path> <path fill-rule="evenodd" clip-rule="evenodd" d="M318.437 347.558C318.437 347.558 328.015 332.72 327.736 329.668C327.457 326.646 320.08 332.056 311.525 331.784C303.002 331.512 297.795 324.984 295.191 326.465C292.587 327.946 298.6 347.014 298.6 347.014C298.6 347.014 310.999 344.506 318.437 347.558Z" fill="#333333"></path> <path fill-rule="evenodd" clip-rule="evenodd" d="M324.203 359.314C324.203 359.314 331.053 371.553 331.208 375.029C332.014 391.257 293.828 386.15 293.115 376.63C292.805 372.279 295.688 357.259 295.688 357.259C295.688 357.259 308.489 347.77 324.203 359.314Z" fill="#333333"></path> <path fill-rule="evenodd" clip-rule="evenodd" d="M324.203 359.315C324.203 359.315 325.071 360.856 326.186 363.002C326.155 362.971 308.488 353.12 294.075 364.634C294.85 360.614 295.687 357.23 295.687 357.23C295.687 357.23 308.488 347.771 324.203 359.315Z" fill="#1E2A2C"></path> <path fill-rule="evenodd" clip-rule="evenodd" d="M326.899 371.131C326.899 371.131 323.768 379.562 315.307 380.137C306.845 380.711 297.205 372.974 297.391 371.826C297.577 370.678 300.398 368.562 307.093 368.26C313.788 367.958 326.496 368.864 326.899 371.131Z" fill="#666666"></path> <path fill-rule="evenodd" clip-rule="evenodd" d="M326.589 363.001C326.589 363.001 317.012 356.806 309.387 356.897C301.762 356.987 294.54 360.765 294.54 360.765C294.54 360.765 290.728 346.199 301.266 343.298C311.804 340.397 321.289 345.625 323.645 348.677C326 351.729 328.077 356.564 326.589 363.001Z" fill="#666666"></path> <path fill-rule="evenodd" clip-rule="evenodd" d="M319.863 349.523L320.607 355.809C320.669 356.262 321.103 356.776 321.63 356.988L324.977 358.287C325.256 358.408 325.504 358.408 325.721 358.317C325.907 358.227 326.031 358.045 326 357.773L325.814 354.479C325.814 354.207 325.659 353.966 325.442 353.694L321.537 349.402C321.196 349.04 320.762 348.828 320.39 348.858C320.018 348.919 319.801 349.161 319.863 349.523Z" fill="#333333"></path> <path fill-rule="evenodd" clip-rule="evenodd" d="M317.104 338.765L313.012 342.271C312.826 342.422 312.609 342.512 312.361 342.482C312.144 342.452 311.958 342.331 311.865 342.12L309.975 338.07C309.851 337.828 309.913 337.556 310.099 337.315C310.285 337.073 310.564 336.952 310.843 336.982L316.825 337.556C317.104 337.587 317.321 337.768 317.383 338.04C317.445 338.282 317.321 338.554 317.104 338.765Z" fill="#5DA5B0"></path> <path fill-rule="evenodd" clip-rule="evenodd" d="M320.823 350.853L321.319 355.114C321.35 355.416 321.66 355.779 322.001 355.93L324.264 356.807C324.45 356.897 324.636 356.897 324.76 356.837C324.884 356.776 324.977 356.655 324.946 356.474L324.822 354.238C324.822 354.057 324.729 353.875 324.574 353.724L321.908 350.823C321.691 350.581 321.381 350.43 321.133 350.46C320.947 350.43 320.792 350.581 320.823 350.853Z" fill="#5DA5B0"></path> <path fill-rule="evenodd" clip-rule="evenodd" d="M338.151 223.627C341.188 269.29 348.937 270.378 326.775 318.881C326.775 318.881 311.495 327.372 295.997 315.164C300.181 290.655 291.658 277.328 303.653 249.707C305.73 244.932 304.521 230.155 305.513 224.987C309.232 217.372 315.338 211.267 326 211.479C336.663 211.691 338.151 223.627 338.151 223.627Z" fill="#5B9ECA"></path> <path fill-rule="evenodd" clip-rule="evenodd" d="M330.991 309.361C329.72 312.322 328.325 315.495 326.775 318.88C326.775 318.88 311.495 327.372 295.997 315.163C296.803 310.449 297.144 306.127 297.237 302.047C297.237 302.047 306.194 318.91 330.991 309.361Z" fill="#477A9B"></path> <path fill-rule="evenodd" clip-rule="evenodd" d="M338.15 223.627C338.522 229.399 338.987 234.446 339.452 238.979C329.13 220.998 304.551 245.93 304.551 245.93C305.357 239.553 304.737 229.158 305.512 224.987C309.231 217.372 315.337 211.267 326 211.479C336.662 211.691 338.15 223.627 338.15 223.627Z" fill="#477A9B"></path> <path fill-rule="evenodd" clip-rule="evenodd" d="M320.204 233.298C320.204 233.298 325.938 243.21 328.945 240.974C331.951 238.738 335.361 230.85 335.361 230.85C335.361 230.85 333.532 241.85 328.418 243.815C323.304 245.779 320.204 233.298 320.204 233.298Z" fill="#477A9B"></path> <path fill-rule="evenodd" clip-rule="evenodd" d="M197.679 233.298C197.679 233.298 191.945 243.21 188.939 240.974C185.932 238.738 182.522 230.85 182.522 230.85C182.522 230.85 184.351 241.85 189.465 243.815C194.611 245.779 197.679 233.298 197.679 233.298Z" fill="#406782"></path> <path fill-rule="evenodd" clip-rule="evenodd" d="M207.443 230.91C207.443 230.97 206.204 248.8 210.884 257.443C212.961 261.281 214.2 266.871 214.851 272.643C215.688 280.168 215.533 288.025 214.882 292.8C213.735 301.11 216.401 313.712 216.401 313.742L215.533 313.924C215.533 313.894 212.837 301.141 214.014 292.709C214.665 287.995 214.82 280.198 213.983 272.734C213.332 267.053 212.124 261.553 210.109 257.836C205.336 248.981 206.576 230.91 206.576 230.879L207.443 230.91Z" fill="#477A9B"></path> <path fill-rule="evenodd" clip-rule="evenodd" d="M312.518 230.336C312.518 230.366 308.457 243.028 308.643 251.308C308.736 255.781 307.682 258.229 306.535 260.827C305.544 263.124 304.49 265.542 304.149 269.682C303.467 278.506 300.894 309.723 300.894 309.814L300.026 309.754C300.026 309.663 302.599 278.476 303.281 269.621C303.622 265.36 304.707 262.852 305.73 260.495C306.814 257.987 307.837 255.63 307.744 251.338C307.558 242.907 311.65 230.124 311.65 230.094L312.518 230.336Z" fill="#477A9B"></path> <path d="M154.719 148.894H58.4785V165.484H154.719V148.894Z" fill="white"></path> <path d="M98.7435 153.789H64.4316V163.127H98.7435V153.789Z" fill="#242424"></path> <path d="M159.37 148.894H117.867V165.484H159.37V148.894Z" fill="#242424"></path> <path d="M440.405 148.894H370.324V165.484H440.405V148.894Z" fill="#999999"></path> <path d="M434.423 152.762H385.637V162.1H434.423V152.762Z" fill="#242424"></path> <path d="M381.017 148.894H363.35V165.484H381.017V148.894Z" fill="#242424"></path> <path d="M398.747 155.603H389.2V159.259H398.747V155.603Z" fill="#8AFBFF"></path> <path d="M403.645 155.603H401.754V159.259H403.645V155.603Z" fill="#8AFBFF"></path> <path d="M430.051 155.603H428.16V159.259H430.051V155.603Z" fill="#8AFBFF"></path> <path d="M73.3273 155.603H66.6943V159.259H73.3273V155.603Z" fill="#8AFBFF"></path> <path d="M77.4494 155.603H75.5586V157.445H77.4494V155.603Z" fill="#8AFBFF"></path> <path d="M80.7969 155.603H78.9062V157.445H80.7969V155.603Z" fill="#8AFBFF"></path> <path d="M95.7354 155.603H93.8447V157.445H95.7354V155.603Z" fill="#8AFBFF"></path> <path fill-rule="evenodd" clip-rule="evenodd" d="M82.2535 157.899C82.8114 158.533 277.958 384.095 409.254 157.022L410.773 157.869C278.206 387.087 81.4786 159.682 80.8896 159.017L82.2535 157.899Z" fill="#242424"></path> <path fill-rule="evenodd" clip-rule="evenodd" d="M90.8397 159.108C91.5216 159.621 330.806 344.053 417.748 157.838L419.329 158.533C331.457 346.743 90.4368 160.951 89.7549 160.437L90.8397 159.108Z" fill="#242424"></path> <path d="M139.316 145.056H69.1113V149.256H139.316V145.056Z" fill="#242424"></path> <path fill-rule="evenodd" clip-rule="evenodd" d="M306.288 24.2666L305.11 25.4149H301.546L301.577 18.4946H306.319L306.288 24.2666ZM313.417 12.9945V7.22256L325.288 1.45054V6.49727L317.881 10.1237L325.288 13.7198V18.7666L313.417 12.9945ZM338.895 23.1182L330.651 0H335.641L343.886 23.1182H338.895ZM361.088 12.9945L349.217 18.7666V13.7198L356.625 10.1237L349.217 6.49727V1.45054L361.057 7.22256L361.088 12.9945ZM367.628 4.32143V0H373.548L378.29 4.62365L378.259 18.4946L373.517 23.1182H367.597V18.7968H371.564L373.517 16.8929L373.548 6.2555L371.595 4.35163H367.628V4.32143ZM399.646 0L404.389 4.62365L404.357 18.4946L399.615 23.1182H387.775L383.033 18.4946L383.064 4.62365L387.806 0H399.646ZM399.584 16.8627L399.615 6.2253L397.662 4.32143H389.728L387.775 6.2253L387.744 16.8627L389.697 18.7666H397.631L399.584 16.8627ZM416.787 18.7666H420.351V23.088H408.511V18.7666H412.075L412.106 4.32143H408.542V1.14833L409.72 0H416.818L416.787 18.7666Z" fill="#242424" fill-opacity="0.5"></path> <path fill-rule="evenodd" clip-rule="evenodd" d="M57.612 106.465C58.1389 106.586 58.6038 106.979 58.7588 107.553L70.3821 144.844C70.63 145.691 70.1651 146.567 69.2972 146.809C68.4293 147.05 67.5305 146.597 67.2515 145.751L55.6283 108.46C55.4423 107.916 55.5973 107.342 55.9692 106.949C55.5353 107.07 55.1014 106.828 54.9774 106.405C54.8534 105.982 55.1014 105.528 55.5043 105.407L57.0541 104.954C57.488 104.833 57.9529 105.075 58.0769 105.468C58.2629 105.891 58.0459 106.344 57.612 106.465Z" fill="#242424"></path> <path fill-rule="evenodd" clip-rule="evenodd" d="M108.908 107.039H133.333V116.437H137.734C137.982 116.437 138.261 116.467 138.571 116.467C140.492 116.648 142.166 117.525 143.375 118.824C144.553 120.124 145.266 121.846 145.266 123.72C145.266 123.962 145.266 124.234 145.235 124.536L144.181 134.478C143.964 136.624 142.848 138.588 141.267 139.978C139.687 141.399 137.579 142.275 135.378 142.275H133.394V146.627H108.97V107.039H108.908ZM133.333 119.64V139.072H135.316C136.68 139.072 138.013 138.528 139.005 137.621C140.027 136.714 140.709 135.506 140.864 134.146L141.918 124.203L141.949 123.72C141.949 122.632 141.577 121.665 140.895 120.94C140.244 120.214 139.284 119.731 138.199 119.64L137.703 119.61H133.333V119.64Z" fill="#242424"></path> </svg> 