<?xml version="1.0" encoding="UTF-8"?> <svg xmlns="http://www.w3.org/2000/svg" width="519" height="404" viewBox="0 0 519 404" fill="none"> <path fill-rule="evenodd" clip-rule="evenodd" d="M140.258 119.609L136.867 122.915H126.664L126.695 103.049H140.288L140.258 119.609ZM160.724 87.2942L160.755 70.7349L194.784 54.1755L194.754 68.6798L173.493 79.0443L194.723 89.4088L194.693 103.913L160.724 87.2942ZM233.732 116.303L210.089 50.0356H224.446L248.089 116.303H233.732ZM297.423 87.2942L263.394 103.854L263.424 89.3493L284.685 78.9847L263.485 68.6203L263.516 54.1159L297.454 70.6753L297.423 87.2942ZM316.149 62.4552L316.179 50.0356H333.164L346.727 63.2891L346.635 103.049L333.011 116.303H316.027L316.057 103.883H327.451L333.072 98.4033L333.133 67.9353L327.543 62.4552H316.149ZM407.913 50.0356L421.476 63.2891L421.384 103.049L407.76 116.303H373.791L360.228 103.049L360.32 63.2891L373.944 50.0356H407.913ZM407.821 98.4033L407.882 67.9353L402.292 62.4552H379.534L373.914 67.9353L373.822 98.4033L379.412 103.883H402.17L407.821 98.4033ZM457.063 103.854H467.266L467.235 116.273H433.267L433.297 103.854H443.5L443.592 62.4254H433.389L433.42 53.3118L436.81 50.0059H457.185L457.063 103.854Z" fill="#4DBDC6" fill-opacity="0.3"></path> <path fill-rule="evenodd" clip-rule="evenodd" d="M141.51 376.547C175.051 376.963 197.35 380.925 191.302 385.392C185.253 389.86 153.179 393.166 119.668 392.749C86.1276 392.332 63.8281 388.37 69.8764 383.903C75.8942 379.406 107.969 376.13 141.51 376.547Z" fill="#1E2A2C" fill-opacity="0.5"></path> <path fill-rule="evenodd" clip-rule="evenodd" d="M212.686 126.697L184.124 163.21L203.369 185.25C203.369 185.25 236.116 153.68 238.132 140.367C240.178 127.054 228.631 106.116 212.686 126.697Z" fill="#FF7F7F"></path> <path fill-rule="evenodd" clip-rule="evenodd" d="M263.7 306.795C264.342 308.761 274.942 328.328 268.038 350.963C268.038 350.963 288.749 355.282 289.085 353.971C289.421 352.661 294.247 321.865 301.976 302.238C301.976 302.238 276.683 292.767 263.7 306.795Z" fill="#FFBE3B"></path> <path fill-rule="evenodd" clip-rule="evenodd" d="M263.7 306.795C263.975 307.659 266.236 312.007 268.038 318.529C271.184 322.103 275.491 324.188 281.265 324.277C287.497 324.367 292.262 323.235 296.019 321.24C297.73 314.628 299.746 307.956 301.976 302.238C301.976 302.238 276.683 292.767 263.7 306.795Z" fill="#F27A19"></path> <path fill-rule="evenodd" clip-rule="evenodd" d="M282.883 353.703C286.304 354.21 288.962 354.448 289.084 354.001C289.42 352.691 294.246 321.895 301.975 302.268C301.975 302.268 299.562 301.374 295.835 300.541C293.483 303.489 291.375 307.808 289.878 314.092C289.664 314.836 285.571 338.335 282.883 353.703Z" fill="#F27A19"></path> <path fill-rule="evenodd" clip-rule="evenodd" d="M317.127 64.7779C349.751 63.1696 379.596 141.261 354.883 204.788C311.659 315.908 94.2847 286.929 197.901 177.387C269.657 101.53 284.503 66.3861 317.127 64.7779Z" fill="#C45858"></path> <path fill-rule="evenodd" clip-rule="evenodd" d="M314.804 66.6538C344.038 65.2242 363.924 146.949 341.808 203.834C303.074 303.369 108.366 277.428 201.199 179.293C265.44 111.328 285.57 68.0833 314.804 66.6538Z" fill="#663636"></path> <path fill-rule="evenodd" clip-rule="evenodd" d="M253.649 39.0459C253.649 39.0459 236.665 49.1423 259.056 57.4518L253.649 39.0459Z" fill="white"></path> <path fill-rule="evenodd" clip-rule="evenodd" d="M238.987 104.3L233.458 101.708L193.105 141.856C193.105 141.856 190.264 152.786 217.909 165.146L238.987 104.3Z" fill="white"></path> <path fill-rule="evenodd" clip-rule="evenodd" d="M253.222 37.2588C253.222 37.2588 236.238 47.3552 258.629 55.6647L253.222 37.2588Z" fill="#FFE3E3"></path> <path fill-rule="evenodd" clip-rule="evenodd" d="M252.887 27.9067C252.887 27.9067 238.56 38.0031 255.85 46.3126L252.887 27.9067Z" fill="white"></path> <path fill-rule="evenodd" clip-rule="evenodd" d="M90.6808 376.547L152.753 174.529H154.983L122.267 281.033L92.6969 377.262C92.4525 378.036 91.9638 378.632 91.3223 379.019C90.7113 379.377 89.9476 379.496 89.2145 379.257C88.4814 379.049 87.8704 378.543 87.5038 377.887C87.1373 377.232 87.0151 376.428 87.1678 375.654L130.148 174.559H132.317L89.2145 376.16C89.184 376.368 89.2145 376.577 89.3061 376.726C89.3978 376.904 89.5505 377.024 89.7338 377.083C89.9171 377.143 90.1309 377.113 90.2836 377.024C90.4975 376.904 90.6197 376.756 90.6808 376.547Z" fill="#1F1F1F"></path> <path fill-rule="evenodd" clip-rule="evenodd" d="M252.611 24.8096C252.611 24.8096 246.746 34.3103 257.499 38.8374C257.499 38.8374 252.794 34.7273 252.611 24.8096Z" fill="#FFE3E3"></path> <path fill-rule="evenodd" clip-rule="evenodd" d="M287.527 32.8212L286.366 37.8843C286.366 37.8843 295.958 56.1115 293.27 73.6835C290.582 91.2555 306.558 74.3983 311.904 69.3947C317.28 64.3912 324.581 68.4417 324.581 68.4417C324.581 68.4417 320.457 59.1494 308.36 62.0383C319.877 56.5881 323.451 65.4336 329.804 51.8227C318.105 54.9202 321.832 44.6748 307.627 46.4618C307.627 46.4618 313.614 42.6793 323.848 48.1296C323.848 48.1296 321.312 41.488 311.659 39.2245C311.659 39.2245 318.227 38.748 322.381 41.3689C317.005 31.749 307.871 23.5289 301.823 22.0993C292.14 19.806 286.488 28.9791 287.527 32.8212Z" fill="white"></path> <path fill-rule="evenodd" clip-rule="evenodd" d="M297.881 54.0561C297.729 54.6518 297.881 95.8417 297.881 95.8417C297.881 95.8417 263.119 99.7135 263.18 98.9093C263.18 98.7604 263.455 97.4202 263.974 95.3056C266.418 85.5368 273.169 59.3277 273.169 59.3277C273.169 59.3277 284.135 49.3206 297.881 54.0561Z" fill="#FFB79F"></path> <path fill-rule="evenodd" clip-rule="evenodd" d="M264.799 92.0294C265.257 90.2126 265.807 88.0682 266.387 85.8047C269.32 74.4872 273.199 59.3574 273.199 59.3574C273.199 59.3574 282.089 51.1969 293.91 53.0732C294.338 55.2176 294.521 57.7789 294.491 60.8466C293.819 99.6538 264.799 92.0294 264.799 92.0294Z" fill="#FF7F7F"></path> <path fill-rule="evenodd" clip-rule="evenodd" d="M254.627 48.0696L253.833 52.537C253.833 52.537 255.605 54.9494 254.719 58.2554C254.169 60.2806 256.552 68.0837 259.729 75.3508C262.142 80.8308 265.563 84.1665 270.481 84.6133C272.803 84.8218 275.949 84.3453 279.707 81.8137C282.639 79.8182 288.412 73.6532 294.583 64.5991C294.583 64.5991 295.041 59.4467 298.157 57.0342C301.273 54.6218 304.48 44.2573 301.059 34.3396C295.683 18.7333 268.373 20.5798 257.499 31.4804C253.344 35.6798 253.65 42.7682 254.627 48.0696Z" fill="#FFB79F"></path> <path fill-rule="evenodd" clip-rule="evenodd" d="M265.319 31.6597L263.7 34.1913C263.7 34.1913 277.049 27.2816 283.861 32.7319C290.673 38.1822 291.071 39.0757 291.132 38.8672C291.162 38.6587 291.498 28.4729 288.749 27.6688C286.03 26.8944 269.962 24.9883 265.319 31.6597Z" fill="#FF7F7F"></path> <path fill-rule="evenodd" clip-rule="evenodd" d="M296.721 58.6423C297.149 58.0466 297.638 57.4807 298.218 57.034C301.334 54.6215 304.542 44.257 301.12 34.3393C300.998 33.9521 300.845 33.5947 300.693 33.2373L300.601 33.2075L288.474 38.3898C288.443 38.3898 288.657 54.979 296.721 58.6423Z" fill="#FF7F7F"></path> <path fill-rule="evenodd" clip-rule="evenodd" d="M273.383 65.4634C273.383 65.4634 266.388 75.1428 259.393 66.5951C259.362 66.5654 265.869 68.8586 273.383 65.4634Z" fill="#FF7F7F"></path> <path fill-rule="evenodd" clip-rule="evenodd" d="M256.003 55.8134C256.003 55.8134 257.622 52.6564 259.944 52.8947C262.265 53.1627 263.64 55.3964 263.64 55.3964C263.64 55.3964 259.913 57.1536 256.003 55.8134Z" fill="white"></path> <path fill-rule="evenodd" clip-rule="evenodd" d="M260.064 52.7755C261.072 52.7457 262.019 53.7881 262.141 55.0986C262.293 56.4091 261.591 57.4812 260.583 57.4812C259.575 57.511 258.628 56.4686 258.506 55.1581C258.322 53.8775 259.025 52.8053 260.064 52.7755Z" fill="#80A2C4"></path> <path fill-rule="evenodd" clip-rule="evenodd" d="M260.155 53.7881C260.736 53.7881 261.286 54.3837 261.377 55.1283C261.469 55.8729 261.041 56.4983 260.461 56.5281C259.88 56.5281 259.331 55.9325 259.239 55.1879C259.147 54.4135 259.575 53.7881 260.155 53.7881Z" fill="#1F1F1F"></path> <path fill-rule="evenodd" clip-rule="evenodd" d="M259.361 54.7104C259.575 54.7104 259.759 54.9189 259.789 55.1868C259.82 55.4548 259.667 55.6632 259.453 55.6632C259.239 55.6632 259.056 55.4548 259.025 55.1868C259.025 54.9189 259.148 54.7104 259.361 54.7104Z" fill="white"></path> <path fill-rule="evenodd" clip-rule="evenodd" d="M270.146 53.6985C270.787 51.7329 272.681 48.0696 275.552 48.0398C278.76 48.01 281.051 50.7203 281.692 51.6435C280.287 50.5118 278.057 49.2013 275.43 49.4098C273.048 49.6481 271.306 51.7329 270.146 53.6985Z" fill="#FF7F7F"></path> <path fill-rule="evenodd" clip-rule="evenodd" d="M269.932 55.0688C269.932 55.0688 271.978 51.614 275.827 51.6437C279.646 51.6735 282.303 53.7286 282.303 53.7286C282.303 53.7286 276.591 56.1708 269.932 55.0688Z" fill="white"></path> <path fill-rule="evenodd" clip-rule="evenodd" d="M274.422 51.6138C275.583 51.4946 276.744 52.537 277.08 53.9666C277.385 55.3962 276.713 56.6769 275.583 56.796C274.422 56.9151 273.261 55.8727 272.925 54.4432C272.589 52.9838 273.261 51.7329 274.422 51.6138Z" fill="#80A2C4"></path> <path fill-rule="evenodd" clip-rule="evenodd" d="M274.667 52.6858C275.339 52.5964 276.011 53.2218 276.194 54.0557C276.377 54.8897 275.98 55.6343 275.308 55.6938C274.636 55.7832 273.964 55.1577 273.781 54.3238C273.598 53.4899 273.995 52.7751 274.667 52.6858Z" fill="#1F1F1F"></path> <path fill-rule="evenodd" clip-rule="evenodd" d="M273.659 53.7875C273.903 53.7577 274.148 53.9661 274.209 54.2639C274.27 54.5616 274.148 54.8295 273.903 54.8295C273.659 54.8592 273.415 54.6509 273.353 54.3532C273.292 54.0852 273.445 53.8173 273.659 53.7875Z" fill="white"></path> <path fill-rule="evenodd" clip-rule="evenodd" d="M256.063 54.0562C256.766 53.1329 258.446 51.1374 260.31 51.4054C262.356 51.6735 263.487 53.5498 263.792 54.0859C263.059 53.3711 261.806 52.5074 260.065 52.3883C258.477 52.2691 257.072 53.1627 256.063 54.0562Z" fill="#FF7F7F"></path> <path fill-rule="evenodd" clip-rule="evenodd" d="M256.245 55.337C256.826 54.1755 258.475 52.3587 260.247 52.6565C263.118 52.9544 263.882 54.4733 264.218 55.1285C262.019 54.2052 259.33 52.8948 256.245 55.337Z" fill="#1D1D1D"></path> <path fill-rule="evenodd" clip-rule="evenodd" d="M270.236 54.4728C270.908 53.073 273.352 50.8989 276.468 51.0478C279.584 51.2265 281.6 53.0432 282.272 53.758C279.645 52.0902 272.558 52.2689 270.236 54.4728Z" fill="#1D1D1D"></path> <path fill-rule="evenodd" clip-rule="evenodd" d="M263.883 51.107C263.883 51.107 256.154 49.7072 253.863 52.5069C252.764 49.0222 254.046 46.4907 260.889 48.4861C261.897 48.784 262.783 47.3842 263.699 47.682C264.249 47.8607 263.791 50.3029 263.883 51.107Z" fill="#1D1D1D"></path> <path fill-rule="evenodd" clip-rule="evenodd" d="M86.8008 373.836L84.2653 372.466C84.2653 372.466 83.7766 381.699 87.2895 384.707C90.7719 387.715 104.64 389.443 112.094 389.175C119.578 388.907 135.615 384.618 145.696 385.124C155.776 385.63 167.812 384.588 168.82 384.111C169.828 383.635 168.515 374.372 168.026 373.598C167.568 372.824 166.743 372.496 166.743 372.496C166.743 372.496 132.683 377.053 86.8008 373.836Z" fill="white"></path> <path fill-rule="evenodd" clip-rule="evenodd" d="M128.59 320.257C128.59 320.257 137.082 346.049 136.929 361.417C136.929 361.417 148.782 374.73 157.976 361.834C157.976 361.834 155.319 330.294 156.724 322.52C156.693 322.52 148.568 331.098 128.59 320.257Z" fill="#FFBE3B"></path> <path fill-rule="evenodd" clip-rule="evenodd" d="M136.714 356.205C136.867 358.022 136.958 359.779 136.928 361.417C136.928 361.417 148.78 374.73 157.944 361.834C157.944 361.834 156.325 322.074 157.73 314.3C157.73 314.3 153.454 321.001 139.738 316.504C144.381 322.461 158.372 346.526 149.635 358.766C147.589 361.655 137.355 354.984 137.355 354.984C137.355 354.984 137.111 355.431 136.714 356.205Z" fill="#F27A19"></path> <path fill-rule="evenodd" clip-rule="evenodd" d="M84.2646 372.467L125.992 344.947C125.992 344.947 143.618 364.932 150.125 362.698C156.631 360.464 156.173 352.214 159.258 352.512C162.343 352.78 166.834 366.689 166.742 373.747C166.742 373.747 163.138 376.19 142.518 376.517C121.899 376.845 110.535 381.848 99.7827 380.121C89.03 378.394 84.9672 376.517 84.2646 372.467Z" fill="#203952"></path> <path fill-rule="evenodd" clip-rule="evenodd" d="M124.557 343.161L89.916 368.595C89.916 368.595 95.2618 373.658 104.762 372.884C114.262 372.11 139.189 359.571 139.952 357.337C140.716 355.103 138.15 349.981 136.012 347.449C133.874 344.918 132.438 342.654 130.697 342.267C128.955 341.88 127.153 341.88 124.557 343.161Z" fill="#30567D"></path> <path fill-rule="evenodd" clip-rule="evenodd" d="M125.351 342.058L97.3086 362.668C99.0498 363.74 102.288 365.17 106.839 364.782C113.865 364.217 132.255 354.954 132.805 353.316C133.354 351.678 131.46 347.896 129.903 346.019C128.314 344.143 127.276 342.475 125.993 342.177C125.779 342.147 125.565 342.088 125.351 342.058Z" fill="#FFBE3B"></path> <path fill-rule="evenodd" clip-rule="evenodd" d="M120.189 372.674C120.678 372.466 139.465 366.062 139.465 366.062C139.465 366.062 148.659 372.823 156.174 367.701C156.174 367.701 154.066 376.218 139.465 370.619L120.189 372.674Z" fill="white"></path> <path fill-rule="evenodd" clip-rule="evenodd" d="M90.3436 368.089C90.3436 368.089 90.2214 371.961 106.564 372.586C99.8438 375.207 93.49 375.237 88.4191 372.616C85.9143 371.305 87.1361 370.561 90.3436 368.089Z" fill="white"></path> <path fill-rule="evenodd" clip-rule="evenodd" d="M95.9648 363.472C95.9648 363.472 96.087 354.537 112.185 371.126C112.216 371.126 99.936 360.642 95.9648 363.472Z" fill="#1E2A2C"></path> <path fill-rule="evenodd" clip-rule="evenodd" d="M101.127 359.869C101.127 359.869 101.28 349.772 119.516 368.535C119.516 368.535 105.648 356.652 101.127 359.869Z" fill="#1E2A2C"></path> <path fill-rule="evenodd" clip-rule="evenodd" d="M107.114 355.222C107.114 355.222 107.206 345.066 128.039 366.212C128.07 366.212 112.216 352.542 107.114 355.222Z" fill="#1E2A2C"></path> <path fill-rule="evenodd" clip-rule="evenodd" d="M113.682 350.725C113.682 350.725 113.773 339.854 136.134 362.489C136.134 362.489 119.15 347.836 113.682 350.725Z" fill="#1E2A2C"></path> <path fill-rule="evenodd" clip-rule="evenodd" d="M287.893 35.2633C287.893 35.2633 288.137 54.6819 298.309 56.1412C298.309 56.1412 307.382 45.598 307.076 38.6884C306.771 31.8085 300.02 30.0811 300.02 30.0811L287.893 35.2633Z" fill="white"></path> <path fill-rule="evenodd" clip-rule="evenodd" d="M278.056 10.7215C278.056 10.7215 242.163 10.1854 254.718 36.603C254.718 36.603 256.978 26.3874 263.088 34.0417C263.088 34.0417 278.911 18.763 287.923 34.816L308.053 30.6464C308.023 30.6464 299.745 12.6574 278.056 10.7215Z" fill="white"></path> <path fill-rule="evenodd" clip-rule="evenodd" d="M276.835 27.8469C276.835 27.8469 281.723 22.6052 293.666 29.8722C305.61 37.1094 313.156 26.1791 313.156 26.1791C313.156 26.1791 302.067 34.0716 291.284 30.3487C280.47 26.5961 281.325 27.43 276.835 27.8469Z" fill="#FFE3E3"></path> <path fill-rule="evenodd" clip-rule="evenodd" d="M262.446 31.8083C262.446 31.8083 251.358 7.08836 293.146 18.6144C293.177 18.6144 257.834 9.35185 262.446 31.8083Z" fill="#FFE3E3"></path> <path fill-rule="evenodd" clip-rule="evenodd" d="M289.359 34.0721C289.359 34.0721 294.216 30.7364 300.02 36.008C305.824 41.2796 310.987 38.5991 310.987 38.5991C310.987 38.5991 301.334 37.8843 297.454 35.5613C293.575 33.2382 289.359 34.0721 289.359 34.0721Z" fill="#FFE3E3"></path> <path fill-rule="evenodd" clip-rule="evenodd" d="M256.614 28.5319C256.614 28.5319 233 7.95183 279.921 10.5132C279.952 10.5132 240.515 8.78576 256.614 28.5319Z" fill="white"></path> <path fill-rule="evenodd" clip-rule="evenodd" d="M249.19 27.5791C246.135 30.3191 239.323 38.2414 253.344 45.0022L253.069 43.2152C242.256 37.3777 246.135 30.8255 249.19 27.5791Z" fill="white"></path> <path fill-rule="evenodd" clip-rule="evenodd" d="M281.814 20.1927C281.814 20.1927 286.702 14.9509 298.646 22.2179C310.59 29.4551 318.135 18.5248 318.135 18.5248C318.135 18.5248 307.046 26.4173 296.263 22.6944C285.48 18.9418 286.335 19.7757 281.814 20.1927Z" fill="white"></path> <path fill-rule="evenodd" clip-rule="evenodd" d="M300.692 67.6375C300.692 67.6375 304.083 71.3306 312.361 60.3407C320.64 49.3507 325.894 57.8985 325.894 57.8985C325.894 57.8985 318.196 53.4608 310.712 60.6087C303.228 67.7268 303.808 66.6249 300.692 67.6375Z" fill="white"></path> <path fill-rule="evenodd" clip-rule="evenodd" d="M286.121 54.0264C286.121 54.0264 290.061 60.3105 283.86 63.7654C283.86 63.7654 287.77 59.7745 286.121 54.0264Z" fill="#FF7F7F"></path> <path fill-rule="evenodd" clip-rule="evenodd" d="M267.916 43.0063C267.916 43.0063 265.808 49.2608 262.387 45.5081C262.387 45.5081 265.441 47.0271 267.916 43.0063Z" fill="#FF7F7F"></path> <path fill-rule="evenodd" clip-rule="evenodd" d="M287.313 18.8828C287.313 18.8828 288.077 23.7672 274.117 22.9631C260.157 22.1589 263.578 31.5704 263.578 31.5704C263.578 31.5704 264.983 22.9631 275.4 21.9207C285.786 20.8485 284.534 20.5805 287.313 18.8828Z" fill="#FFE3E3"></path> <path fill-rule="evenodd" clip-rule="evenodd" d="M296.936 53.7583C297.241 53.1626 300.968 48.4271 304.817 49.3504C308.085 50.1248 309.368 60.0127 302.648 64.1526V64.2717C302.312 66.7139 300.724 68.7094 299.074 68.7094C297.822 68.7094 296.875 67.5478 296.661 65.9097C287.405 66.2969 296.936 53.7583 296.936 53.7583Z" fill="#FFB79F"></path> <path fill-rule="evenodd" clip-rule="evenodd" d="M303.319 51.376C303.319 51.376 298.798 54.384 296.904 62.1872C296.904 62.1872 296.537 54.5032 303.319 51.376Z" fill="#FF7F7F"></path> <path fill-rule="evenodd" clip-rule="evenodd" d="M297.577 58.9704C297.577 58.9704 300.265 56.6473 301.243 57.7791C302.22 58.9406 299.471 63.3187 299.471 63.3187C299.471 63.3187 300.907 58.8215 300.082 58.7917C299.227 58.7619 297.241 60.5191 297.241 60.5191L297.577 58.9704Z" fill="#FF7F7F"></path> <path fill-rule="evenodd" clip-rule="evenodd" d="M300.05 61.2935C301.149 61.2935 301.882 62.6039 301.669 64.242C301.455 65.88 300.386 67.1905 299.286 67.1905C298.186 67.1905 297.453 65.88 297.667 64.242C297.881 62.6337 298.95 61.2935 300.05 61.2935Z" fill="#1D1D1D"></path> <path fill-rule="evenodd" clip-rule="evenodd" d="M264.829 62.4254C264.829 62.4254 268.251 65.4335 265.471 68.0545C262.722 70.6754 261.561 68.8586 258.995 72.4028C256.429 75.9172 249.678 72.0156 252 69.5138C254.321 67.0121 253.741 69.7819 253.741 69.7819C253.741 69.7819 253.16 68.9778 252.886 69.8117C252.611 70.6456 253.588 72.7006 254.932 71.6284C255.543 71.1519 256.032 70.0499 256.246 68.6799C257.132 62.7531 262.508 60.3704 264.829 62.4254Z" fill="white"></path> <path fill-rule="evenodd" clip-rule="evenodd" d="M266.327 64.6293C266.694 65.642 266.694 66.8928 265.472 68.0544C262.723 70.6753 261.562 68.8585 258.996 72.4027C257.896 73.9217 256.003 74.0408 254.414 73.5345C254.506 73.5643 257.011 73.9812 258.202 71.9858C259.424 69.9605 263.303 68.0842 263.945 66.7737C264.586 65.4633 264.128 63.4976 264.128 63.4976C264.128 63.4976 265.258 63.9145 266.327 64.6293Z" fill="#E4E4E4"></path> <path fill-rule="evenodd" clip-rule="evenodd" d="M265.012 63.2885C265.012 63.2885 262.63 66.9816 266.479 68.7685C277.476 73.8614 285.204 67.9346 283.249 66.8624C279.95 65.0755 281.141 67.607 281.141 67.607C281.141 67.607 281.63 66.3561 282.119 67.1007C282.608 67.8453 280.072 70.496 277.873 67.2496C274.543 62.3355 267.548 60.608 265.012 63.2885Z" fill="white"></path> <path fill-rule="evenodd" clip-rule="evenodd" d="M263.668 48.6359C262.538 55.1881 258.231 65.6717 261.041 66.2077C262.569 66.5056 263.149 65.3738 268.067 63.021C270.114 62.0381 270.45 61.7701 269.961 60.4894C269.472 59.179 267.12 59.0599 267.12 59.0599C267.12 59.0599 266.448 49.2315 266.143 48.9039C265.868 48.5763 264.524 47.1765 263.668 48.6359Z" fill="#FF7F7F"></path> <path fill-rule="evenodd" clip-rule="evenodd" d="M233.276 104.181L264.006 93.1616C264.006 93.1616 262.693 99.6543 294.279 93.1318L324.582 107.636L305.581 196.032L310.072 235.882C310.072 235.882 229.61 277.012 203.492 237.311C203.492 237.341 212.229 141.857 233.276 104.181Z" fill="white"></path> <path fill-rule="evenodd" clip-rule="evenodd" d="M310.07 175.213L305.611 196.032L310.101 235.881C310.101 235.881 289.94 246.186 266.51 251.517C259.27 251.666 253.589 250.743 251.481 248.063C236.513 234.273 253.986 196.27 253.986 196.27C249.801 180.812 255.849 156.807 268.618 140.427C269.168 117.136 289.42 101.739 289.42 101.739C303.289 99.8027 316.363 112.729 319.235 115.766H318.501C318.471 115.766 282.975 154.395 310.07 175.213Z" fill="#F7DCDC"></path> <path fill-rule="evenodd" clip-rule="evenodd" d="M233.275 104.181L263.975 93.1611H264.005C258.69 98.8795 253.344 113.503 248.365 131.611C240.3 139.682 234.099 165.951 234.71 193.083C234.71 218.756 217.084 242.553 213.938 247.646C209.936 245.084 206.393 241.689 203.521 237.311C203.521 237.311 208.837 179.175 221.178 135.721L221.483 135.274L221.575 134.381L221.728 133.845L221.758 133.785L222.216 132.207L222.369 131.671L222.522 131.135L222.858 130.062L223.011 129.526L223.316 128.543L223.744 127.233L224.11 126.161L224.538 124.88L224.996 123.48L225.241 122.736C225.424 122.17 225.638 121.604 225.852 121.038L226.096 120.383C226.31 119.787 226.524 119.191 226.768 118.596L226.89 118.238C227.135 117.583 227.379 116.928 227.654 116.303L227.745 116.034C227.99 115.379 228.265 114.754 228.54 114.099L228.662 113.831C228.937 113.175 229.212 112.52 229.487 111.895L229.517 111.865C230.678 109.125 231.961 106.534 233.275 104.181Z" fill="#F7DCDC"></path> <path fill-rule="evenodd" clip-rule="evenodd" d="M235.443 99.8027C235.443 99.8027 222.918 109.572 218.886 133.219C205.843 150.583 199.794 167.351 198.206 184.625C184.826 205.86 184.368 219.977 183.757 230.52C183.757 230.52 193.929 240.259 211.31 236.477C211.31 236.477 226.89 217.058 228.692 188.228C229.7 162.436 237.459 137.448 246.012 129.764C252.061 112.55 258.292 98.6114 263.943 93.1909C263.974 93.1611 252.702 90.0637 235.443 99.8027Z" fill="#E63140"></path> <path fill-rule="evenodd" clip-rule="evenodd" d="M294.185 92.9828C294.185 92.9828 288.473 95.1867 285.204 98.6415C279.186 105.015 270.572 116.75 270.205 131.79C257.437 148.111 251.419 171.997 255.604 187.395C255.604 187.395 238.192 225.249 253.16 238.979C255.359 241.749 261.469 242.643 269.197 242.374C263.852 242.166 259.758 241.124 258.048 238.979C243.079 225.249 260.491 187.395 260.491 187.395C256.276 172.027 262.324 148.111 275.093 131.79C275.643 108.619 295.865 93.2806 295.865 93.2806C297.209 93.1019 298.737 92.953 300.325 92.8636C297.026 92.7147 296.873 92.5956 294.185 92.9828Z" fill="#1E2A2C"></path> <path fill-rule="evenodd" clip-rule="evenodd" d="M210.059 236.715C210.486 236.626 210.944 236.536 211.372 236.447C211.372 236.447 226.951 217.029 228.754 188.199C229.762 162.407 237.521 137.419 246.074 129.735C252.061 112.609 258.262 98.7305 263.913 93.2505L263.364 93.0122C263.364 93.0122 246.899 107.457 243.019 129.705C243.019 129.705 223.652 161.811 225.424 188.943C226.585 207.647 216.474 226.678 210.059 236.715Z" fill="#1E2A2C"></path> <path fill-rule="evenodd" clip-rule="evenodd" d="M297.821 90.1534C297.821 90.1534 273.964 108.351 273.384 131.641C260.584 148.052 254.567 172.027 258.752 187.484C258.752 187.484 241.309 225.517 256.247 239.277C262.784 247.527 303.534 239.277 318.533 232.874C318.533 232.874 322.382 198.891 315.417 183.91C315.417 183.91 316.791 176.256 317.25 168.125C285.725 147.813 323.237 106.981 323.237 106.981H323.97C324.947 104.687 325.619 101.65 312.82 94.6506C308.238 92.1488 303.412 89.379 297.821 90.1534Z" fill="#E63140"></path> <path fill-rule="evenodd" clip-rule="evenodd" d="M296.11 239.485C305.03 237.579 313.339 235.137 318.563 232.903C318.563 232.903 322.411 198.921 315.447 183.94C315.447 183.94 316.821 176.285 317.28 168.155C316.76 167.827 316.271 167.499 315.813 167.172C306.802 171.967 293.819 178.966 293.819 178.966C293.819 178.966 307.016 226.023 304.816 231.712C302.678 237.281 296.385 239.396 296.11 239.485Z" fill="#B02731"></path> <path fill-rule="evenodd" clip-rule="evenodd" d="M309.063 160.501C293.82 139.057 323.267 106.981 323.267 106.981H324C324.275 106.385 324.489 105.73 324.459 104.955L324.428 104.628C324.397 104.598 319.602 99.0286 305.855 119.758C292.078 140.546 288.779 162.049 288.779 162.049L299.99 167.53C300.021 167.559 304.114 165.206 309.063 160.501Z" fill="#B02731"></path> <path fill-rule="evenodd" clip-rule="evenodd" d="M219.559 133.309C219.559 133.309 223.652 142.274 241.675 129.675C241.705 129.675 227.104 137.002 219.559 133.309Z" fill="#B02731"></path> <path fill-rule="evenodd" clip-rule="evenodd" d="M198.939 186.263C198.939 186.263 204.468 198.236 227.593 187.991C227.623 187.991 208.806 192.815 198.939 186.263Z" fill="#B02731"></path> <path fill-rule="evenodd" clip-rule="evenodd" d="M300.142 134.709C300.142 134.709 292.077 143.673 275.826 131.075C275.826 131.075 290.061 138.402 300.142 134.709Z" fill="#B02731"></path> <path fill-rule="evenodd" clip-rule="evenodd" d="M303.685 149.302L293.574 154.544L291.222 158.028C290.183 159.577 301.486 196.419 325.16 192.011C331.33 190.819 329.039 159.279 303.685 149.302Z" fill="#1E2A2C"></path> <path fill-rule="evenodd" clip-rule="evenodd" d="M167.354 153.889C167.354 153.889 174.594 159.547 176.671 165.147C178.749 170.746 181.559 184.863 196.619 187.275C211.648 189.688 213.603 167.857 213.603 167.857C213.603 167.857 191.853 158.088 185.866 155.646C179.848 153.174 175.266 147.456 167.354 153.889Z" fill="#FF7F7F"></path> <path fill-rule="evenodd" clip-rule="evenodd" d="M308.053 185.786C308.053 185.786 293.727 196.895 260.491 185.965C260.522 185.965 289.083 191.504 308.053 185.786Z" fill="#B02731"></path> <path fill-rule="evenodd" clip-rule="evenodd" d="M264.86 192.845L301.823 227.87C301.823 227.9 265.685 222.598 264.86 192.845Z" fill="#FFBE3B"></path> <path fill-rule="evenodd" clip-rule="evenodd" d="M268.801 198.712L295.499 224.177C295.499 224.177 273.352 213.693 268.801 198.712Z" fill="#1E2A2C"></path> <path fill-rule="evenodd" clip-rule="evenodd" d="M305.702 132.803L289.879 174.499L310.071 207.022C310.071 207.022 329.132 159.786 331.148 146.473C333.195 133.16 321.648 112.252 305.702 132.803Z" fill="#FF7F7F"></path> <path fill-rule="evenodd" clip-rule="evenodd" d="M291.223 158.028C302.586 141.261 336.158 175.6 326.046 191.594C330.934 187.335 332.125 174.886 332.981 169.167C336.463 146.383 347.277 113.801 324.427 104.627C317.554 106.027 299.623 139.384 291.223 158.028Z" fill="white"></path> <path fill-rule="evenodd" clip-rule="evenodd" d="M330.291 123.42C333.743 123.42 336.737 125.505 338.814 128.871C339.028 137.984 337.073 148.289 335.24 157.909C333.132 159.905 330.658 161.066 328.062 161.066C321.097 161.066 315.965 152.638 316.576 142.243C317.187 131.849 323.327 123.42 330.291 123.42Z" fill="#1E2A2C"></path> <path fill-rule="evenodd" clip-rule="evenodd" d="M329.772 153.352L332.337 153.59L335.331 148.17L333.101 147.961L331.238 151.356L329.924 147.693L327.694 147.485L329.772 153.352ZM326.136 142.362L325.953 144.745L336.461 141.707L336.645 139.324L326.136 142.362ZM331.543 130.627L328.55 136.048L330.78 136.256L332.643 132.861L333.956 136.524L336.186 136.733L334.079 130.866L331.543 130.627Z" fill="#E63140"></path> <path fill-rule="evenodd" clip-rule="evenodd" d="M262.661 32.8208C262.661 32.8208 267.579 34.7865 253.344 44.7042C239.109 54.6219 250.442 56.945 250.442 56.945C250.442 56.945 244.485 51.4649 253.68 43.2151C262.844 34.9652 261.439 35.7693 262.661 32.8208Z" fill="white"></path> <path fill-rule="evenodd" clip-rule="evenodd" d="M241.522 106.743C244.18 106.743 244.058 111.27 241.217 116.869C238.407 122.468 233.977 126.995 231.32 126.995C228.662 126.995 228.784 122.468 231.625 116.869C234.466 111.299 238.895 106.743 241.522 106.743Z" fill="#FFC74F"></path> <path fill-rule="evenodd" clip-rule="evenodd" d="M234.069 116.899L238.59 117.792L238.407 113.027L234.069 116.899ZM238.926 118.745L232.267 117.435L239.262 111.24L239.567 118.864L238.926 118.745Z" fill="#1E2A2C"></path> <path fill-rule="evenodd" clip-rule="evenodd" d="M268.587 50.7201C268.587 50.7201 270.542 51.1668 273.138 49.5883C274.91 48.5161 279.4 47.5332 283.616 48.1289C283.249 45.8654 279.4 42.5893 272.802 46.3717C271.55 47.0865 270.358 45.7165 269.167 46.2824C268.403 46.6695 268.281 48.9926 268.587 50.7201Z" fill="#1D1D1D"></path> <path fill-rule="evenodd" clip-rule="evenodd" d="M3.89536 388.937L71.5881 174.529H74.0319L38.3527 287.555L6.12531 389.681C5.88093 390.515 5.33108 391.141 4.62849 391.528C3.95645 391.915 3.13168 392.034 2.3069 391.796C1.51267 391.558 0.84063 391.022 0.443516 390.337C0.046401 389.652 -0.106332 388.788 0.0769515 387.954L46.967 174.529H49.3497L2.368 388.46C2.3069 388.669 2.36799 388.907 2.45964 389.086C2.55128 389.264 2.73456 389.413 2.94839 389.473C3.16222 389.532 3.37605 389.503 3.52879 389.413C3.68152 389.294 3.83427 389.145 3.89536 388.937Z" fill="#1F1F1F"></path> <path fill-rule="evenodd" clip-rule="evenodd" d="M53.4121 179.979C51.9153 181.915 49.5632 183.196 46.875 183.196C44.1868 183.196 41.8347 181.945 40.3379 179.979H53.4121Z" fill="#1F1F1F"></path> <path fill-rule="evenodd" clip-rule="evenodd" d="M76.7188 179.979C75.2219 181.915 72.8698 183.196 70.1816 183.196C67.4935 183.196 65.1413 181.945 63.6445 179.979H76.7188Z" fill="#1F1F1F"></path> <path fill-rule="evenodd" clip-rule="evenodd" d="M410.05 400.73L338.478 173.992H335.912L373.638 293.511L407.729 401.505C408.004 402.368 408.584 403.053 409.317 403.47C410.05 403.887 410.906 404.007 411.761 403.768C412.616 403.53 413.288 402.964 413.716 402.22C414.144 401.475 414.296 400.581 414.113 399.688L364.535 173.992H362.03L411.73 400.254C411.791 400.492 411.73 400.73 411.639 400.909C411.517 401.088 411.364 401.237 411.119 401.296C410.906 401.356 410.661 401.326 410.478 401.237C410.264 401.147 410.111 400.969 410.05 400.73Z" fill="#1F1F1F"></path> <path fill-rule="evenodd" clip-rule="evenodd" d="M357.691 179.979C359.249 182.034 361.785 183.374 364.595 183.374C367.436 183.374 369.941 182.034 371.499 179.979H357.691Z" fill="#1F1F1F"></path> <path fill-rule="evenodd" clip-rule="evenodd" d="M333.041 179.979C334.599 182.034 337.134 183.374 339.945 183.374C342.786 183.374 345.29 182.034 346.848 179.979H333.041Z" fill="#1F1F1F"></path> <path fill-rule="evenodd" clip-rule="evenodd" d="M515.225 381.312L449.946 174.529H447.594L481.99 283.535L513.087 382.027C513.331 382.831 513.881 383.457 514.523 383.814C515.195 384.171 515.989 384.291 516.753 384.082C517.516 383.874 518.158 383.338 518.524 382.653C518.922 381.997 519.044 381.163 518.861 380.359L473.651 174.529H471.36L516.692 380.866C516.753 381.074 516.692 381.283 516.6 381.461C516.508 381.64 516.325 381.759 516.142 381.819C515.959 381.878 515.745 381.848 515.561 381.759C515.439 381.67 515.286 381.521 515.225 381.312Z" fill="#1F1F1F"></path> <path fill-rule="evenodd" clip-rule="evenodd" d="M467.48 179.979C468.916 181.855 471.207 183.076 473.773 183.076C476.37 183.076 478.63 181.855 480.066 179.979H467.48Z" fill="#1F1F1F"></path> <path fill-rule="evenodd" clip-rule="evenodd" d="M445.028 179.979C446.464 181.855 448.755 183.076 451.321 183.076C453.918 183.076 456.178 181.855 457.614 179.979H445.028Z" fill="#1F1F1F"></path> <path fill-rule="evenodd" clip-rule="evenodd" d="M145.512 179.979C146.947 181.855 149.238 183.076 151.804 183.076C154.37 183.076 156.661 181.855 158.097 179.979H145.512Z" fill="#1F1F1F"></path> <path fill-rule="evenodd" clip-rule="evenodd" d="M123.029 179.979C124.465 181.855 126.756 183.076 129.322 183.076C131.919 183.076 134.179 181.855 135.615 179.979H123.029Z" fill="#1F1F1F"></path> <path fill-rule="evenodd" clip-rule="evenodd" d="M197.351 213.246C197.351 213.246 319.234 196.21 318.532 232.903C318.532 232.903 314.347 266.081 216.015 259.589C216.046 259.589 188.462 225.934 197.351 213.246Z" fill="#B02731"></path> <path fill-rule="evenodd" clip-rule="evenodd" d="M205.721 209.792C205.721 209.792 133.996 194.483 113.254 206.039C92.5126 217.595 111.482 320.972 133.385 329.043C155.287 337.114 170.103 301.91 164.176 276.208C158.25 250.505 164.757 253.394 173.646 255.985C182.535 258.576 233.183 264.682 245.035 251.518C256.887 238.383 205.721 209.792 205.721 209.792Z" fill="#E63140"></path> <path fill-rule="evenodd" clip-rule="evenodd" d="M228.356 210.655C228.356 210.655 154.859 198.921 126.42 202.405C126.97 202.435 157.425 204.58 162.13 221.05C166.864 237.639 149.697 233.618 148.506 249.195C147.314 264.771 165.123 303.638 153.882 323.176C163.382 312.722 167.995 292.529 164.237 276.178C158.311 250.475 164.818 253.364 173.707 255.955C182.596 258.546 233.244 264.652 245.096 251.488C256.887 238.383 228.356 210.655 228.356 210.655Z" fill="#B02731"></path> <path fill-rule="evenodd" clip-rule="evenodd" d="M250.869 228.406C249.891 246.514 250.411 308.611 272.007 317.725C293.604 326.838 303.99 308.879 307.32 298.157C310.65 287.435 311.505 255.032 304.846 231.711C293.177 191.058 252.366 200.588 250.869 228.406Z" fill="#E63140"></path> <path fill-rule="evenodd" clip-rule="evenodd" d="M250.87 228.406C250.717 230.997 250.625 234.511 250.595 238.651C250.656 238.442 255.788 219.858 270.97 219.322C286.243 218.786 309.215 257.503 309.215 257.503C308.482 248.658 308.268 239.306 306.007 231.354C300.142 210.923 285.663 202.613 273.75 203.477C261.989 204.341 251.603 214.556 250.87 228.406Z" fill="#B02731"></path> <path fill-rule="evenodd" clip-rule="evenodd" d="M276.132 383.487C297.362 383.993 311.475 388.729 307.657 394.06C303.838 399.391 283.524 403.322 262.294 402.846C241.064 402.339 226.951 397.604 230.769 392.273C234.587 386.912 254.901 382.98 276.132 383.487Z" fill="#1E2A2C" fill-opacity="0.5"></path> <path fill-rule="evenodd" clip-rule="evenodd" d="M294.248 352.78C294.248 352.78 293.851 365.259 292.048 373.42C290.888 378.661 294.217 387.686 287.68 392.689C278.852 399.45 255.483 403.381 247.846 393.315C243.57 387.686 245.128 374.79 249.802 370.292C258.08 362.311 264.892 361.834 264.647 356.324C264.403 350.814 271.643 344.917 271.643 344.917C271.643 344.917 292.232 336.012 294.248 352.78Z" fill="white"></path> <path fill-rule="evenodd" clip-rule="evenodd" d="M294.491 350.1C295.468 357.903 288.198 366.54 290.489 373.122C292.78 379.704 280.133 390.366 264.524 390.247C248.914 390.098 244.026 380.151 250.961 369.726C257.925 359.302 264.554 358.647 264.401 354.09C264.218 349.563 271.58 344.679 271.58 344.679C271.58 344.679 292.749 336.31 294.491 350.1Z" fill="#203952"></path> <path fill-rule="evenodd" clip-rule="evenodd" d="M289.726 349.712C287.374 358.409 283.373 372.05 281.326 373.211C278.271 374.968 256.43 374.462 255.147 372.318C254.261 370.799 258.08 356.92 260.829 348.342C262.692 342.535 261.501 339.527 269.046 337.591C273.445 336.459 279.585 337.501 284.717 338.693C294.156 340.897 291.223 344.173 289.726 349.712Z" fill="#30567D"></path> <path fill-rule="evenodd" clip-rule="evenodd" d="M282.18 376.517C279.737 380.537 273.474 384.915 265.777 385.809C256.276 386.911 249.189 380.716 250.778 375.593C262.386 385.868 282.089 376.546 282.18 376.517Z" fill="white"></path> <path fill-rule="evenodd" clip-rule="evenodd" d="M287.312 339.884C287.312 339.884 285.815 345.87 284.074 351.619C279.278 367.612 257.865 369.935 262.997 351.38C264.524 345.811 266.448 339.884 266.907 339.318C267.701 338.276 281.722 333.779 287.312 339.884Z" fill="#FFBE3B"></path> <path fill-rule="evenodd" clip-rule="evenodd" d="M290.092 351.589C290.092 351.589 273.413 339.407 259.025 350.963C259.025 350.963 271.886 344.977 290.092 351.589Z" fill="#1E2A2C"></path> <path fill-rule="evenodd" clip-rule="evenodd" d="M288.381 357.932C288.381 357.932 271.702 345.751 257.314 357.307C257.314 357.307 270.175 351.32 288.381 357.932Z" fill="#1E2A2C"></path> <path fill-rule="evenodd" clip-rule="evenodd" d="M286.763 363.979C286.763 363.979 270.084 351.797 255.696 363.353C255.696 363.353 268.557 357.367 286.763 363.979Z" fill="#1E2A2C"></path> <path fill-rule="evenodd" clip-rule="evenodd" d="M285.387 369.489C285.387 369.489 268.708 357.308 254.32 368.863C254.32 368.863 267.181 362.907 285.387 369.489Z" fill="#1E2A2C"></path> <path fill-rule="evenodd" clip-rule="evenodd" d="M253.436 234.78C253.436 234.78 281.02 280.824 289.42 241.57C289.42 241.541 280.256 265.397 253.436 234.78Z" fill="#B02731"></path> <path fill-rule="evenodd" clip-rule="evenodd" d="M137.174 216.999C137.174 216.999 105.771 263.043 107.237 223.76C107.268 223.76 109.589 247.586 137.174 216.999Z" fill="#B02731"></path> <path fill-rule="evenodd" clip-rule="evenodd" d="M292.078 318.232C294.064 317.279 295.835 316.028 297.424 314.568C318.898 281.926 302.189 231.444 294.95 213.187C293.728 211.876 292.445 210.715 291.101 209.702C296.63 222.539 319.754 281.658 293.544 316.236C293.056 316.921 292.567 317.576 292.078 318.232Z" fill="white"></path> <path fill-rule="evenodd" clip-rule="evenodd" d="M247.63 156.57C247.63 156.57 256.031 160.561 265.226 163.301C274.42 166.041 293.543 167.411 301.852 173.606C310.161 179.8 311.046 204.818 310.13 207.052C309.183 209.256 273.107 196.717 257.528 180.873C241.979 165.058 238.1 164.373 238.1 164.373C238.1 164.373 239.322 152.192 247.63 156.57Z" fill="#FFB79F"></path> <path fill-rule="evenodd" clip-rule="evenodd" d="M239.537 158.565C240.545 154.753 239.69 150.345 236.849 146.771C234.008 143.197 229.884 141.35 225.913 141.469C224.905 141.499 224.111 142.154 223.928 143.167C223.744 144.18 224.203 145.192 225.088 145.788C227.196 147.188 229.243 149.064 231.045 151.327C232.847 153.591 234.192 156.003 235.108 158.356C235.475 159.369 236.391 160.024 237.399 160.084C238.468 160.113 239.293 159.518 239.537 158.565Z" fill="#FF8181"></path> <path fill-rule="evenodd" clip-rule="evenodd" d="M247.632 156.688L226.524 148.081L220.048 171.878L242.256 169.584C246.532 168.512 251.725 164.223 247.632 156.688Z" fill="#FFB9A1"></path> <path fill-rule="evenodd" clip-rule="evenodd" d="M205.08 142.243C209.051 142.124 213.694 142.869 218.582 144.537C223.469 146.204 227.837 148.557 231.32 151.238C232.389 152.042 232.817 153.501 232.297 154.603C231.809 155.705 230.556 156.122 229.365 155.556C225.699 153.799 221.728 152.131 217.482 150.702C213.266 149.272 209.173 148.14 205.355 147.336C204.133 147.068 203.155 145.907 203.064 144.596C203.003 143.286 203.858 142.273 205.08 142.243Z" fill="#FFB9A1"></path> <path fill-rule="evenodd" clip-rule="evenodd" d="M196.649 157.374C201.017 155.527 206.332 154.246 212.044 153.859C217.757 153.472 223.072 154.008 227.41 155.259C228.754 155.646 229.487 156.957 229.151 158.327C228.815 159.697 227.501 160.679 226.066 160.59C221.697 160.352 216.932 160.382 211.983 160.709C207.035 161.037 202.3 161.662 197.901 162.526C196.496 162.794 195.182 162.02 194.846 160.679C194.541 159.369 195.304 157.939 196.649 157.374Z" fill="#FFB9A1"></path> <path fill-rule="evenodd" clip-rule="evenodd" d="M199.459 167.172C203.889 168.155 209.234 168.423 214.947 167.678C220.659 166.963 225.913 165.385 230.19 163.3C231.503 162.645 232.175 161.215 231.778 159.905C231.381 158.594 230.007 157.909 228.632 158.237C224.294 159.339 219.559 160.203 214.611 160.828C209.662 161.454 204.927 161.751 200.498 161.751C199.093 161.751 197.81 162.794 197.565 164.164C197.26 165.593 198.085 166.844 199.459 167.172Z" fill="#FFB9A1"></path> <path fill-rule="evenodd" clip-rule="evenodd" d="M208.318 172.355C211.251 172.891 214.764 172.921 218.521 172.325C222.278 171.729 225.7 170.568 228.48 169.108C229.335 168.662 229.762 167.679 229.488 166.845C229.213 166.011 228.296 165.564 227.38 165.832C224.539 166.636 221.423 167.351 218.185 167.857C214.947 168.393 211.801 168.691 208.899 168.81C207.952 168.84 207.158 169.555 207.005 170.478C206.852 171.372 207.433 172.176 208.318 172.355Z" fill="#FFB9A1"></path> <path fill-rule="evenodd" clip-rule="evenodd" d="M153.454 153.769C153.454 153.769 173.738 155.646 177.739 154.782C181.741 153.918 187.82 151.327 183.36 148.438C178.931 145.549 163.077 143.673 153.454 153.769Z" fill="#FFB9A1"></path> <path fill-rule="evenodd" clip-rule="evenodd" d="M176.608 149.748C178.136 153.143 181.557 156.032 186.017 157.223C190.477 158.414 194.937 157.64 198.022 155.466C198.816 154.9 199.03 154.007 198.572 153.143C198.114 152.279 197.106 151.743 196.037 151.773C193.471 151.832 190.691 151.505 187.85 150.76C185.009 150.016 182.474 148.914 180.274 147.573C179.358 147.008 178.227 146.978 177.372 147.484C176.517 147.99 176.211 148.884 176.608 149.748Z" fill="#FFB9A1"></path> <path fill-rule="evenodd" clip-rule="evenodd" d="M154.86 167.737C158.586 166.904 162.833 165.117 167.079 162.377C171.355 159.636 175.021 156.36 177.801 152.995C178.656 151.952 178.809 150.493 178.137 149.57C177.465 148.647 176.243 148.557 175.235 149.361C172.119 151.893 168.667 154.424 164.971 156.777C161.275 159.16 157.639 161.185 154.218 162.853C153.118 163.389 152.416 164.729 152.569 165.98C152.721 167.231 153.699 167.976 154.86 167.737Z" fill="#FFB9A1"></path> <path fill-rule="evenodd" clip-rule="evenodd" d="M145.541 164.044C147.832 160.828 151.132 157.611 155.194 154.841C159.257 152.071 163.473 150.165 167.352 149.153C168.544 148.855 169.765 149.45 170.224 150.552C170.682 151.684 170.193 152.935 169.093 153.501C165.703 155.228 162.19 157.313 158.677 159.725C155.164 162.108 151.956 164.64 149.115 167.142C148.199 167.946 146.824 167.946 145.908 167.171C145.022 166.367 144.839 165.027 145.541 164.044Z" fill="#FFB9A1"></path> <path fill-rule="evenodd" clip-rule="evenodd" d="M145.145 161.572C147.161 158.802 150.124 155.973 153.79 153.501C157.456 151.029 161.335 149.271 164.909 148.289C166.009 147.991 167.17 148.467 167.628 149.391C168.086 150.314 167.689 151.386 166.681 151.892C163.596 153.471 160.388 155.347 157.211 157.492C154.034 159.636 151.133 161.84 148.597 164.044C147.772 164.759 146.489 164.818 145.603 164.163C144.748 163.537 144.534 162.406 145.145 161.572Z" fill="#FFB9A1"></path> <path fill-rule="evenodd" clip-rule="evenodd" d="M145.084 150.552C147.222 149.51 150.002 148.706 153.179 148.378C156.356 148.021 159.472 148.169 162.191 148.706C163.015 148.854 163.687 149.51 163.748 150.225C163.81 150.939 163.26 151.446 162.435 151.446C159.899 151.446 157.211 151.565 154.462 151.863C151.713 152.16 149.116 152.607 146.795 153.143C146.031 153.322 145.145 152.935 144.717 152.28C144.259 151.624 144.443 150.88 145.084 150.552Z" fill="#FFB9A1"></path> <path fill-rule="evenodd" clip-rule="evenodd" d="M41.9569 90.6294H146.215C147.528 90.6294 148.903 91.6718 149.3 92.9525L172.027 167.47C172.424 168.75 171.661 169.793 170.378 169.793H66.0587C64.7451 169.793 63.3705 168.75 62.9734 167.47L40.2463 92.9525C39.9102 91.6718 40.6434 90.6294 41.9569 90.6294Z" fill="white"></path> <path fill-rule="evenodd" clip-rule="evenodd" d="M213.022 171.192H153.363C152.66 171.192 152.11 170.626 152.11 169.971C152.11 169.286 152.691 168.75 153.363 168.75H213.022C213.724 168.75 214.274 169.316 214.274 169.971C214.305 170.626 213.724 171.192 213.022 171.192Z" fill="#4D4D4D"></path> <path fill-rule="evenodd" clip-rule="evenodd" d="M40.4605 92.0586H144.718C146.032 92.0586 147.406 93.101 147.804 94.3817L170.531 168.899C170.928 170.179 170.164 171.222 168.881 171.222H64.5929C63.2793 171.222 61.9047 170.179 61.5076 168.899L38.7804 94.3817C38.4139 93.101 39.1775 92.0586 40.4605 92.0586Z" fill="#CCCCCC"></path> <path fill-rule="evenodd" clip-rule="evenodd" d="M165.521 152.519L170.5 168.87C170.897 170.15 170.133 171.193 168.85 171.193H64.5925C63.279 171.193 61.9044 170.15 61.5073 168.87L48.4941 126.19L165.521 152.519Z" fill="#999999"></path> <path fill-rule="evenodd" clip-rule="evenodd" d="M101.585 125.237C105.189 125.237 108.825 128.097 109.68 131.611C110.535 135.125 108.275 137.984 104.67 137.984C101.066 137.984 97.4305 135.125 96.5752 131.611C95.7198 128.097 97.9498 125.237 101.585 125.237Z" fill="white"></path> <path fill-rule="evenodd" clip-rule="evenodd" d="M247.876 209.851L241.461 217.863L245.127 219.114L248.518 210.328L247.876 209.851ZM239.17 217.952L246.899 208.273C246.96 208.184 247.021 208.124 247.082 208.065C247.509 207.707 248.151 207.648 248.548 207.916L250.442 209.286C250.686 209.464 250.778 209.732 250.656 210.03L246.685 220.305C246.654 220.365 246.624 220.424 246.593 220.484C246.288 220.901 245.646 221.109 245.188 220.931L239.445 218.995C238.956 218.846 238.834 218.369 239.17 217.952Z" fill="#1E2A2C"></path> <path fill-rule="evenodd" clip-rule="evenodd" d="M249.678 206.277C249.525 206.486 244.943 213.187 244.943 213.187L247.387 214.229L250.472 207.915L249.678 206.277Z" fill="#1E2A2C"></path> <path fill-rule="evenodd" clip-rule="evenodd" d="M243.233 218.012C244.577 218.042 245.707 218.935 246.501 220.365C247.265 221.705 247.662 223.552 247.601 225.547C247.509 227.543 246.929 229.359 246.074 230.67C245.157 232.04 243.935 232.844 242.591 232.814C241.247 232.784 240.117 231.891 239.323 230.461C238.559 229.121 238.162 227.275 238.223 225.279C238.315 223.284 238.895 221.467 239.75 220.156C240.667 218.786 241.919 217.982 243.233 218.012ZM245.799 220.752C245.157 219.591 244.241 218.846 243.202 218.816C242.164 218.786 241.186 219.471 240.453 220.603C239.659 221.794 239.139 223.462 239.048 225.309C238.956 227.185 239.353 228.853 240.025 230.104C240.667 231.266 241.583 232.01 242.622 232.04C243.66 232.07 244.638 231.385 245.371 230.253C246.165 229.062 246.685 227.394 246.776 225.547C246.868 223.671 246.471 221.973 245.799 220.752Z" fill="#1E2A2C"></path> <path fill-rule="evenodd" clip-rule="evenodd" d="M240.301 229.925L237.552 281.837C237.552 281.837 243.722 282.671 246.93 280.467L245.28 229.866C245.28 229.836 243.172 231.265 240.301 229.925Z" fill="#FFBE3B"></path> <path fill-rule="evenodd" clip-rule="evenodd" d="M372.112 145.252C372.112 145.252 368.996 147.247 370.584 150.672L369.759 151.03C367.866 146.92 371.562 144.537 371.592 144.537L372.112 145.252Z" fill="#B02731"></path> <path fill-rule="evenodd" clip-rule="evenodd" d="M369.699 150.017C369.699 150.017 352.47 141.619 354.639 163.896C355.433 171.848 366.461 174.648 371.654 173.993C381.001 172.801 386.194 161.365 383.384 155.825C379.077 147.188 369.699 150.017 369.699 150.017Z" fill="#B02731"></path> <path fill-rule="evenodd" clip-rule="evenodd" d="M370.401 151.924C370.401 151.924 368.599 151.06 366.247 150.613C365.88 150.673 365.697 150.732 365.697 150.732C365.697 150.732 365.422 150.583 364.933 150.405C361.512 150.077 357.48 151 355.861 156.451C355.83 157.404 355.83 158.476 355.952 159.697C356.472 164.82 363.589 166.636 366.949 166.219C372.998 165.445 376.327 158.059 374.525 154.485C373.853 153.115 372.967 152.221 372.02 151.596C371.043 151.715 370.401 151.924 370.401 151.924Z" fill="#FF5462"></path> <path fill-rule="evenodd" clip-rule="evenodd" d="M364.75 149.838C365.33 150.821 364.292 152.459 362.398 153.501C360.534 154.544 358.549 154.603 357.968 153.621C357.388 152.638 358.427 151 360.321 149.957C362.184 148.915 364.169 148.855 364.75 149.838Z" fill="white"></path> <path fill-rule="evenodd" clip-rule="evenodd" d="M363.07 154.663C363.345 155.169 362.826 155.973 361.91 156.509C360.963 157.045 359.985 157.045 359.71 156.569C359.435 156.062 359.955 155.259 360.871 154.723C361.787 154.217 362.796 154.187 363.07 154.663Z" fill="white"></path> <path d="M504.533 170.746H15.2881V180.306H504.533V170.746Z" fill="#B58860"></path> <path d="M504.533 170.746H310.527V180.306H504.533V170.746Z" fill="#6B5E54"></path> <path fill-rule="evenodd" clip-rule="evenodd" d="M413.717 118.834H466.992C470.199 118.834 473.132 120.115 475.24 122.17C477.347 124.225 478.661 127.084 478.661 130.211V169.286H401.987V130.211C401.987 127.084 403.301 124.225 405.409 122.17C407.608 120.115 410.51 118.834 413.717 118.834ZM467.022 120.085H413.748C410.877 120.085 408.28 121.217 406.386 123.063C404.492 124.91 403.331 127.441 403.331 130.241V168.095H477.47V130.241C477.47 127.441 476.309 124.91 474.415 123.063C472.49 121.217 469.894 120.085 467.022 120.085Z" fill="white"></path> <path d="M483.427 162.586H392.457V170.746H483.427V162.586Z" fill="#1F1F1F"></path> <path d="M417.911 119.384L399.973 139.421L400.341 139.735L418.279 119.697L417.911 119.384Z" fill="white"></path> <path fill-rule="evenodd" clip-rule="evenodd" d="M400.734 139.028C402.689 140.695 402.873 143.584 401.193 145.49C399.482 147.397 396.519 147.575 394.564 145.937C392.609 144.269 392.426 141.38 394.106 139.474C395.816 137.568 398.779 137.36 400.734 139.028Z" fill="#1F1F1F"></path> <path d="M427.311 119.579H426.822V146.175H427.311V119.579Z" fill="white"></path> <path fill-rule="evenodd" clip-rule="evenodd" d="M427.127 154.514C429.724 154.514 431.801 152.459 431.801 149.958C431.801 147.426 429.693 145.401 427.127 145.401C424.561 145.401 422.453 147.456 422.453 149.958C422.423 152.459 424.531 154.514 427.127 154.514Z" fill="#1F1F1F"></path> <path fill-rule="evenodd" clip-rule="evenodd" d="M425.599 146.085C426.332 146.085 426.516 146.8 426.057 147.694C425.569 148.587 424.591 149.302 423.888 149.302C423.155 149.302 422.942 148.587 423.43 147.694C423.888 146.8 424.866 146.085 425.599 146.085Z" fill="#999999"></path> <path d="M436.688 119.578H436.199V146.174H436.688V119.578Z" fill="white"></path> <path fill-rule="evenodd" clip-rule="evenodd" d="M436.505 154.513C439.102 154.513 441.179 152.458 441.179 149.956C441.179 147.425 439.071 145.399 436.505 145.399C433.909 145.399 431.831 147.454 431.831 149.956C431.801 152.458 433.909 154.513 436.505 154.513Z" fill="#1F1F1F"></path> <path d="M446.036 119.578H445.547V146.174H446.036V119.578Z" fill="white"></path> <path fill-rule="evenodd" clip-rule="evenodd" d="M445.884 154.513C448.481 154.513 450.558 152.458 450.558 149.957C450.558 147.425 448.45 145.4 445.884 145.4C443.318 145.4 441.21 147.455 441.21 149.957C441.18 152.458 443.287 154.513 445.884 154.513Z" fill="#1F1F1F"></path> <path d="M455.415 119.579H454.926V146.175H455.415V119.579Z" fill="white"></path> <path fill-rule="evenodd" clip-rule="evenodd" d="M455.262 154.514C457.858 154.514 459.936 152.459 459.936 149.957C459.936 147.426 457.828 145.4 455.262 145.4C452.696 145.4 450.588 147.455 450.588 149.957C450.558 152.459 452.665 154.514 455.262 154.514Z" fill="#1F1F1F"></path> <path d="M464.792 119.579H464.304V146.175H464.792V119.579Z" fill="white"></path> <path fill-rule="evenodd" clip-rule="evenodd" d="M464.609 154.514C467.206 154.514 469.283 152.459 469.283 149.958C469.283 147.426 467.175 145.401 464.609 145.401C462.013 145.401 459.936 147.456 459.936 149.958C459.936 152.459 462.043 154.514 464.609 154.514Z" fill="#1F1F1F"></path> <path d="M485.473 162.586H412.251V170.746H485.473V162.586Z" fill="#663636"></path> <path fill-rule="evenodd" clip-rule="evenodd" d="M130.33 14.7128L129.597 15.4276H127.428V11.2282H130.299L130.33 14.7128ZM134.637 7.8925V4.37812L141.816 0.863689V3.93134L137.325 6.13531L141.816 8.30946V11.3771L134.637 7.8925ZM150.063 14.0278L145.054 0.0297667H148.078L153.087 14.0278H150.063ZM163.535 7.8925L156.356 11.4069V8.33922L160.846 6.16507L156.356 3.96115V0.893456L163.535 4.40788V7.8925ZM167.506 2.65069V0.0297667H171.11L173.982 2.82938L173.951 11.2282L171.08 14.0278H167.475V11.4069H169.888L171.08 10.2454V3.81223L169.888 2.65069H167.506ZM186.903 0.0297667L189.775 2.82938L189.744 11.2282L186.873 14.0278H179.694L176.823 11.2282L176.853 2.82938L179.725 0.0297667H186.903ZM186.873 10.2454V3.81223L185.681 2.65069H180.885L179.694 3.81223V10.2454L180.885 11.4069H185.681L186.873 10.2454ZM197.289 11.4069H199.428V14.0278H192.249V11.4069H194.418L194.448 2.65069H192.28V0.714765L193.013 0H197.32L197.289 11.4069Z" fill="#4DBDC6" fill-opacity="0.2"></path> <path fill-rule="evenodd" clip-rule="evenodd" d="M435.039 146.085C435.772 146.085 435.986 146.8 435.497 147.694C435.008 148.587 434.031 149.302 433.328 149.302C432.626 149.302 432.381 148.587 432.87 147.694C433.328 146.8 434.306 146.085 435.039 146.085Z" fill="#999999"></path> <path fill-rule="evenodd" clip-rule="evenodd" d="M444.478 146.085C445.211 146.085 445.425 146.8 444.937 147.694C444.448 148.587 443.47 149.302 442.768 149.302C442.034 149.302 441.851 148.587 442.309 147.694C442.768 146.8 443.745 146.085 444.478 146.085Z" fill="#999999"></path> <path fill-rule="evenodd" clip-rule="evenodd" d="M453.917 146.085C454.651 146.085 454.834 146.8 454.376 147.694C453.887 148.587 452.909 149.302 452.207 149.302C451.474 149.302 451.26 148.587 451.749 147.694C452.207 146.8 453.184 146.085 453.917 146.085Z" fill="#999999"></path> <path fill-rule="evenodd" clip-rule="evenodd" d="M463.356 146.085C464.089 146.085 464.303 146.8 463.814 147.694C463.325 148.587 462.348 149.302 461.645 149.302C460.912 149.302 460.698 148.587 461.187 147.694C461.645 146.8 462.623 146.085 463.356 146.085Z" fill="#999999"></path> <path fill-rule="evenodd" clip-rule="evenodd" d="M396.245 138.432C396.978 138.432 397.192 139.146 396.703 140.04C396.214 140.933 395.267 141.648 394.534 141.648C393.801 141.648 393.587 140.933 394.076 140.04C394.534 139.146 395.512 138.432 396.245 138.432Z" fill="#999999"></path> <path fill-rule="evenodd" clip-rule="evenodd" d="M148.2 350.785V352.214C147.101 352.512 146.52 352.929 146.459 353.465V353.584C146.459 354.061 146.765 354.359 147.406 354.478C148.017 354.597 148.903 354.537 150.064 354.24L150.339 354.18C151.622 353.823 152.263 353.227 152.263 352.393C152.263 351.797 151.774 351.619 150.797 351.887C150.705 351.916 150.583 351.946 150.492 351.976V353.227L149.025 353.525L149.086 350.278L150.675 349.891V350.546C152.935 349.981 154.035 350.576 154.035 352.333C154.035 353.971 152.691 355.103 150.033 355.758C149.819 355.818 149.575 355.878 149.331 355.907C146.215 356.533 144.596 355.967 144.474 354.21C144.474 354.12 144.474 354.031 144.474 353.942C144.474 352.453 145.512 351.44 147.559 350.934C147.803 350.874 147.987 350.844 148.2 350.785ZM144.565 347.866C144.565 349.891 146.032 350.546 149.025 349.802C152.263 348.998 153.882 347.657 153.882 345.751C153.882 343.845 152.355 343.279 149.239 344.054C146.123 344.828 144.565 346.079 144.565 347.866ZM149.392 347.926C147.559 348.313 146.643 348.164 146.643 347.419C146.643 346.675 147.559 346.079 149.422 345.632C151.255 345.185 152.172 345.334 152.172 346.139C152.172 346.883 151.347 347.449 149.728 347.866C149.606 347.896 149.483 347.926 149.392 347.926ZM144.596 341.85C144.596 340.063 146.184 338.812 149.27 338.038C152.385 337.263 153.943 337.829 153.913 339.735C153.913 341.641 152.263 342.982 149.056 343.786C146.062 344.53 144.596 343.875 144.596 341.85ZM149.422 341.909C149.545 341.88 149.636 341.85 149.758 341.82C151.377 341.403 152.202 340.837 152.202 340.093C152.202 339.289 151.286 339.14 149.453 339.586C147.62 340.033 146.673 340.629 146.673 341.373C146.673 342.148 147.589 342.326 149.422 341.909ZM153.974 336.37L153.882 334.732C152.233 335.178 150.43 335.685 148.506 336.221L153.73 333.094V331.396C153.363 331.485 152.996 331.575 152.63 331.664C149.942 332.319 147.253 332.885 144.626 333.362V335.298C146.368 334.791 148.109 334.315 149.758 333.898L144.871 336.817L144.962 338.663C146.49 338.216 148.048 337.799 149.667 337.412C151.072 337.025 152.508 336.697 153.974 336.37Z" fill="#2B2A29"></path> <path fill-rule="evenodd" clip-rule="evenodd" d="M283.464 31.0636C283.464 31.0636 288.29 28.8894 286.091 45.8062C283.892 62.7527 293.331 56.2005 293.331 56.2005C293.331 56.2005 285.175 56.7365 285.175 44.5553C285.205 32.4038 284.839 33.9525 283.464 31.0636Z" fill="white"></path> <path fill-rule="evenodd" clip-rule="evenodd" d="M270.267 72.1048C270.267 72.1048 266.174 76.4812 262.325 71.6582C262.325 71.6582 266.144 74.3972 270.267 72.1048Z" fill="#FF7F7F"></path> <path fill-rule="evenodd" clip-rule="evenodd" d="M263.242 33.5654C263.242 33.5654 268.16 36.8714 253.925 53.6094C239.69 70.3475 251.023 74.2789 251.023 74.2789C251.023 74.2789 245.066 65.0461 254.261 51.1076C263.425 37.199 261.989 38.5392 263.242 33.5654Z" fill="white"></path> </svg> 